<?xml version="1.0" encoding="UTF-8"?>
<svg xmlns="http://www.w3.org/2000/svg" viewBox="-20 -10 1140 1804" width="1140">
<defs><marker id="arr-front" viewBox="0 0 10 10" refX="9" refY="5" markerWidth="8" markerHeight="8" orient="auto-start-reverse"><path d="M 0 0 L 10 5 L 0 10 z" fill="#111"/></marker>
<marker id="arr-side" viewBox="0 0 10 10" refX="9" refY="5" markerWidth="8" markerHeight="8" orient="auto-start-reverse"><path d="M 0 0 L 10 5 L 0 10 z" fill="#111"/></marker>
<marker id="arr-top" viewBox="0 0 10 10" refX="9" refY="5" markerWidth="8" markerHeight="8" orient="auto-start-reverse"><path d="M 0 0 L 10 5 L 0 10 z" fill="#111"/></marker></defs>
<rect x="-20" y="-10" width="1140" height="1804" fill="#fafaf7"/>

<text x="550" y="24" text-anchor="middle" font-size="22" font-weight="700" fill="#111" font-family="sans-serif">吧檯椅</text>
<text x="550" y="46" text-anchor="middle" font-size="12" fill="#666" font-family="sans-serif">350 × 350 × 750 mm · 台灣檜木 · 13 件零件</text>
<g transform="translate(0, 70)">
  <g transform="translate(265.0, 872.0)">
    <rect x="-257.0" y="-864.0" width="514.0" height="996.0" fill="none" stroke="#222" stroke-width="1"/>
    
<line x1="-257.0" y1="-832.0" x2="257.0" y2="-832.0" stroke="#222" stroke-width="0.6"/>
<text x="-247.0" y="-842.0" font-size="13" font-weight="700" fill="#111" font-family="sans-serif">正視圖</text>
<text x="-175.0" y="-842.0" font-size="10" fill="#666" font-family="sans-serif">FRONT VIEW</text>
    
<g stroke="#888" stroke-width="0.5" stroke-dasharray="8 2 2 2" opacity="0.7">
  <line x1="0" y1="-760.0" x2="0" y2="10.0"/>
  <line x1="-185.0" y1="-375.0" x2="185.0" y2="-375.0"/>
</g>
    <rect x="-175.0" y="-750.0" width="350.0" height="750.0" fill="none" stroke="#999" stroke-dasharray="3 3" stroke-width="0.5" opacity="0.8"/>
    <rect x="-140.0" y="-717.0" width="280.0" height="50.0" fill="none" stroke="#888" stroke-width="0.5" stroke-dasharray="4 3"/>
<rect x="-140.0" y="-230.0" width="280.0" height="30.0" fill="none" stroke="#888" stroke-width="0.5" stroke-dasharray="4 3"/>
<rect x="-175.0" y="-722.0" width="35.0" height="722.0" fill="none" stroke="#888" stroke-width="0.5" stroke-dasharray="4 3"/>
<rect x="140.0" y="-722.0" width="35.0" height="722.0" fill="none" stroke="#888" stroke-width="0.5" stroke-dasharray="4 3"/>
<rect x="-166.5" y="-717.0" width="18.0" height="50.0" fill="none" stroke="#888" stroke-width="0.5" stroke-dasharray="4 3"/>
<rect x="148.5" y="-717.0" width="18.0" height="50.0" fill="none" stroke="#888" stroke-width="0.5" stroke-dasharray="4 3"/>
<rect x="-168.5" y="-230.0" width="22.0" height="30.0" fill="none" stroke="#888" stroke-width="0.5" stroke-dasharray="4 3"/>
<rect x="146.5" y="-230.0" width="22.0" height="30.0" fill="none" stroke="#888" stroke-width="0.5" stroke-dasharray="4 3"/>
<rect x="-140.0" y="-717.0" width="280.0" height="50.0" fill="none" stroke="#111" stroke-width="0.9"/>
<rect x="-140.0" y="-230.0" width="280.0" height="30.0" fill="none" stroke="#111" stroke-width="0.9"/>
<rect x="-175.0" y="-750.0" width="350.0" height="28.0" fill="none" stroke="#111" stroke-width="0.9"/>
<rect x="-175.0" y="-722.0" width="35.0" height="722.0" fill="none" stroke="#111" stroke-width="0.9"/>
<rect x="140.0" y="-722.0" width="35.0" height="722.0" fill="none" stroke="#111" stroke-width="0.9"/>
    
<g stroke="#111" fill="#111" stroke-width="0.6" font-family="sans-serif">
  <line x1="-175.0" y1="12.0" x2="-175.0" y2="36.0" stroke-width="0.4" stroke="#666"/>
  <line x1="175.0" y1="12.0" x2="175.0" y2="36.0" stroke-width="0.4" stroke="#666"/>
  <line x1="-175.0" y1="28.0" x2="175.0" y2="28.0" marker-start="url(#arr-front)" marker-end="url(#arr-front)"/>
  <text x="0" y="23.0" text-anchor="middle" font-size="11" stroke="none">350</text>
</g>
    
<g stroke="#111" fill="#111" stroke-width="0.6" font-family="sans-serif">
  <line x1="187.0" y1="-750.0" x2="211.0" y2="-750.0" stroke-width="0.4" stroke="#666"/>
  <line x1="187.0" y1="0.0" x2="211.0" y2="0.0" stroke-width="0.4" stroke="#666"/>
  <line x1="203.0" y1="-750.0" x2="203.0" y2="0.0" marker-start="url(#arr-front)" marker-end="url(#arr-front)"/>
  <text x="209.0" y="-375.0" text-anchor="start" dominant-baseline="middle" font-size="11" stroke="none">750</text>
</g>
  </g>
  <g transform="translate(570, 0)"><g transform="translate(265.0, 872.0)">
    <rect x="-257.0" y="-864.0" width="514.0" height="996.0" fill="none" stroke="#222" stroke-width="1"/>
    
<line x1="-257.0" y1="-832.0" x2="257.0" y2="-832.0" stroke="#222" stroke-width="0.6"/>
<text x="-247.0" y="-842.0" font-size="13" font-weight="700" fill="#111" font-family="sans-serif">側視圖</text>
<text x="-175.0" y="-842.0" font-size="10" fill="#666" font-family="sans-serif">SIDE VIEW</text>
    
<g stroke="#888" stroke-width="0.5" stroke-dasharray="8 2 2 2" opacity="0.7">
  <line x1="0" y1="-760.0" x2="0" y2="10.0"/>
  <line x1="-185.0" y1="-375.0" x2="185.0" y2="-375.0"/>
</g>
    <rect x="-175.0" y="-750.0" width="350.0" height="750.0" fill="none" stroke="#999" stroke-dasharray="3 3" stroke-width="0.5" opacity="0.8"/>
    <rect x="-140.0" y="-717.0" width="280.0" height="50.0" fill="none" stroke="#888" stroke-width="0.5" stroke-dasharray="4 3"/>
<rect x="-140.0" y="-230.0" width="280.0" height="30.0" fill="none" stroke="#888" stroke-width="0.5" stroke-dasharray="4 3"/>
<rect x="-175.0" y="-722.0" width="35.0" height="722.0" fill="none" stroke="#888" stroke-width="0.5" stroke-dasharray="4 3"/>
<rect x="140.0" y="-722.0" width="35.0" height="722.0" fill="none" stroke="#888" stroke-width="0.5" stroke-dasharray="4 3"/>
<rect x="-166.5" y="-717.0" width="18.0" height="50.0" fill="none" stroke="#888" stroke-width="0.5" stroke-dasharray="4 3"/>
<rect x="148.5" y="-717.0" width="18.0" height="50.0" fill="none" stroke="#888" stroke-width="0.5" stroke-dasharray="4 3"/>
<rect x="-168.5" y="-230.0" width="22.0" height="30.0" fill="none" stroke="#888" stroke-width="0.5" stroke-dasharray="4 3"/>
<rect x="146.5" y="-230.0" width="22.0" height="30.0" fill="none" stroke="#888" stroke-width="0.5" stroke-dasharray="4 3"/>
<rect x="-140.0" y="-717.0" width="280.0" height="50.0" fill="none" stroke="#111" stroke-width="0.9"/>
<rect x="-140.0" y="-230.0" width="280.0" height="30.0" fill="none" stroke="#111" stroke-width="0.9"/>
<rect x="-175.0" y="-750.0" width="350.0" height="28.0" fill="none" stroke="#111" stroke-width="0.9"/>
<rect x="-175.0" y="-722.0" width="35.0" height="722.0" fill="none" stroke="#111" stroke-width="0.9"/>
<rect x="140.0" y="-722.0" width="35.0" height="722.0" fill="none" stroke="#111" stroke-width="0.9"/>
    
<g stroke="#111" fill="#111" stroke-width="0.6" font-family="sans-serif">
  <line x1="-175.0" y1="12.0" x2="-175.0" y2="36.0" stroke-width="0.4" stroke="#666"/>
  <line x1="175.0" y1="12.0" x2="175.0" y2="36.0" stroke-width="0.4" stroke="#666"/>
  <line x1="-175.0" y1="28.0" x2="175.0" y2="28.0" marker-start="url(#arr-side)" marker-end="url(#arr-side)"/>
  <text x="0" y="23.0" text-anchor="middle" font-size="11" stroke="none">350</text>
</g>
    
<g stroke="#111" fill="#111" stroke-width="0.6" font-family="sans-serif">
  <line x1="187.0" y1="-750.0" x2="211.0" y2="-750.0" stroke-width="0.4" stroke="#666"/>
  <line x1="187.0" y1="0.0" x2="211.0" y2="0.0" stroke-width="0.4" stroke="#666"/>
  <line x1="203.0" y1="-750.0" x2="203.0" y2="0.0" marker-start="url(#arr-side)" marker-end="url(#arr-side)"/>
  <text x="209.0" y="-375.0" text-anchor="start" dominant-baseline="middle" font-size="11" stroke="none">750</text>
</g>
  </g></g>
  <g transform="translate(0, 1052)"><g transform="translate(265.0, 297.0)">
    <rect x="-257.0" y="-289.0" width="514.0" height="596.0" fill="none" stroke="#222" stroke-width="1"/>
    
<line x1="-257.0" y1="-257.0" x2="257.0" y2="-257.0" stroke="#222" stroke-width="0.6"/>
<text x="-247.0" y="-267.0" font-size="13" font-weight="700" fill="#111" font-family="sans-serif">俯視圖</text>
<text x="-175.0" y="-267.0" font-size="10" fill="#666" font-family="sans-serif">TOP VIEW</text>
    
<g stroke="#888" stroke-width="0.5" stroke-dasharray="8 2 2 2" opacity="0.7">
  <line x1="0" y1="-185.0" x2="0" y2="185.0"/>
  <line x1="-185.0" y1="0.0" x2="185.0" y2="0.0"/>
</g>
    <rect x="-175.0" y="-175.0" width="350.0" height="350.0" fill="none" stroke="#999" stroke-dasharray="3 3" stroke-width="0.5" opacity="0.8"/>
    <rect x="-140.0" y="-168.5" width="280.0" height="22.0" fill="none" stroke="#888" stroke-width="0.5" stroke-dasharray="4 3"/>
<rect x="-140.0" y="146.5" width="280.0" height="22.0" fill="none" stroke="#888" stroke-width="0.5" stroke-dasharray="4 3"/>
<rect x="-168.5" y="-140.0" width="22.0" height="280.0" fill="none" stroke="#888" stroke-width="0.5" stroke-dasharray="4 3"/>
<rect x="146.5" y="-140.0" width="22.0" height="280.0" fill="none" stroke="#888" stroke-width="0.5" stroke-dasharray="4 3"/>
<rect x="-140.0" y="-166.5" width="280.0" height="18.0" fill="none" stroke="#888" stroke-width="0.5" stroke-dasharray="4 3"/>
<rect x="-140.0" y="148.5" width="280.0" height="18.0" fill="none" stroke="#888" stroke-width="0.5" stroke-dasharray="4 3"/>
<rect x="-166.5" y="-140.0" width="18.0" height="280.0" fill="none" stroke="#888" stroke-width="0.5" stroke-dasharray="4 3"/>
<rect x="148.5" y="-140.0" width="18.0" height="280.0" fill="none" stroke="#888" stroke-width="0.5" stroke-dasharray="4 3"/>
<rect x="-175.0" y="-175.0" width="35.0" height="35.0" fill="none" stroke="#888" stroke-width="0.5" stroke-dasharray="4 3"/>
<rect x="140.0" y="-175.0" width="35.0" height="35.0" fill="none" stroke="#888" stroke-width="0.5" stroke-dasharray="4 3"/>
<rect x="-175.0" y="140.0" width="35.0" height="35.0" fill="none" stroke="#888" stroke-width="0.5" stroke-dasharray="4 3"/>
<rect x="140.0" y="140.0" width="35.0" height="35.0" fill="none" stroke="#888" stroke-width="0.5" stroke-dasharray="4 3"/>
<rect x="-175.0" y="-175.0" width="350.0" height="350.0" fill="none" stroke="#111" stroke-width="0.9"/>
    
<g stroke="#111" fill="#111" stroke-width="0.6" font-family="sans-serif">
  <line x1="-175.0" y1="187.0" x2="-175.0" y2="211.0" stroke-width="0.4" stroke="#666"/>
  <line x1="175.0" y1="187.0" x2="175.0" y2="211.0" stroke-width="0.4" stroke="#666"/>
  <line x1="-175.0" y1="203.0" x2="175.0" y2="203.0" marker-start="url(#arr-top)" marker-end="url(#arr-top)"/>
  <text x="0" y="198.0" text-anchor="middle" font-size="11" stroke="none">350</text>
</g>
    
<g stroke="#111" fill="#111" stroke-width="0.6" font-family="sans-serif">
  <line x1="187.0" y1="-175.0" x2="211.0" y2="-175.0" stroke-width="0.4" stroke="#666"/>
  <line x1="187.0" y1="175.0" x2="211.0" y2="175.0" stroke-width="0.4" stroke="#666"/>
  <line x1="203.0" y1="-175.0" x2="203.0" y2="175.0" marker-start="url(#arr-top)" marker-end="url(#arr-top)"/>
  <text x="209.0" y="0.0" text-anchor="start" dominant-baseline="middle" font-size="11" stroke="none">350</text>
</g>
  </g></g>
</g>
</svg>