<?xml version="1.0" encoding="UTF-8"?>
<svg xmlns="http://www.w3.org/2000/svg" viewBox="-20 -10 3865 3029" width="3865">
<defs><marker id="arr-front" viewBox="0 0 10 10" refX="9" refY="5" markerWidth="8" markerHeight="8" orient="auto-start-reverse"><path d="M 0 0 L 10 5 L 0 10 z" fill="#111"/></marker>
<marker id="arr-side" viewBox="0 0 10 10" refX="9" refY="5" markerWidth="8" markerHeight="8" orient="auto-start-reverse"><path d="M 0 0 L 10 5 L 0 10 z" fill="#111"/></marker>
<marker id="arr-top" viewBox="0 0 10 10" refX="9" refY="5" markerWidth="8" markerHeight="8" orient="auto-start-reverse"><path d="M 0 0 L 10 5 L 0 10 z" fill="#111"/></marker></defs>
<rect x="-20" y="-10" width="3865" height="3029" fill="#fafaf7"/>

<text x="1913" y="24" text-anchor="middle" font-size="22" font-weight="700" fill="#111" font-family="sans-serif">床</text>
<text x="1913" y="46" text-anchor="middle" font-size="12" fill="#666" font-family="sans-serif">1900 × 1525 × 800 mm · 台灣檜木 · 20 件零件</text>
<g transform="translate(0, 70)">
  <g transform="translate(1040.0, 922.0)">
    <rect x="-1032.0" y="-914.0" width="2064.0" height="1046.0" fill="none" stroke="#222" stroke-width="1"/>
    
<line x1="-1032.0" y1="-882.0" x2="1032.0" y2="-882.0" stroke="#222" stroke-width="0.6"/>
<text x="-1022.0" y="-892.0" font-size="13" font-weight="700" fill="#111" font-family="sans-serif">正視圖</text>
<text x="-950.0" y="-892.0" font-size="10" fill="#666" font-family="sans-serif">FRONT VIEW</text>
    
<g stroke="#888" stroke-width="0.5" stroke-dasharray="8 2 2 2" opacity="0.7">
  <line x1="0" y1="-810.0" x2="0" y2="10.0"/>
  <line x1="-960.0" y1="-400.0" x2="960.0" y2="-400.0"/>
</g>
    <rect x="-950.0" y="-800.0" width="1900.0" height="800.0" fill="none" stroke="#999" stroke-dasharray="3 3" stroke-width="0.5" opacity="0.8"/>
    <rect x="-870.0" y="-250.0" width="1740.0" height="180.0" fill="none" stroke="#888" stroke-width="0.5" stroke-dasharray="4 3"/>
<rect x="870.0" y="-250.0" width="80.0" height="250.0" fill="none" stroke="#888" stroke-width="0.5" stroke-dasharray="4 3"/>
<rect x="-950.0" y="-250.0" width="80.0" height="250.0" fill="none" stroke="#888" stroke-width="0.5" stroke-dasharray="4 3"/>
<rect x="-870.0" y="-232.0" width="1740.0" height="30.0" fill="none" stroke="#888" stroke-width="0.5" stroke-dasharray="4 3"/>
<rect x="897.5" y="-1200.0" width="25.0" height="800.0" fill="none" stroke="#111" stroke-width="0.9"/>
<rect x="790.0" y="-259.0" width="80.0" height="18.0" fill="none" stroke="#111" stroke-width="0.9"/>
<rect x="624.0" y="-259.0" width="80.0" height="18.0" fill="none" stroke="#111" stroke-width="0.9"/>
<rect x="458.0" y="-259.0" width="80.0" height="18.0" fill="none" stroke="#111" stroke-width="0.9"/>
<rect x="292.0" y="-259.0" width="80.0" height="18.0" fill="none" stroke="#111" stroke-width="0.9"/>
<rect x="126.0" y="-259.0" width="80.0" height="18.0" fill="none" stroke="#111" stroke-width="0.9"/>
<rect x="-40.0" y="-259.0" width="80.0" height="18.0" fill="none" stroke="#111" stroke-width="0.9"/>
<rect x="-206.0" y="-259.0" width="80.0" height="18.0" fill="none" stroke="#111" stroke-width="0.9"/>
<rect x="-372.0" y="-259.0" width="80.0" height="18.0" fill="none" stroke="#111" stroke-width="0.9"/>
<rect x="-538.0" y="-259.0" width="80.0" height="18.0" fill="none" stroke="#111" stroke-width="0.9"/>
<rect x="-704.0" y="-259.0" width="80.0" height="18.0" fill="none" stroke="#111" stroke-width="0.9"/>
<rect x="-870.0" y="-259.0" width="80.0" height="18.0" fill="none" stroke="#111" stroke-width="0.9"/>
<rect x="-870.0" y="-232.0" width="1740.0" height="30.0" fill="none" stroke="#888" stroke-width="0.5" stroke-dasharray="4 3"/>
<rect x="-870.0" y="-250.0" width="1740.0" height="180.0" fill="none" stroke="#111" stroke-width="0.9"/>
<rect x="870.0" y="-250.0" width="80.0" height="250.0" fill="none" stroke="#111" stroke-width="0.9"/>
<rect x="-950.0" y="-250.0" width="80.0" height="250.0" fill="none" stroke="#111" stroke-width="0.9"/>
    
<g stroke="#111" fill="#111" stroke-width="0.6" font-family="sans-serif">
  <line x1="-950.0" y1="12.0" x2="-950.0" y2="36.0" stroke-width="0.4" stroke="#666"/>
  <line x1="950.0" y1="12.0" x2="950.0" y2="36.0" stroke-width="0.4" stroke="#666"/>
  <line x1="-950.0" y1="28.0" x2="950.0" y2="28.0" marker-start="url(#arr-front)" marker-end="url(#arr-front)"/>
  <text x="0" y="23.0" text-anchor="middle" font-size="11" stroke="none">1900</text>
</g>
    
<g stroke="#111" fill="#111" stroke-width="0.6" font-family="sans-serif">
  <line x1="962.0" y1="-800.0" x2="986.0" y2="-800.0" stroke-width="0.4" stroke="#666"/>
  <line x1="962.0" y1="0.0" x2="986.0" y2="0.0" stroke-width="0.4" stroke="#666"/>
  <line x1="978.0" y1="-800.0" x2="978.0" y2="0.0" marker-start="url(#arr-front)" marker-end="url(#arr-front)"/>
  <text x="984.0" y="-400.0" text-anchor="start" dominant-baseline="middle" font-size="11" stroke="none">800</text>
</g>
  </g>
  <g transform="translate(2120, 0)"><g transform="translate(852.5, 922.0)">
    <rect x="-844.5" y="-914.0" width="1689.0" height="1046.0" fill="none" stroke="#222" stroke-width="1"/>
    
<line x1="-844.5" y1="-882.0" x2="844.5" y2="-882.0" stroke="#222" stroke-width="0.6"/>
<text x="-834.5" y="-892.0" font-size="13" font-weight="700" fill="#111" font-family="sans-serif">側視圖</text>
<text x="-762.5" y="-892.0" font-size="10" fill="#666" font-family="sans-serif">SIDE VIEW</text>
    
<g stroke="#888" stroke-width="0.5" stroke-dasharray="8 2 2 2" opacity="0.7">
  <line x1="0" y1="-810.0" x2="0" y2="10.0"/>
  <line x1="-772.5" y1="-400.0" x2="772.5" y2="-400.0"/>
</g>
    <rect x="-762.5" y="-800.0" width="1525.0" height="800.0" fill="none" stroke="#999" stroke-dasharray="3 3" stroke-width="0.5" opacity="0.8"/>
    <rect x="-682.5" y="-1200.0" width="1365.0" height="800.0" fill="none" stroke="#111" stroke-width="0.9"/>
<rect x="-762.5" y="-250.0" width="80.0" height="250.0" fill="none" stroke="#888" stroke-width="0.5" stroke-dasharray="4 3"/>
<rect x="682.5" y="-250.0" width="80.0" height="250.0" fill="none" stroke="#888" stroke-width="0.5" stroke-dasharray="4 3"/>
<rect x="-692.5" y="-259.0" width="1385.0" height="18.0" fill="none" stroke="#888" stroke-width="0.5" stroke-dasharray="4 3"/>
<rect x="-692.5" y="-259.0" width="1385.0" height="18.0" fill="none" stroke="#888" stroke-width="0.5" stroke-dasharray="4 3"/>
<rect x="-692.5" y="-259.0" width="1385.0" height="18.0" fill="none" stroke="#888" stroke-width="0.5" stroke-dasharray="4 3"/>
<rect x="-692.5" y="-259.0" width="1385.0" height="18.0" fill="none" stroke="#888" stroke-width="0.5" stroke-dasharray="4 3"/>
<rect x="-692.5" y="-259.0" width="1385.0" height="18.0" fill="none" stroke="#888" stroke-width="0.5" stroke-dasharray="4 3"/>
<rect x="-692.5" y="-259.0" width="1385.0" height="18.0" fill="none" stroke="#888" stroke-width="0.5" stroke-dasharray="4 3"/>
<rect x="-692.5" y="-259.0" width="1385.0" height="18.0" fill="none" stroke="#888" stroke-width="0.5" stroke-dasharray="4 3"/>
<rect x="-692.5" y="-259.0" width="1385.0" height="18.0" fill="none" stroke="#888" stroke-width="0.5" stroke-dasharray="4 3"/>
<rect x="-692.5" y="-259.0" width="1385.0" height="18.0" fill="none" stroke="#888" stroke-width="0.5" stroke-dasharray="4 3"/>
<rect x="-692.5" y="-259.0" width="1385.0" height="18.0" fill="none" stroke="#888" stroke-width="0.5" stroke-dasharray="4 3"/>
<rect x="-737.5" y="-250.0" width="30.0" height="180.0" fill="none" stroke="#888" stroke-width="0.5" stroke-dasharray="4 3"/>
<rect x="707.5" y="-250.0" width="30.0" height="180.0" fill="none" stroke="#888" stroke-width="0.5" stroke-dasharray="4 3"/>
<rect x="-707.5" y="-232.0" width="25.0" height="30.0" fill="none" stroke="#888" stroke-width="0.5" stroke-dasharray="4 3"/>
<rect x="682.5" y="-232.0" width="25.0" height="30.0" fill="none" stroke="#888" stroke-width="0.5" stroke-dasharray="4 3"/>
<rect x="-692.5" y="-259.0" width="1385.0" height="18.0" fill="none" stroke="#111" stroke-width="0.9"/>
<rect x="-762.5" y="-250.0" width="80.0" height="250.0" fill="none" stroke="#111" stroke-width="0.9"/>
<rect x="682.5" y="-250.0" width="80.0" height="250.0" fill="none" stroke="#111" stroke-width="0.9"/>
    
<g stroke="#111" fill="#111" stroke-width="0.6" font-family="sans-serif">
  <line x1="-762.5" y1="12.0" x2="-762.5" y2="36.0" stroke-width="0.4" stroke="#666"/>
  <line x1="762.5" y1="12.0" x2="762.5" y2="36.0" stroke-width="0.4" stroke="#666"/>
  <line x1="-762.5" y1="28.0" x2="762.5" y2="28.0" marker-start="url(#arr-side)" marker-end="url(#arr-side)"/>
  <text x="0" y="23.0" text-anchor="middle" font-size="11" stroke="none">1525</text>
</g>
    
<g stroke="#111" fill="#111" stroke-width="0.6" font-family="sans-serif">
  <line x1="774.5" y1="-800.0" x2="798.5" y2="-800.0" stroke-width="0.4" stroke="#666"/>
  <line x1="774.5" y1="0.0" x2="798.5" y2="0.0" stroke-width="0.4" stroke="#666"/>
  <line x1="790.5" y1="-800.0" x2="790.5" y2="0.0" marker-start="url(#arr-side)" marker-end="url(#arr-side)"/>
  <text x="796.5" y="-400.0" text-anchor="start" dominant-baseline="middle" font-size="11" stroke="none">800</text>
</g>
  </g></g>
  <g transform="translate(0, 1102)"><g transform="translate(1040.0, 884.5)">
    <rect x="-1032.0" y="-876.5" width="2064.0" height="1771.0" fill="none" stroke="#222" stroke-width="1"/>
    
<line x1="-1032.0" y1="-844.5" x2="1032.0" y2="-844.5" stroke="#222" stroke-width="0.6"/>
<text x="-1022.0" y="-854.5" font-size="13" font-weight="700" fill="#111" font-family="sans-serif">俯視圖</text>
<text x="-950.0" y="-854.5" font-size="10" fill="#666" font-family="sans-serif">TOP VIEW</text>
    
<g stroke="#888" stroke-width="0.5" stroke-dasharray="8 2 2 2" opacity="0.7">
  <line x1="0" y1="-772.5" x2="0" y2="772.5"/>
  <line x1="-960.0" y1="0.0" x2="960.0" y2="0.0"/>
</g>
    <rect x="-950.0" y="-762.5" width="1900.0" height="1525.0" fill="none" stroke="#999" stroke-dasharray="3 3" stroke-width="0.5" opacity="0.8"/>
    <rect x="-870.0" y="-707.5" width="1740.0" height="25.0" fill="none" stroke="#111" stroke-width="0.9"/>
<rect x="-870.0" y="682.5" width="1740.0" height="25.0" fill="none" stroke="#111" stroke-width="0.9"/>
<rect x="870.0" y="-762.5" width="80.0" height="80.0" fill="none" stroke="#111" stroke-width="0.9"/>
<rect x="-950.0" y="-762.5" width="80.0" height="80.0" fill="none" stroke="#111" stroke-width="0.9"/>
<rect x="870.0" y="682.5" width="80.0" height="80.0" fill="none" stroke="#111" stroke-width="0.9"/>
<rect x="-950.0" y="682.5" width="80.0" height="80.0" fill="none" stroke="#111" stroke-width="0.9"/>
<rect x="-870.0" y="-737.5" width="1740.0" height="30.0" fill="none" stroke="#111" stroke-width="0.9"/>
<rect x="-870.0" y="707.5" width="1740.0" height="30.0" fill="none" stroke="#111" stroke-width="0.9"/>
<rect x="790.0" y="-692.5" width="80.0" height="1385.0" fill="none" stroke="#111" stroke-width="0.9"/>
<rect x="624.0" y="-692.5" width="80.0" height="1385.0" fill="none" stroke="#111" stroke-width="0.9"/>
<rect x="458.0" y="-692.5" width="80.0" height="1385.0" fill="none" stroke="#111" stroke-width="0.9"/>
<rect x="292.0" y="-692.5" width="80.0" height="1385.0" fill="none" stroke="#111" stroke-width="0.9"/>
<rect x="126.0" y="-692.5" width="80.0" height="1385.0" fill="none" stroke="#111" stroke-width="0.9"/>
<rect x="-40.0" y="-692.5" width="80.0" height="1385.0" fill="none" stroke="#111" stroke-width="0.9"/>
<rect x="-206.0" y="-692.5" width="80.0" height="1385.0" fill="none" stroke="#111" stroke-width="0.9"/>
<rect x="-372.0" y="-692.5" width="80.0" height="1385.0" fill="none" stroke="#111" stroke-width="0.9"/>
<rect x="-538.0" y="-692.5" width="80.0" height="1385.0" fill="none" stroke="#111" stroke-width="0.9"/>
<rect x="-704.0" y="-692.5" width="80.0" height="1385.0" fill="none" stroke="#111" stroke-width="0.9"/>
<rect x="-870.0" y="-692.5" width="80.0" height="1385.0" fill="none" stroke="#111" stroke-width="0.9"/>
<rect x="897.5" y="-682.5" width="25.0" height="1365.0" fill="none" stroke="#111" stroke-width="0.9"/>
    
<g stroke="#111" fill="#111" stroke-width="0.6" font-family="sans-serif">
  <line x1="-950.0" y1="774.5" x2="-950.0" y2="798.5" stroke-width="0.4" stroke="#666"/>
  <line x1="950.0" y1="774.5" x2="950.0" y2="798.5" stroke-width="0.4" stroke="#666"/>
  <line x1="-950.0" y1="790.5" x2="950.0" y2="790.5" marker-start="url(#arr-top)" marker-end="url(#arr-top)"/>
  <text x="0" y="785.5" text-anchor="middle" font-size="11" stroke="none">1900</text>
</g>
    
<g stroke="#111" fill="#111" stroke-width="0.6" font-family="sans-serif">
  <line x1="962.0" y1="-762.5" x2="986.0" y2="-762.5" stroke-width="0.4" stroke="#666"/>
  <line x1="962.0" y1="762.5" x2="986.0" y2="762.5" stroke-width="0.4" stroke="#666"/>
  <line x1="978.0" y1="-762.5" x2="978.0" y2="762.5" marker-start="url(#arr-top)" marker-end="url(#arr-top)"/>
  <text x="984.0" y="0.0" text-anchor="start" dominant-baseline="middle" font-size="11" stroke="none">1525</text>
</g>
  </g></g>
</g>
</svg>