<?xml version="1.0" encoding="UTF-8"?>
<svg xmlns="http://www.w3.org/2000/svg" viewBox="-20 -50 1970 1360" width="1970" height="1360">
<rect x="-20" y="-50" width="1970" height="1360" fill="#fafaf7"/>
<text x="965" y="-10" text-anchor="middle" font-size="24" font-weight="700" fill="#111" font-family="sans-serif">長凳</text>
<text x="965" y="12" text-anchor="middle" font-size="13" fill="#666" font-family="sans-serif">1200 × 350 × 450 mm · 台灣檜木 · 9 件</text>
<g transform="translate(680, 100)">
    <rect x="-600.0" y="0" width="1200.0" height="450.0" fill="none" stroke="#888" stroke-dasharray="4 3" stroke-width="0.8"/>
    <rect x="-600.0" y="0.0" width="1200.0" height="25.0" fill="#d8b878" stroke="#3a2a1a" stroke-width="1.2" opacity="0.92"/>
<rect x="-600.0" y="25.0" width="40.0" height="425.0" fill="#d8b878" stroke="#3a2a1a" stroke-width="1.2" opacity="0.92"/>
<rect x="560.0" y="25.0" width="40.0" height="425.0" fill="#d8b878" stroke="#3a2a1a" stroke-width="1.2" opacity="0.92"/>
<rect x="-600.0" y="25.0" width="40.0" height="425.0" fill="#d8b878" stroke="#3a2a1a" stroke-width="1.2" opacity="0.92"/>
<rect x="560.0" y="25.0" width="40.0" height="425.0" fill="#d8b878" stroke="#3a2a1a" stroke-width="1.2" opacity="0.92"/>
<rect x="-580.0" y="45.0" width="1160.0" height="80.0" fill="#d8b878" stroke="#3a2a1a" stroke-width="1.2" opacity="0.92"/>
<rect x="-580.0" y="45.0" width="1160.0" height="80.0" fill="#d8b878" stroke="#3a2a1a" stroke-width="1.2" opacity="0.92"/>
<rect x="-591.0" y="45.0" width="22.0" height="80.0" fill="#d8b878" stroke="#3a2a1a" stroke-width="1.2" opacity="0.92"/>
<rect x="569.0" y="45.0" width="22.0" height="80.0" fill="#d8b878" stroke="#3a2a1a" stroke-width="1.2" opacity="0.92"/>
    <text x="0" y="500.0" text-anchor="middle" font-size="18" fill="#444" font-family="sans-serif">正視圖（1200 × 450 mm）</text>
  </g>
<g transform="translate(1675, 100)">
    <rect x="-175.0" y="0" width="350.0" height="450.0" fill="none" stroke="#888" stroke-dasharray="4 3" stroke-width="0.8"/>
    <rect x="-175.0" y="0.0" width="350.0" height="25.0" fill="#d8b878" stroke="#3a2a1a" stroke-width="1.2" opacity="0.92"/>
<rect x="-175.0" y="25.0" width="40.0" height="425.0" fill="#d8b878" stroke="#3a2a1a" stroke-width="1.2" opacity="0.92"/>
<rect x="-175.0" y="25.0" width="40.0" height="425.0" fill="#d8b878" stroke="#3a2a1a" stroke-width="1.2" opacity="0.92"/>
<rect x="135.0" y="25.0" width="40.0" height="425.0" fill="#d8b878" stroke="#3a2a1a" stroke-width="1.2" opacity="0.92"/>
<rect x="135.0" y="25.0" width="40.0" height="425.0" fill="#d8b878" stroke="#3a2a1a" stroke-width="1.2" opacity="0.92"/>
<rect x="-166.0" y="45.0" width="22.0" height="80.0" fill="#d8b878" stroke="#3a2a1a" stroke-width="1.2" opacity="0.92"/>
<rect x="144.0" y="45.0" width="22.0" height="80.0" fill="#d8b878" stroke="#3a2a1a" stroke-width="1.2" opacity="0.92"/>
<rect x="-155.0" y="45.0" width="310.0" height="80.0" fill="#d8b878" stroke="#3a2a1a" stroke-width="1.2" opacity="0.92"/>
<rect x="-155.0" y="45.0" width="310.0" height="80.0" fill="#d8b878" stroke="#3a2a1a" stroke-width="1.2" opacity="0.92"/>
    <text x="0" y="500.0" text-anchor="middle" font-size="18" fill="#444" font-family="sans-serif">側視圖（350 × 450 mm）</text>
  </g>
<g transform="translate(680, 800)">
    <rect x="-600.0" y="0" width="1200.0" height="350.0" fill="none" stroke="#888" stroke-dasharray="4 3" stroke-width="0.8"/>
    <rect x="-600.0" y="-175.0" width="1200.0" height="350.0" fill="#d8b878" stroke="#3a2a1a" stroke-width="1.2" opacity="0.92"/>
<rect x="-600.0" y="-175.0" width="40.0" height="40.0" fill="#d8b878" stroke="#3a2a1a" stroke-width="1.2" opacity="0.92"/>
<rect x="560.0" y="-175.0" width="40.0" height="40.0" fill="#d8b878" stroke="#3a2a1a" stroke-width="1.2" opacity="0.92"/>
<rect x="-600.0" y="135.0" width="40.0" height="40.0" fill="#d8b878" stroke="#3a2a1a" stroke-width="1.2" opacity="0.92"/>
<rect x="560.0" y="135.0" width="40.0" height="40.0" fill="#d8b878" stroke="#3a2a1a" stroke-width="1.2" opacity="0.92"/>
<rect x="-580.0" y="-166.0" width="1160.0" height="22.0" fill="#d8b878" stroke="#3a2a1a" stroke-width="1.2" opacity="0.92"/>
<rect x="-580.0" y="144.0" width="1160.0" height="22.0" fill="#d8b878" stroke="#3a2a1a" stroke-width="1.2" opacity="0.92"/>
<rect x="-591.0" y="-155.0" width="22.0" height="310.0" fill="#d8b878" stroke="#3a2a1a" stroke-width="1.2" opacity="0.92"/>
<rect x="569.0" y="-155.0" width="22.0" height="310.0" fill="#d8b878" stroke="#3a2a1a" stroke-width="1.2" opacity="0.92"/>
    <text x="0" y="400.0" text-anchor="middle" font-size="18" fill="#444" font-family="sans-serif">俯視圖（1200 × 350 mm）</text>
  </g>
</svg>