<?xml version="1.0" encoding="UTF-8"?>
<svg xmlns="http://www.w3.org/2000/svg" viewBox="-20 -10 710 1004" width="710">
<defs><marker id="arr-front" viewBox="0 0 10 10" refX="9" refY="5" markerWidth="8" markerHeight="8" orient="auto-start-reverse"><path d="M 0 0 L 10 5 L 0 10 z" fill="#111"/></marker>
<marker id="arr-side" viewBox="0 0 10 10" refX="9" refY="5" markerWidth="8" markerHeight="8" orient="auto-start-reverse"><path d="M 0 0 L 10 5 L 0 10 z" fill="#111"/></marker>
<marker id="arr-top" viewBox="0 0 10 10" refX="9" refY="5" markerWidth="8" markerHeight="8" orient="auto-start-reverse"><path d="M 0 0 L 10 5 L 0 10 z" fill="#111"/></marker></defs>
<rect x="-20" y="-10" width="710" height="1004" fill="#fafaf7"/>

<text x="335" y="24" text-anchor="middle" font-size="22" font-weight="700" fill="#111" font-family="sans-serif">書擋（一對）</text>
<text x="335" y="46" text-anchor="middle" font-size="12" fill="#666" font-family="sans-serif">150 × 120 × 180 mm · 台灣檜木 · 3 件零件</text>
<g transform="translate(0, 70)">
  <g transform="translate(165.0, 302.0)">
    <rect x="-157.0" y="-294.0" width="314.0" height="426.0" fill="none" stroke="#222" stroke-width="1"/>
    
<line x1="-157.0" y1="-262.0" x2="157.0" y2="-262.0" stroke="#222" stroke-width="0.6"/>
<text x="-147.0" y="-272.0" font-size="13" font-weight="700" fill="#111" font-family="sans-serif">正視圖</text>
<text x="-75.0" y="-272.0" font-size="10" fill="#666" font-family="sans-serif">FRONT VIEW</text>
    
<g stroke="#888" stroke-width="0.5" stroke-dasharray="8 2 2 2" opacity="0.7">
  <line x1="0" y1="-190.0" x2="0" y2="10.0"/>
  <line x1="-85.0" y1="-90.0" x2="85.0" y2="-90.0"/>
</g>
    <rect x="-75.0" y="-180.0" width="150.0" height="180.0" fill="none" stroke="#999" stroke-dasharray="3 3" stroke-width="0.5" opacity="0.8"/>
    <rect x="-48.0" y="-30.0" width="105.0" height="12.0" fill="none" stroke="#111" stroke-width="0.9"/>
<rect x="-75.0" y="-18.0" width="150.0" height="18.0" fill="none" stroke="#111" stroke-width="0.9"/>
<rect x="57.0" y="-180.0" width="18.0" height="162.0" fill="none" stroke="#111" stroke-width="0.9"/>
    
<g stroke="#111" fill="#111" stroke-width="0.6" font-family="sans-serif">
  <line x1="-75.0" y1="12.0" x2="-75.0" y2="36.0" stroke-width="0.4" stroke="#666"/>
  <line x1="75.0" y1="12.0" x2="75.0" y2="36.0" stroke-width="0.4" stroke="#666"/>
  <line x1="-75.0" y1="28.0" x2="75.0" y2="28.0" marker-start="url(#arr-front)" marker-end="url(#arr-front)"/>
  <text x="0" y="23.0" text-anchor="middle" font-size="11" stroke="none">150</text>
</g>
    
<g stroke="#111" fill="#111" stroke-width="0.6" font-family="sans-serif">
  <line x1="87.0" y1="-180.0" x2="111.0" y2="-180.0" stroke-width="0.4" stroke="#666"/>
  <line x1="87.0" y1="0.0" x2="111.0" y2="0.0" stroke-width="0.4" stroke="#666"/>
  <line x1="103.0" y1="-180.0" x2="103.0" y2="0.0" marker-start="url(#arr-front)" marker-end="url(#arr-front)"/>
  <text x="109.0" y="-90.0" text-anchor="start" dominant-baseline="middle" font-size="11" stroke="none">180</text>
</g>
  </g>
  <g transform="translate(370, 0)"><g transform="translate(150.0, 302.0)">
    <rect x="-142.0" y="-294.0" width="284.0" height="426.0" fill="none" stroke="#222" stroke-width="1"/>
    
<line x1="-142.0" y1="-262.0" x2="142.0" y2="-262.0" stroke="#222" stroke-width="0.6"/>
<text x="-132.0" y="-272.0" font-size="13" font-weight="700" fill="#111" font-family="sans-serif">側視圖</text>
<text x="-60.0" y="-272.0" font-size="10" fill="#666" font-family="sans-serif">SIDE VIEW</text>
    
<g stroke="#888" stroke-width="0.5" stroke-dasharray="8 2 2 2" opacity="0.7">
  <line x1="0" y1="-190.0" x2="0" y2="10.0"/>
  <line x1="-70.0" y1="-90.0" x2="70.0" y2="-90.0"/>
</g>
    <rect x="-60.0" y="-180.0" width="120.0" height="180.0" fill="none" stroke="#999" stroke-dasharray="3 3" stroke-width="0.5" opacity="0.8"/>
    <rect x="-60.0" y="-180.0" width="120.0" height="162.0" fill="none" stroke="#111" stroke-width="0.9"/>
<rect x="-52.5" y="-30.0" width="105.0" height="12.0" fill="none" stroke="#111" stroke-width="0.9"/>
<rect x="-60.0" y="-18.0" width="120.0" height="18.0" fill="none" stroke="#111" stroke-width="0.9"/>
    
<g stroke="#111" fill="#111" stroke-width="0.6" font-family="sans-serif">
  <line x1="-60.0" y1="12.0" x2="-60.0" y2="36.0" stroke-width="0.4" stroke="#666"/>
  <line x1="60.0" y1="12.0" x2="60.0" y2="36.0" stroke-width="0.4" stroke="#666"/>
  <line x1="-60.0" y1="28.0" x2="60.0" y2="28.0" marker-start="url(#arr-side)" marker-end="url(#arr-side)"/>
  <text x="0" y="23.0" text-anchor="middle" font-size="11" stroke="none">120</text>
</g>
    
<g stroke="#111" fill="#111" stroke-width="0.6" font-family="sans-serif">
  <line x1="72.0" y1="-180.0" x2="96.0" y2="-180.0" stroke-width="0.4" stroke="#666"/>
  <line x1="72.0" y1="0.0" x2="96.0" y2="0.0" stroke-width="0.4" stroke="#666"/>
  <line x1="88.0" y1="-180.0" x2="88.0" y2="0.0" marker-start="url(#arr-side)" marker-end="url(#arr-side)"/>
  <text x="94.0" y="-90.0" text-anchor="start" dominant-baseline="middle" font-size="11" stroke="none">180</text>
</g>
  </g></g>
  <g transform="translate(0, 482)"><g transform="translate(165.0, 182.0)">
    <rect x="-157.0" y="-174.0" width="314.0" height="366.0" fill="none" stroke="#222" stroke-width="1"/>
    
<line x1="-157.0" y1="-142.0" x2="157.0" y2="-142.0" stroke="#222" stroke-width="0.6"/>
<text x="-147.0" y="-152.0" font-size="13" font-weight="700" fill="#111" font-family="sans-serif">俯視圖</text>
<text x="-75.0" y="-152.0" font-size="10" fill="#666" font-family="sans-serif">TOP VIEW</text>
    
<g stroke="#888" stroke-width="0.5" stroke-dasharray="8 2 2 2" opacity="0.7">
  <line x1="0" y1="-70.0" x2="0" y2="70.0"/>
  <line x1="-85.0" y1="0.0" x2="85.0" y2="0.0"/>
</g>
    <rect x="-75.0" y="-60.0" width="150.0" height="120.0" fill="none" stroke="#999" stroke-dasharray="3 3" stroke-width="0.5" opacity="0.8"/>
    <rect x="-75.0" y="-60.0" width="150.0" height="120.0" fill="none" stroke="#111" stroke-width="0.9"/>
<rect x="-48.0" y="-52.5" width="105.0" height="105.0" fill="none" stroke="#111" stroke-width="0.9"/>
<rect x="57.0" y="-60.0" width="18.0" height="120.0" fill="none" stroke="#111" stroke-width="0.9"/>
    
<g stroke="#111" fill="#111" stroke-width="0.6" font-family="sans-serif">
  <line x1="-75.0" y1="72.0" x2="-75.0" y2="96.0" stroke-width="0.4" stroke="#666"/>
  <line x1="75.0" y1="72.0" x2="75.0" y2="96.0" stroke-width="0.4" stroke="#666"/>
  <line x1="-75.0" y1="88.0" x2="75.0" y2="88.0" marker-start="url(#arr-top)" marker-end="url(#arr-top)"/>
  <text x="0" y="83.0" text-anchor="middle" font-size="11" stroke="none">150</text>
</g>
    
<g stroke="#111" fill="#111" stroke-width="0.6" font-family="sans-serif">
  <line x1="87.0" y1="-60.0" x2="111.0" y2="-60.0" stroke-width="0.4" stroke="#666"/>
  <line x1="87.0" y1="60.0" x2="111.0" y2="60.0" stroke-width="0.4" stroke="#666"/>
  <line x1="103.0" y1="-60.0" x2="103.0" y2="60.0" marker-start="url(#arr-top)" marker-end="url(#arr-top)"/>
  <text x="109.0" y="0.0" text-anchor="start" dominant-baseline="middle" font-size="11" stroke="none">120</text>
</g>
  </g></g>
</g>
</svg>