<?xml version="1.0" encoding="UTF-8"?>
<svg xmlns="http://www.w3.org/2000/svg" viewBox="-20 -10 1690 2054" width="1690">
<defs><marker id="arr-front" viewBox="0 0 10 10" refX="9" refY="5" markerWidth="8" markerHeight="8" orient="auto-start-reverse"><path d="M 0 0 L 10 5 L 0 10 z" fill="#111"/></marker>
<marker id="arr-side" viewBox="0 0 10 10" refX="9" refY="5" markerWidth="8" markerHeight="8" orient="auto-start-reverse"><path d="M 0 0 L 10 5 L 0 10 z" fill="#111"/></marker>
<marker id="arr-top" viewBox="0 0 10 10" refX="9" refY="5" markerWidth="8" markerHeight="8" orient="auto-start-reverse"><path d="M 0 0 L 10 5 L 0 10 z" fill="#111"/></marker></defs>
<rect x="-20" y="-10" width="1690" height="2054" fill="#fafaf7"/>

<text x="825" y="24" text-anchor="middle" font-size="22" font-weight="700" fill="#111" font-family="sans-serif">斗櫃</text>
<text x="825" y="46" text-anchor="middle" font-size="12" fill="#666" font-family="sans-serif">800 × 450 × 900 mm · 台灣檜木 · 56 件零件</text>
<g transform="translate(0, 70)">
  <g transform="translate(490.0, 1022.0)">
    <rect x="-482.0" y="-1014.0" width="964.0" height="1146.0" fill="none" stroke="#222" stroke-width="1"/>
    
<line x1="-482.0" y1="-982.0" x2="482.0" y2="-982.0" stroke="#222" stroke-width="0.6"/>
<text x="-472.0" y="-992.0" font-size="13" font-weight="700" fill="#111" font-family="sans-serif">正視圖</text>
<text x="-400.0" y="-992.0" font-size="10" fill="#666" font-family="sans-serif">FRONT VIEW</text>
    
<g stroke="#888" stroke-width="0.5" stroke-dasharray="8 2 2 2" opacity="0.7">
  <line x1="0" y1="-910.0" x2="0" y2="10.0"/>
  <line x1="-410.0" y1="-450.0" x2="410.0" y2="-450.0"/>
</g>
    <rect x="-400.0" y="-900.0" width="800.0" height="900.0" fill="none" stroke="#999" stroke-dasharray="3 3" stroke-width="0.5" opacity="0.8"/>
    <rect x="-400.0" y="-900.0" width="800.0" height="800.0" fill="none" stroke="#111" stroke-width="0.9"/>
<rect x="-380.0" y="-239.0" width="760.0" height="119.0" fill="none" stroke="#888" stroke-width="0.5" stroke-dasharray="4 3"/>
<rect x="-380.0" y="-398.0" width="760.0" height="137.0" fill="none" stroke="#888" stroke-width="0.5" stroke-dasharray="4 3"/>
<rect x="-380.0" y="-471.0" width="760.0" height="51.0" fill="none" stroke="#888" stroke-width="0.5" stroke-dasharray="4 3"/>
<rect x="-380.0" y="-562.0" width="760.0" height="69.0" fill="none" stroke="#888" stroke-width="0.5" stroke-dasharray="4 3"/>
<rect x="-380.0" y="-712.0" width="760.0" height="128.0" fill="none" stroke="#888" stroke-width="0.5" stroke-dasharray="4 3"/>
<rect x="-380.0" y="-880.0" width="760.0" height="146.0" fill="none" stroke="#888" stroke-width="0.5" stroke-dasharray="4 3"/>
<rect x="360.0" y="-100.0" width="40.0" height="100.0" fill="none" stroke="#888" stroke-width="0.5" stroke-dasharray="4 3"/>
<rect x="-400.0" y="-100.0" width="40.0" height="100.0" fill="none" stroke="#888" stroke-width="0.5" stroke-dasharray="4 3"/>
<rect x="366.0" y="-239.0" width="14.0" height="119.0" fill="none" stroke="#888" stroke-width="0.5" stroke-dasharray="4 3"/>
<rect x="-380.0" y="-239.0" width="14.0" height="119.0" fill="none" stroke="#888" stroke-width="0.5" stroke-dasharray="4 3"/>
<rect x="366.0" y="-398.0" width="14.0" height="137.0" fill="none" stroke="#888" stroke-width="0.5" stroke-dasharray="4 3"/>
<rect x="-380.0" y="-398.0" width="14.0" height="137.0" fill="none" stroke="#888" stroke-width="0.5" stroke-dasharray="4 3"/>
<rect x="366.0" y="-471.0" width="14.0" height="51.0" fill="none" stroke="#888" stroke-width="0.5" stroke-dasharray="4 3"/>
<rect x="-380.0" y="-471.0" width="14.0" height="51.0" fill="none" stroke="#888" stroke-width="0.5" stroke-dasharray="4 3"/>
<rect x="366.0" y="-562.0" width="14.0" height="69.0" fill="none" stroke="#888" stroke-width="0.5" stroke-dasharray="4 3"/>
<rect x="-380.0" y="-562.0" width="14.0" height="69.0" fill="none" stroke="#888" stroke-width="0.5" stroke-dasharray="4 3"/>
<rect x="366.0" y="-712.0" width="14.0" height="128.0" fill="none" stroke="#888" stroke-width="0.5" stroke-dasharray="4 3"/>
<rect x="-380.0" y="-712.0" width="14.0" height="128.0" fill="none" stroke="#888" stroke-width="0.5" stroke-dasharray="4 3"/>
<rect x="366.0" y="-880.0" width="14.0" height="146.0" fill="none" stroke="#888" stroke-width="0.5" stroke-dasharray="4 3"/>
<rect x="-380.0" y="-880.0" width="14.0" height="146.0" fill="none" stroke="#888" stroke-width="0.5" stroke-dasharray="4 3"/>
<rect x="-380.0" y="-120.0" width="760.0" height="3.0" fill="none" stroke="#888" stroke-width="0.5" stroke-dasharray="4 3"/>
<rect x="-380.0" y="-261.0" width="760.0" height="3.0" fill="none" stroke="#888" stroke-width="0.5" stroke-dasharray="4 3"/>
<rect x="-380.0" y="-420.0" width="760.0" height="3.0" fill="none" stroke="#888" stroke-width="0.5" stroke-dasharray="4 3"/>
<rect x="-380.0" y="-493.0" width="760.0" height="3.0" fill="none" stroke="#111" stroke-width="0.9"/>
<rect x="-380.0" y="-584.0" width="760.0" height="3.0" fill="none" stroke="#888" stroke-width="0.5" stroke-dasharray="4 3"/>
<rect x="-380.0" y="-734.0" width="760.0" height="3.0" fill="none" stroke="#888" stroke-width="0.5" stroke-dasharray="4 3"/>
<rect x="-380.0" y="-239.0" width="760.0" height="119.0" fill="none" stroke="#888" stroke-width="0.5" stroke-dasharray="4 3"/>
<rect x="-380.0" y="-398.0" width="760.0" height="137.0" fill="none" stroke="#888" stroke-width="0.5" stroke-dasharray="4 3"/>
<rect x="-380.0" y="-471.0" width="760.0" height="51.0" fill="none" stroke="#888" stroke-width="0.5" stroke-dasharray="4 3"/>
<rect x="-380.0" y="-562.0" width="760.0" height="69.0" fill="none" stroke="#888" stroke-width="0.5" stroke-dasharray="4 3"/>
<rect x="-380.0" y="-712.0" width="760.0" height="128.0" fill="none" stroke="#888" stroke-width="0.5" stroke-dasharray="4 3"/>
<rect x="-380.0" y="-880.0" width="760.0" height="146.0" fill="none" stroke="#111" stroke-width="0.9"/>
<rect x="360.0" y="-100.0" width="40.0" height="100.0" fill="none" stroke="#111" stroke-width="0.9"/>
<rect x="-400.0" y="-100.0" width="40.0" height="100.0" fill="none" stroke="#111" stroke-width="0.9"/>
<rect x="-400.0" y="-900.0" width="800.0" height="18.0" fill="none" stroke="#111" stroke-width="0.9"/>
<rect x="-400.0" y="-118.0" width="800.0" height="18.0" fill="none" stroke="#111" stroke-width="0.9"/>
<rect x="382.0" y="-882.0" width="18.0" height="764.0" fill="none" stroke="#111" stroke-width="0.9"/>
<rect x="-400.0" y="-882.0" width="18.0" height="764.0" fill="none" stroke="#111" stroke-width="0.9"/>
<rect x="-382.0" y="-259.0" width="764.0" height="18.0" fill="none" stroke="#111" stroke-width="0.9"/>
<rect x="-382.0" y="-418.0" width="764.0" height="18.0" fill="none" stroke="#111" stroke-width="0.9"/>
<rect x="-382.0" y="-491.0" width="764.0" height="18.0" fill="none" stroke="#111" stroke-width="0.9"/>
<rect x="-382.0" y="-582.0" width="764.0" height="18.0" fill="none" stroke="#111" stroke-width="0.9"/>
<rect x="-382.0" y="-732.0" width="764.0" height="18.0" fill="none" stroke="#888" stroke-width="0.5" stroke-dasharray="4 3"/>
<rect x="-398.0" y="-252.5" width="796.0" height="150.5" fill="none" stroke="#111" stroke-width="0.9"/>
<rect x="-398.0" y="-405.0" width="796.0" height="150.5" fill="none" stroke="#111" stroke-width="0.9"/>
<rect x="-398.0" y="-490.0" width="796.0" height="77.0" fill="none" stroke="#111" stroke-width="0.9"/>
<rect x="-398.0" y="-569.0" width="796.0" height="77.0" fill="none" stroke="#111" stroke-width="0.9"/>
<rect x="-398.0" y="-736.5" width="796.0" height="159.5" fill="none" stroke="#111" stroke-width="0.9"/>
<rect x="-398.0" y="-898.0" width="796.0" height="159.5" fill="none" stroke="#111" stroke-width="0.9"/>
<rect x="-15.0" y="-192.3" width="30.0" height="30.0" fill="none" stroke="#111" stroke-width="0.9"/>
<rect x="-15.0" y="-344.8" width="30.0" height="30.0" fill="none" stroke="#111" stroke-width="0.9"/>
<rect x="-15.0" y="-466.5" width="30.0" height="30.0" fill="none" stroke="#111" stroke-width="0.9"/>
<rect x="-15.0" y="-545.5" width="30.0" height="30.0" fill="none" stroke="#111" stroke-width="0.9"/>
<rect x="-15.0" y="-671.8" width="30.0" height="30.0" fill="none" stroke="#111" stroke-width="0.9"/>
<rect x="-15.0" y="-833.3" width="30.0" height="30.0" fill="none" stroke="#111" stroke-width="0.9"/>
    
<g stroke="#111" fill="#111" stroke-width="0.6" font-family="sans-serif">
  <line x1="-400.0" y1="12.0" x2="-400.0" y2="36.0" stroke-width="0.4" stroke="#666"/>
  <line x1="400.0" y1="12.0" x2="400.0" y2="36.0" stroke-width="0.4" stroke="#666"/>
  <line x1="-400.0" y1="28.0" x2="400.0" y2="28.0" marker-start="url(#arr-front)" marker-end="url(#arr-front)"/>
  <text x="0" y="23.0" text-anchor="middle" font-size="11" stroke="none">800</text>
</g>
    
<g stroke="#111" fill="#111" stroke-width="0.6" font-family="sans-serif">
  <line x1="412.0" y1="-900.0" x2="436.0" y2="-900.0" stroke-width="0.4" stroke="#666"/>
  <line x1="412.0" y1="0.0" x2="436.0" y2="0.0" stroke-width="0.4" stroke="#666"/>
  <line x1="428.0" y1="-900.0" x2="428.0" y2="0.0" marker-start="url(#arr-front)" marker-end="url(#arr-front)"/>
  <text x="434.0" y="-450.0" text-anchor="start" dominant-baseline="middle" font-size="11" stroke="none">900</text>
</g>
  </g>
  <g transform="translate(1020, 0)"><g transform="translate(315.0, 1022.0)">
    <rect x="-307.0" y="-1014.0" width="614.0" height="1146.0" fill="none" stroke="#222" stroke-width="1"/>
    
<line x1="-307.0" y1="-982.0" x2="307.0" y2="-982.0" stroke="#222" stroke-width="0.6"/>
<text x="-297.0" y="-992.0" font-size="13" font-weight="700" fill="#111" font-family="sans-serif">側視圖</text>
<text x="-225.0" y="-992.0" font-size="10" fill="#666" font-family="sans-serif">SIDE VIEW</text>
    
<g stroke="#888" stroke-width="0.5" stroke-dasharray="8 2 2 2" opacity="0.7">
  <line x1="0" y1="-910.0" x2="0" y2="10.0"/>
  <line x1="-235.0" y1="-450.0" x2="235.0" y2="-450.0"/>
</g>
    <rect x="-225.0" y="-900.0" width="450.0" height="900.0" fill="none" stroke="#999" stroke-dasharray="3 3" stroke-width="0.5" opacity="0.8"/>
    <rect x="-225.0" y="-882.0" width="450.0" height="764.0" fill="none" stroke="#888" stroke-width="0.5" stroke-dasharray="4 3"/>
<rect x="-206.0" y="-239.0" width="414.0" height="119.0" fill="none" stroke="#888" stroke-width="0.5" stroke-dasharray="4 3"/>
<rect x="-206.0" y="-398.0" width="414.0" height="137.0" fill="none" stroke="#888" stroke-width="0.5" stroke-dasharray="4 3"/>
<rect x="-206.0" y="-471.0" width="414.0" height="51.0" fill="none" stroke="#888" stroke-width="0.5" stroke-dasharray="4 3"/>
<rect x="-206.0" y="-562.0" width="414.0" height="69.0" fill="none" stroke="#888" stroke-width="0.5" stroke-dasharray="4 3"/>
<rect x="-206.0" y="-712.0" width="414.0" height="128.0" fill="none" stroke="#888" stroke-width="0.5" stroke-dasharray="4 3"/>
<rect x="-206.0" y="-880.0" width="414.0" height="146.0" fill="none" stroke="#888" stroke-width="0.5" stroke-dasharray="4 3"/>
<rect x="-225.0" y="-100.0" width="40.0" height="100.0" fill="none" stroke="#888" stroke-width="0.5" stroke-dasharray="4 3"/>
<rect x="185.0" y="-100.0" width="40.0" height="100.0" fill="none" stroke="#888" stroke-width="0.5" stroke-dasharray="4 3"/>
<rect x="-273.5" y="-192.3" width="25.0" height="30.0" fill="none" stroke="#111" stroke-width="0.9"/>
<rect x="-273.5" y="-344.8" width="25.0" height="30.0" fill="none" stroke="#111" stroke-width="0.9"/>
<rect x="-273.5" y="-466.5" width="25.0" height="30.0" fill="none" stroke="#111" stroke-width="0.9"/>
<rect x="-273.5" y="-545.5" width="25.0" height="30.0" fill="none" stroke="#111" stroke-width="0.9"/>
<rect x="-273.5" y="-671.8" width="25.0" height="30.0" fill="none" stroke="#111" stroke-width="0.9"/>
<rect x="-273.5" y="-833.3" width="25.0" height="30.0" fill="none" stroke="#111" stroke-width="0.9"/>
<rect x="-224.0" y="-239.0" width="18.0" height="119.0" fill="none" stroke="#888" stroke-width="0.5" stroke-dasharray="4 3"/>
<rect x="208.0" y="-239.0" width="12.0" height="119.0" fill="none" stroke="#888" stroke-width="0.5" stroke-dasharray="4 3"/>
<rect x="-206.0" y="-239.0" width="414.0" height="119.0" fill="none" stroke="#888" stroke-width="0.5" stroke-dasharray="4 3"/>
<rect x="-222.5" y="-120.0" width="444.0" height="3.0" fill="none" stroke="#111" stroke-width="0.9"/>
<rect x="-224.0" y="-398.0" width="18.0" height="137.0" fill="none" stroke="#888" stroke-width="0.5" stroke-dasharray="4 3"/>
<rect x="208.0" y="-398.0" width="12.0" height="137.0" fill="none" stroke="#888" stroke-width="0.5" stroke-dasharray="4 3"/>
<rect x="-206.0" y="-398.0" width="414.0" height="137.0" fill="none" stroke="#888" stroke-width="0.5" stroke-dasharray="4 3"/>
<rect x="-222.5" y="-261.0" width="444.0" height="3.0" fill="none" stroke="#888" stroke-width="0.5" stroke-dasharray="4 3"/>
<rect x="-224.0" y="-471.0" width="18.0" height="51.0" fill="none" stroke="#888" stroke-width="0.5" stroke-dasharray="4 3"/>
<rect x="208.0" y="-471.0" width="12.0" height="51.0" fill="none" stroke="#888" stroke-width="0.5" stroke-dasharray="4 3"/>
<rect x="-206.0" y="-471.0" width="414.0" height="51.0" fill="none" stroke="#888" stroke-width="0.5" stroke-dasharray="4 3"/>
<rect x="-222.5" y="-420.0" width="444.0" height="3.0" fill="none" stroke="#888" stroke-width="0.5" stroke-dasharray="4 3"/>
<rect x="-224.0" y="-562.0" width="18.0" height="69.0" fill="none" stroke="#888" stroke-width="0.5" stroke-dasharray="4 3"/>
<rect x="208.0" y="-562.0" width="12.0" height="69.0" fill="none" stroke="#888" stroke-width="0.5" stroke-dasharray="4 3"/>
<rect x="-206.0" y="-562.0" width="414.0" height="69.0" fill="none" stroke="#888" stroke-width="0.5" stroke-dasharray="4 3"/>
<rect x="-222.5" y="-493.0" width="444.0" height="3.0" fill="none" stroke="#888" stroke-width="0.5" stroke-dasharray="4 3"/>
<rect x="-224.0" y="-712.0" width="18.0" height="128.0" fill="none" stroke="#888" stroke-width="0.5" stroke-dasharray="4 3"/>
<rect x="208.0" y="-712.0" width="12.0" height="128.0" fill="none" stroke="#888" stroke-width="0.5" stroke-dasharray="4 3"/>
<rect x="-206.0" y="-712.0" width="414.0" height="128.0" fill="none" stroke="#888" stroke-width="0.5" stroke-dasharray="4 3"/>
<rect x="-222.5" y="-584.0" width="444.0" height="3.0" fill="none" stroke="#888" stroke-width="0.5" stroke-dasharray="4 3"/>
<rect x="-224.0" y="-880.0" width="18.0" height="146.0" fill="none" stroke="#888" stroke-width="0.5" stroke-dasharray="4 3"/>
<rect x="208.0" y="-880.0" width="12.0" height="146.0" fill="none" stroke="#888" stroke-width="0.5" stroke-dasharray="4 3"/>
<rect x="-206.0" y="-880.0" width="414.0" height="146.0" fill="none" stroke="#888" stroke-width="0.5" stroke-dasharray="4 3"/>
<rect x="-222.5" y="-734.0" width="444.0" height="3.0" fill="none" stroke="#888" stroke-width="0.5" stroke-dasharray="4 3"/>
<rect x="-225.0" y="-259.0" width="450.0" height="18.0" fill="none" stroke="#888" stroke-width="0.5" stroke-dasharray="4 3"/>
<rect x="-225.0" y="-418.0" width="450.0" height="18.0" fill="none" stroke="#888" stroke-width="0.5" stroke-dasharray="4 3"/>
<rect x="-225.0" y="-491.0" width="450.0" height="18.0" fill="none" stroke="#888" stroke-width="0.5" stroke-dasharray="4 3"/>
<rect x="-225.0" y="-582.0" width="450.0" height="18.0" fill="none" stroke="#888" stroke-width="0.5" stroke-dasharray="4 3"/>
<rect x="-225.0" y="-732.0" width="450.0" height="18.0" fill="none" stroke="#888" stroke-width="0.5" stroke-dasharray="4 3"/>
<rect x="-248.0" y="-252.5" width="22.0" height="150.5" fill="none" stroke="#111" stroke-width="0.9"/>
<rect x="-248.0" y="-405.0" width="22.0" height="150.5" fill="none" stroke="#111" stroke-width="0.9"/>
<rect x="-248.0" y="-490.0" width="22.0" height="77.0" fill="none" stroke="#111" stroke-width="0.9"/>
<rect x="-248.0" y="-569.0" width="22.0" height="77.0" fill="none" stroke="#111" stroke-width="0.9"/>
<rect x="-248.0" y="-736.5" width="22.0" height="159.5" fill="none" stroke="#111" stroke-width="0.9"/>
<rect x="-248.0" y="-898.0" width="22.0" height="159.5" fill="none" stroke="#111" stroke-width="0.9"/>
<rect x="-225.0" y="-100.0" width="40.0" height="100.0" fill="none" stroke="#111" stroke-width="0.9"/>
<rect x="185.0" y="-100.0" width="40.0" height="100.0" fill="none" stroke="#111" stroke-width="0.9"/>
<rect x="-225.0" y="-900.0" width="450.0" height="18.0" fill="none" stroke="#111" stroke-width="0.9"/>
<rect x="-225.0" y="-118.0" width="450.0" height="18.0" fill="none" stroke="#111" stroke-width="0.9"/>
<rect x="-225.0" y="-882.0" width="450.0" height="764.0" fill="none" stroke="#111" stroke-width="0.9"/>
<rect x="225.0" y="-900.0" width="3.0" height="800.0" fill="none" stroke="#111" stroke-width="0.9"/>
    
<g stroke="#111" fill="#111" stroke-width="0.6" font-family="sans-serif">
  <line x1="-225.0" y1="12.0" x2="-225.0" y2="36.0" stroke-width="0.4" stroke="#666"/>
  <line x1="225.0" y1="12.0" x2="225.0" y2="36.0" stroke-width="0.4" stroke="#666"/>
  <line x1="-225.0" y1="28.0" x2="225.0" y2="28.0" marker-start="url(#arr-side)" marker-end="url(#arr-side)"/>
  <text x="0" y="23.0" text-anchor="middle" font-size="11" stroke="none">450</text>
</g>
    
<g stroke="#111" fill="#111" stroke-width="0.6" font-family="sans-serif">
  <line x1="237.0" y1="-900.0" x2="261.0" y2="-900.0" stroke-width="0.4" stroke="#666"/>
  <line x1="237.0" y1="0.0" x2="261.0" y2="0.0" stroke-width="0.4" stroke="#666"/>
  <line x1="253.0" y1="-900.0" x2="253.0" y2="0.0" marker-start="url(#arr-side)" marker-end="url(#arr-side)"/>
  <text x="259.0" y="-450.0" text-anchor="start" dominant-baseline="middle" font-size="11" stroke="none">900</text>
</g>
  </g></g>
  <g transform="translate(0, 1202)"><g transform="translate(490.0, 347.0)">
    <rect x="-482.0" y="-339.0" width="964.0" height="696.0" fill="none" stroke="#222" stroke-width="1"/>
    
<line x1="-482.0" y1="-307.0" x2="482.0" y2="-307.0" stroke="#222" stroke-width="0.6"/>
<text x="-472.0" y="-317.0" font-size="13" font-weight="700" fill="#111" font-family="sans-serif">俯視圖</text>
<text x="-400.0" y="-317.0" font-size="10" fill="#666" font-family="sans-serif">TOP VIEW</text>
    
<g stroke="#888" stroke-width="0.5" stroke-dasharray="8 2 2 2" opacity="0.7">
  <line x1="0" y1="-235.0" x2="0" y2="235.0"/>
  <line x1="-410.0" y1="0.0" x2="410.0" y2="0.0"/>
</g>
    <rect x="-400.0" y="-225.0" width="800.0" height="450.0" fill="none" stroke="#999" stroke-dasharray="3 3" stroke-width="0.5" opacity="0.8"/>
    <rect x="360.0" y="-225.0" width="40.0" height="40.0" fill="none" stroke="#888" stroke-width="0.5" stroke-dasharray="4 3"/>
<rect x="360.0" y="185.0" width="40.0" height="40.0" fill="none" stroke="#888" stroke-width="0.5" stroke-dasharray="4 3"/>
<rect x="-400.0" y="-225.0" width="40.0" height="40.0" fill="none" stroke="#888" stroke-width="0.5" stroke-dasharray="4 3"/>
<rect x="-400.0" y="185.0" width="40.0" height="40.0" fill="none" stroke="#888" stroke-width="0.5" stroke-dasharray="4 3"/>
<rect x="-400.0" y="-225.0" width="800.0" height="450.0" fill="none" stroke="#888" stroke-width="0.5" stroke-dasharray="4 3"/>
<rect x="-380.0" y="-222.5" width="760.0" height="444.0" fill="none" stroke="#888" stroke-width="0.5" stroke-dasharray="4 3"/>
<rect x="-15.0" y="-273.5" width="30.0" height="25.0" fill="none" stroke="#888" stroke-width="0.5" stroke-dasharray="4 3"/>
<rect x="-380.0" y="-224.0" width="760.0" height="18.0" fill="none" stroke="#888" stroke-width="0.5" stroke-dasharray="4 3"/>
<rect x="-380.0" y="208.0" width="760.0" height="12.0" fill="none" stroke="#888" stroke-width="0.5" stroke-dasharray="4 3"/>
<rect x="366.0" y="-206.0" width="14.0" height="414.0" fill="none" stroke="#888" stroke-width="0.5" stroke-dasharray="4 3"/>
<rect x="-380.0" y="-206.0" width="14.0" height="414.0" fill="none" stroke="#888" stroke-width="0.5" stroke-dasharray="4 3"/>
<rect x="-398.0" y="-248.0" width="796.0" height="22.0" fill="none" stroke="#888" stroke-width="0.5" stroke-dasharray="4 3"/>
<rect x="-382.0" y="-225.0" width="764.0" height="450.0" fill="none" stroke="#888" stroke-width="0.5" stroke-dasharray="4 3"/>
<rect x="-380.0" y="-222.5" width="760.0" height="444.0" fill="none" stroke="#888" stroke-width="0.5" stroke-dasharray="4 3"/>
<rect x="-15.0" y="-273.5" width="30.0" height="25.0" fill="none" stroke="#888" stroke-width="0.5" stroke-dasharray="4 3"/>
<rect x="-380.0" y="-224.0" width="760.0" height="18.0" fill="none" stroke="#888" stroke-width="0.5" stroke-dasharray="4 3"/>
<rect x="-380.0" y="208.0" width="760.0" height="12.0" fill="none" stroke="#888" stroke-width="0.5" stroke-dasharray="4 3"/>
<rect x="366.0" y="-206.0" width="14.0" height="414.0" fill="none" stroke="#888" stroke-width="0.5" stroke-dasharray="4 3"/>
<rect x="-380.0" y="-206.0" width="14.0" height="414.0" fill="none" stroke="#888" stroke-width="0.5" stroke-dasharray="4 3"/>
<rect x="-398.0" y="-248.0" width="796.0" height="22.0" fill="none" stroke="#888" stroke-width="0.5" stroke-dasharray="4 3"/>
<rect x="-382.0" y="-225.0" width="764.0" height="450.0" fill="none" stroke="#888" stroke-width="0.5" stroke-dasharray="4 3"/>
<rect x="-380.0" y="-222.5" width="760.0" height="444.0" fill="none" stroke="#888" stroke-width="0.5" stroke-dasharray="4 3"/>
<rect x="-15.0" y="-273.5" width="30.0" height="25.0" fill="none" stroke="#888" stroke-width="0.5" stroke-dasharray="4 3"/>
<rect x="-380.0" y="-224.0" width="760.0" height="18.0" fill="none" stroke="#888" stroke-width="0.5" stroke-dasharray="4 3"/>
<rect x="-380.0" y="208.0" width="760.0" height="12.0" fill="none" stroke="#888" stroke-width="0.5" stroke-dasharray="4 3"/>
<rect x="366.0" y="-206.0" width="14.0" height="414.0" fill="none" stroke="#888" stroke-width="0.5" stroke-dasharray="4 3"/>
<rect x="-380.0" y="-206.0" width="14.0" height="414.0" fill="none" stroke="#888" stroke-width="0.5" stroke-dasharray="4 3"/>
<rect x="-398.0" y="-248.0" width="796.0" height="22.0" fill="none" stroke="#888" stroke-width="0.5" stroke-dasharray="4 3"/>
<rect x="-382.0" y="-225.0" width="764.0" height="450.0" fill="none" stroke="#888" stroke-width="0.5" stroke-dasharray="4 3"/>
<rect x="-380.0" y="-222.5" width="760.0" height="444.0" fill="none" stroke="#888" stroke-width="0.5" stroke-dasharray="4 3"/>
<rect x="-15.0" y="-273.5" width="30.0" height="25.0" fill="none" stroke="#888" stroke-width="0.5" stroke-dasharray="4 3"/>
<rect x="-380.0" y="-224.0" width="760.0" height="18.0" fill="none" stroke="#888" stroke-width="0.5" stroke-dasharray="4 3"/>
<rect x="-380.0" y="208.0" width="760.0" height="12.0" fill="none" stroke="#888" stroke-width="0.5" stroke-dasharray="4 3"/>
<rect x="366.0" y="-206.0" width="14.0" height="414.0" fill="none" stroke="#888" stroke-width="0.5" stroke-dasharray="4 3"/>
<rect x="-380.0" y="-206.0" width="14.0" height="414.0" fill="none" stroke="#888" stroke-width="0.5" stroke-dasharray="4 3"/>
<rect x="-398.0" y="-248.0" width="796.0" height="22.0" fill="none" stroke="#888" stroke-width="0.5" stroke-dasharray="4 3"/>
<rect x="-382.0" y="-225.0" width="764.0" height="450.0" fill="none" stroke="#888" stroke-width="0.5" stroke-dasharray="4 3"/>
<rect x="-380.0" y="-222.5" width="760.0" height="444.0" fill="none" stroke="#888" stroke-width="0.5" stroke-dasharray="4 3"/>
<rect x="-15.0" y="-273.5" width="30.0" height="25.0" fill="none" stroke="#888" stroke-width="0.5" stroke-dasharray="4 3"/>
<rect x="-380.0" y="-224.0" width="760.0" height="18.0" fill="none" stroke="#888" stroke-width="0.5" stroke-dasharray="4 3"/>
<rect x="-380.0" y="208.0" width="760.0" height="12.0" fill="none" stroke="#888" stroke-width="0.5" stroke-dasharray="4 3"/>
<rect x="366.0" y="-206.0" width="14.0" height="414.0" fill="none" stroke="#888" stroke-width="0.5" stroke-dasharray="4 3"/>
<rect x="-380.0" y="-206.0" width="14.0" height="414.0" fill="none" stroke="#888" stroke-width="0.5" stroke-dasharray="4 3"/>
<rect x="-382.0" y="-225.0" width="764.0" height="450.0" fill="none" stroke="#888" stroke-width="0.5" stroke-dasharray="4 3"/>
<rect x="-380.0" y="-222.5" width="760.0" height="444.0" fill="none" stroke="#888" stroke-width="0.5" stroke-dasharray="4 3"/>
<rect x="-398.0" y="-248.0" width="796.0" height="22.0" fill="none" stroke="#888" stroke-width="0.5" stroke-dasharray="4 3"/>
<rect x="-15.0" y="-273.5" width="30.0" height="25.0" fill="none" stroke="#111" stroke-width="0.9"/>
<rect x="-380.0" y="-224.0" width="760.0" height="18.0" fill="none" stroke="#888" stroke-width="0.5" stroke-dasharray="4 3"/>
<rect x="-380.0" y="208.0" width="760.0" height="12.0" fill="none" stroke="#888" stroke-width="0.5" stroke-dasharray="4 3"/>
<rect x="366.0" y="-206.0" width="14.0" height="414.0" fill="none" stroke="#888" stroke-width="0.5" stroke-dasharray="4 3"/>
<rect x="-380.0" y="-206.0" width="14.0" height="414.0" fill="none" stroke="#888" stroke-width="0.5" stroke-dasharray="4 3"/>
<rect x="382.0" y="-225.0" width="18.0" height="450.0" fill="none" stroke="#888" stroke-width="0.5" stroke-dasharray="4 3"/>
<rect x="-400.0" y="-225.0" width="18.0" height="450.0" fill="none" stroke="#888" stroke-width="0.5" stroke-dasharray="4 3"/>
<rect x="-398.0" y="-248.0" width="796.0" height="22.0" fill="none" stroke="#111" stroke-width="0.9"/>
<rect x="-400.0" y="-225.0" width="800.0" height="450.0" fill="none" stroke="#111" stroke-width="0.9"/>
<rect x="-400.0" y="225.0" width="800.0" height="3.0" fill="none" stroke="#111" stroke-width="0.9"/>
    
<g stroke="#111" fill="#111" stroke-width="0.6" font-family="sans-serif">
  <line x1="-400.0" y1="237.0" x2="-400.0" y2="261.0" stroke-width="0.4" stroke="#666"/>
  <line x1="400.0" y1="237.0" x2="400.0" y2="261.0" stroke-width="0.4" stroke="#666"/>
  <line x1="-400.0" y1="253.0" x2="400.0" y2="253.0" marker-start="url(#arr-top)" marker-end="url(#arr-top)"/>
  <text x="0" y="248.0" text-anchor="middle" font-size="11" stroke="none">800</text>
</g>
    
<g stroke="#111" fill="#111" stroke-width="0.6" font-family="sans-serif">
  <line x1="412.0" y1="-225.0" x2="436.0" y2="-225.0" stroke-width="0.4" stroke="#666"/>
  <line x1="412.0" y1="225.0" x2="436.0" y2="225.0" stroke-width="0.4" stroke="#666"/>
  <line x1="428.0" y1="-225.0" x2="428.0" y2="225.0" marker-start="url(#arr-top)" marker-end="url(#arr-top)"/>
  <text x="434.0" y="0.0" text-anchor="start" dominant-baseline="middle" font-size="11" stroke="none">450</text>
</g>
  </g></g>
</g>
</svg>