<?xml version="1.0" encoding="UTF-8"?>
<svg xmlns="http://www.w3.org/2000/svg" viewBox="-20 -50 1670 1910" width="1670" height="1910">
<rect x="-20" y="-50" width="1670" height="1910" fill="#fafaf7"/>
<text x="815" y="-10" text-anchor="middle" font-size="24" font-weight="700" fill="#111" font-family="sans-serif">斗櫃</text>
<text x="815" y="12" text-anchor="middle" font-size="13" fill="#666" font-family="sans-serif">800 × 450 × 900 mm · 台灣檜木 · 28 件</text>
<g transform="translate(480, 100)">
    <rect x="-400.0" y="0" width="800.0" height="900.0" fill="none" stroke="#888" stroke-dasharray="4 3" stroke-width="0.8"/>
    <rect x="-400.0" y="0.0" width="800.0" height="18.0" fill="#d8b878" stroke="#3a2a1a" stroke-width="1.2" opacity="0.92"/>
<rect x="-400.0" y="882.0" width="800.0" height="18.0" fill="#d8b878" stroke="#3a2a1a" stroke-width="1.2" opacity="0.92"/>
<rect x="-823.0" y="864.0" width="864.0" height="18.0" fill="#d8b878" stroke="#3a2a1a" stroke-width="1.2" opacity="0.92"/>
<rect x="-41.0" y="864.0" width="864.0" height="18.0" fill="#d8b878" stroke="#3a2a1a" stroke-width="1.2" opacity="0.92"/>
<rect x="-382.0" y="648.0" width="764.0" height="18.0" fill="#d8b878" stroke="#3a2a1a" stroke-width="1.2" opacity="0.92"/>
<rect x="-382.0" y="432.0" width="764.0" height="18.0" fill="#d8b878" stroke="#3a2a1a" stroke-width="1.2" opacity="0.92"/>
<rect x="-382.0" y="216.0" width="764.0" height="18.0" fill="#d8b878" stroke="#3a2a1a" stroke-width="1.2" opacity="0.92"/>
<rect x="-382.0" y="18.0" width="764.0" height="864.0" fill="#d8b878" stroke="#3a2a1a" stroke-width="1.2" opacity="0.92"/>
<rect x="-380.0" y="756.0" width="760.0" height="18.0" fill="#d8b878" stroke="#3a2a1a" stroke-width="1.2" opacity="0.92"/>
<rect x="-380.0" y="760.0" width="760.0" height="12.0" fill="#d8b878" stroke="#3a2a1a" stroke-width="1.2" opacity="0.92"/>
<rect x="-592.0" y="760.0" width="434.0" height="14.0" fill="#d8b878" stroke="#3a2a1a" stroke-width="1.2" opacity="0.92"/>
<rect x="158.0" y="760.0" width="434.0" height="14.0" fill="#d8b878" stroke="#3a2a1a" stroke-width="1.2" opacity="0.92"/>
<rect x="-368.0" y="867.0" width="736.0" height="6.0" fill="#d8b878" stroke="#3a2a1a" stroke-width="1.2" opacity="0.92"/>
<rect x="-380.0" y="540.0" width="760.0" height="18.0" fill="#d8b878" stroke="#3a2a1a" stroke-width="1.2" opacity="0.92"/>
<rect x="-380.0" y="544.0" width="760.0" height="12.0" fill="#d8b878" stroke="#3a2a1a" stroke-width="1.2" opacity="0.92"/>
<rect x="-592.0" y="544.0" width="434.0" height="14.0" fill="#d8b878" stroke="#3a2a1a" stroke-width="1.2" opacity="0.92"/>
<rect x="158.0" y="544.0" width="434.0" height="14.0" fill="#d8b878" stroke="#3a2a1a" stroke-width="1.2" opacity="0.92"/>
<rect x="-368.0" y="651.0" width="736.0" height="6.0" fill="#d8b878" stroke="#3a2a1a" stroke-width="1.2" opacity="0.92"/>
<rect x="-380.0" y="324.0" width="760.0" height="18.0" fill="#d8b878" stroke="#3a2a1a" stroke-width="1.2" opacity="0.92"/>
<rect x="-380.0" y="328.0" width="760.0" height="12.0" fill="#d8b878" stroke="#3a2a1a" stroke-width="1.2" opacity="0.92"/>
<rect x="-592.0" y="328.0" width="434.0" height="14.0" fill="#d8b878" stroke="#3a2a1a" stroke-width="1.2" opacity="0.92"/>
<rect x="158.0" y="328.0" width="434.0" height="14.0" fill="#d8b878" stroke="#3a2a1a" stroke-width="1.2" opacity="0.92"/>
<rect x="-368.0" y="435.0" width="736.0" height="6.0" fill="#d8b878" stroke="#3a2a1a" stroke-width="1.2" opacity="0.92"/>
<rect x="-380.0" y="108.0" width="760.0" height="18.0" fill="#d8b878" stroke="#3a2a1a" stroke-width="1.2" opacity="0.92"/>
<rect x="-380.0" y="112.0" width="760.0" height="12.0" fill="#d8b878" stroke="#3a2a1a" stroke-width="1.2" opacity="0.92"/>
<rect x="-592.0" y="112.0" width="434.0" height="14.0" fill="#d8b878" stroke="#3a2a1a" stroke-width="1.2" opacity="0.92"/>
<rect x="158.0" y="112.0" width="434.0" height="14.0" fill="#d8b878" stroke="#3a2a1a" stroke-width="1.2" opacity="0.92"/>
<rect x="-368.0" y="219.0" width="736.0" height="6.0" fill="#d8b878" stroke="#3a2a1a" stroke-width="1.2" opacity="0.92"/>
    <text x="0" y="950.0" text-anchor="middle" font-size="18" fill="#444" font-family="sans-serif">正視圖（800 × 900 mm）</text>
  </g>
<g transform="translate(1325, 100)">
    <rect x="-225.0" y="0" width="450.0" height="900.0" fill="none" stroke="#888" stroke-dasharray="4 3" stroke-width="0.8"/>
    <rect x="-225.0" y="0.0" width="450.0" height="18.0" fill="#d8b878" stroke="#3a2a1a" stroke-width="1.2" opacity="0.92"/>
<rect x="-225.0" y="882.0" width="450.0" height="18.0" fill="#d8b878" stroke="#3a2a1a" stroke-width="1.2" opacity="0.92"/>
<rect x="-222.0" y="864.0" width="444.0" height="18.0" fill="#d8b878" stroke="#3a2a1a" stroke-width="1.2" opacity="0.92"/>
<rect x="-222.0" y="864.0" width="444.0" height="18.0" fill="#d8b878" stroke="#3a2a1a" stroke-width="1.2" opacity="0.92"/>
<rect x="-222.0" y="648.0" width="444.0" height="18.0" fill="#d8b878" stroke="#3a2a1a" stroke-width="1.2" opacity="0.92"/>
<rect x="-222.0" y="432.0" width="444.0" height="18.0" fill="#d8b878" stroke="#3a2a1a" stroke-width="1.2" opacity="0.92"/>
<rect x="-222.0" y="216.0" width="444.0" height="18.0" fill="#d8b878" stroke="#3a2a1a" stroke-width="1.2" opacity="0.92"/>
<rect x="219.0" y="18.0" width="6.0" height="864.0" fill="#d8b878" stroke="#3a2a1a" stroke-width="1.2" opacity="0.92"/>
<rect x="-319.0" y="756.0" width="208.0" height="18.0" fill="#d8b878" stroke="#3a2a1a" stroke-width="1.2" opacity="0.92"/>
<rect x="109.0" y="760.0" width="198.0" height="12.0" fill="#d8b878" stroke="#3a2a1a" stroke-width="1.2" opacity="0.92"/>
<rect x="-107.5" y="760.0" width="208.0" height="14.0" fill="#d8b878" stroke="#3a2a1a" stroke-width="1.2" opacity="0.92"/>
<rect x="-107.5" y="760.0" width="208.0" height="14.0" fill="#d8b878" stroke="#3a2a1a" stroke-width="1.2" opacity="0.92"/>
<rect x="-209.5" y="867.0" width="412.0" height="6.0" fill="#d8b878" stroke="#3a2a1a" stroke-width="1.2" opacity="0.92"/>
<rect x="-319.0" y="540.0" width="208.0" height="18.0" fill="#d8b878" stroke="#3a2a1a" stroke-width="1.2" opacity="0.92"/>
<rect x="109.0" y="544.0" width="198.0" height="12.0" fill="#d8b878" stroke="#3a2a1a" stroke-width="1.2" opacity="0.92"/>
<rect x="-107.5" y="544.0" width="208.0" height="14.0" fill="#d8b878" stroke="#3a2a1a" stroke-width="1.2" opacity="0.92"/>
<rect x="-107.5" y="544.0" width="208.0" height="14.0" fill="#d8b878" stroke="#3a2a1a" stroke-width="1.2" opacity="0.92"/>
<rect x="-209.5" y="651.0" width="412.0" height="6.0" fill="#d8b878" stroke="#3a2a1a" stroke-width="1.2" opacity="0.92"/>
<rect x="-319.0" y="324.0" width="208.0" height="18.0" fill="#d8b878" stroke="#3a2a1a" stroke-width="1.2" opacity="0.92"/>
<rect x="109.0" y="328.0" width="198.0" height="12.0" fill="#d8b878" stroke="#3a2a1a" stroke-width="1.2" opacity="0.92"/>
<rect x="-107.5" y="328.0" width="208.0" height="14.0" fill="#d8b878" stroke="#3a2a1a" stroke-width="1.2" opacity="0.92"/>
<rect x="-107.5" y="328.0" width="208.0" height="14.0" fill="#d8b878" stroke="#3a2a1a" stroke-width="1.2" opacity="0.92"/>
<rect x="-209.5" y="435.0" width="412.0" height="6.0" fill="#d8b878" stroke="#3a2a1a" stroke-width="1.2" opacity="0.92"/>
<rect x="-319.0" y="108.0" width="208.0" height="18.0" fill="#d8b878" stroke="#3a2a1a" stroke-width="1.2" opacity="0.92"/>
<rect x="109.0" y="112.0" width="198.0" height="12.0" fill="#d8b878" stroke="#3a2a1a" stroke-width="1.2" opacity="0.92"/>
<rect x="-107.5" y="112.0" width="208.0" height="14.0" fill="#d8b878" stroke="#3a2a1a" stroke-width="1.2" opacity="0.92"/>
<rect x="-107.5" y="112.0" width="208.0" height="14.0" fill="#d8b878" stroke="#3a2a1a" stroke-width="1.2" opacity="0.92"/>
<rect x="-209.5" y="219.0" width="412.0" height="6.0" fill="#d8b878" stroke="#3a2a1a" stroke-width="1.2" opacity="0.92"/>
    <text x="0" y="950.0" text-anchor="middle" font-size="18" fill="#444" font-family="sans-serif">側視圖（450 × 900 mm）</text>
  </g>
<g transform="translate(480, 1250)">
    <rect x="-400.0" y="0" width="800.0" height="450.0" fill="none" stroke="#888" stroke-dasharray="4 3" stroke-width="0.8"/>
    <rect x="-400.0" y="-225.0" width="800.0" height="450.0" fill="#d8b878" stroke="#3a2a1a" stroke-width="1.2" opacity="0.92"/>
<rect x="-400.0" y="-225.0" width="800.0" height="450.0" fill="#d8b878" stroke="#3a2a1a" stroke-width="1.2" opacity="0.92"/>
<rect x="-823.0" y="-222.0" width="864.0" height="444.0" fill="#d8b878" stroke="#3a2a1a" stroke-width="1.2" opacity="0.92"/>
<rect x="-41.0" y="-222.0" width="864.0" height="444.0" fill="#d8b878" stroke="#3a2a1a" stroke-width="1.2" opacity="0.92"/>
<rect x="-382.0" y="-222.0" width="764.0" height="444.0" fill="#d8b878" stroke="#3a2a1a" stroke-width="1.2" opacity="0.92"/>
<rect x="-382.0" y="-222.0" width="764.0" height="444.0" fill="#d8b878" stroke="#3a2a1a" stroke-width="1.2" opacity="0.92"/>
<rect x="-382.0" y="-222.0" width="764.0" height="444.0" fill="#d8b878" stroke="#3a2a1a" stroke-width="1.2" opacity="0.92"/>
<rect x="-382.0" y="219.0" width="764.0" height="6.0" fill="#d8b878" stroke="#3a2a1a" stroke-width="1.2" opacity="0.92"/>
<rect x="-380.0" y="-319.0" width="760.0" height="208.0" fill="#d8b878" stroke="#3a2a1a" stroke-width="1.2" opacity="0.92"/>
<rect x="-380.0" y="109.0" width="760.0" height="198.0" fill="#d8b878" stroke="#3a2a1a" stroke-width="1.2" opacity="0.92"/>
<rect x="-592.0" y="-107.5" width="434.0" height="208.0" fill="#d8b878" stroke="#3a2a1a" stroke-width="1.2" opacity="0.92"/>
<rect x="158.0" y="-107.5" width="434.0" height="208.0" fill="#d8b878" stroke="#3a2a1a" stroke-width="1.2" opacity="0.92"/>
<rect x="-368.0" y="-209.5" width="736.0" height="412.0" fill="#d8b878" stroke="#3a2a1a" stroke-width="1.2" opacity="0.92"/>
<rect x="-380.0" y="-319.0" width="760.0" height="208.0" fill="#d8b878" stroke="#3a2a1a" stroke-width="1.2" opacity="0.92"/>
<rect x="-380.0" y="109.0" width="760.0" height="198.0" fill="#d8b878" stroke="#3a2a1a" stroke-width="1.2" opacity="0.92"/>
<rect x="-592.0" y="-107.5" width="434.0" height="208.0" fill="#d8b878" stroke="#3a2a1a" stroke-width="1.2" opacity="0.92"/>
<rect x="158.0" y="-107.5" width="434.0" height="208.0" fill="#d8b878" stroke="#3a2a1a" stroke-width="1.2" opacity="0.92"/>
<rect x="-368.0" y="-209.5" width="736.0" height="412.0" fill="#d8b878" stroke="#3a2a1a" stroke-width="1.2" opacity="0.92"/>
<rect x="-380.0" y="-319.0" width="760.0" height="208.0" fill="#d8b878" stroke="#3a2a1a" stroke-width="1.2" opacity="0.92"/>
<rect x="-380.0" y="109.0" width="760.0" height="198.0" fill="#d8b878" stroke="#3a2a1a" stroke-width="1.2" opacity="0.92"/>
<rect x="-592.0" y="-107.5" width="434.0" height="208.0" fill="#d8b878" stroke="#3a2a1a" stroke-width="1.2" opacity="0.92"/>
<rect x="158.0" y="-107.5" width="434.0" height="208.0" fill="#d8b878" stroke="#3a2a1a" stroke-width="1.2" opacity="0.92"/>
<rect x="-368.0" y="-209.5" width="736.0" height="412.0" fill="#d8b878" stroke="#3a2a1a" stroke-width="1.2" opacity="0.92"/>
<rect x="-380.0" y="-319.0" width="760.0" height="208.0" fill="#d8b878" stroke="#3a2a1a" stroke-width="1.2" opacity="0.92"/>
<rect x="-380.0" y="109.0" width="760.0" height="198.0" fill="#d8b878" stroke="#3a2a1a" stroke-width="1.2" opacity="0.92"/>
<rect x="-592.0" y="-107.5" width="434.0" height="208.0" fill="#d8b878" stroke="#3a2a1a" stroke-width="1.2" opacity="0.92"/>
<rect x="158.0" y="-107.5" width="434.0" height="208.0" fill="#d8b878" stroke="#3a2a1a" stroke-width="1.2" opacity="0.92"/>
<rect x="-368.0" y="-209.5" width="736.0" height="412.0" fill="#d8b878" stroke="#3a2a1a" stroke-width="1.2" opacity="0.92"/>
    <text x="0" y="500.0" text-anchor="middle" font-size="18" fill="#444" font-family="sans-serif">俯視圖（800 × 450 mm）</text>
  </g>
</svg>