<?xml version="1.0" encoding="UTF-8"?>
<svg xmlns="http://www.w3.org/2000/svg" viewBox="-20 -50 2220 1910" width="2220" height="1910">
<rect x="-20" y="-50" width="2220" height="1910" fill="#fafaf7"/>
<text x="1090" y="-10" text-anchor="middle" font-size="24" font-weight="700" fill="#111" font-family="sans-serif">書桌</text>
<text x="1090" y="12" text-anchor="middle" font-size="13" fill="#666" font-family="sans-serif">1200 × 600 × 750 mm · 台灣檜木 · 10 件</text>
<g transform="translate(680, 100)">
    <rect x="-600.0" y="0" width="1200.0" height="750.0" fill="none" stroke="#888" stroke-dasharray="4 3" stroke-width="0.8"/>
    <rect x="-600.0" y="0.0" width="1200.0" height="28.0" fill="#d8b878" stroke="#3a2a1a" stroke-width="1.2" opacity="0.92"/>
<rect x="-600.0" y="28.0" width="55.0" height="722.0" fill="#d8b878" stroke="#3a2a1a" stroke-width="1.2" opacity="0.92"/>
<rect x="545.0" y="28.0" width="55.0" height="722.0" fill="#d8b878" stroke="#3a2a1a" stroke-width="1.2" opacity="0.92"/>
<rect x="-600.0" y="28.0" width="55.0" height="722.0" fill="#d8b878" stroke="#3a2a1a" stroke-width="1.2" opacity="0.92"/>
<rect x="545.0" y="28.0" width="55.0" height="722.0" fill="#d8b878" stroke="#3a2a1a" stroke-width="1.2" opacity="0.92"/>
<rect x="-572.5" y="48.0" width="1145.0" height="90.0" fill="#d8b878" stroke="#3a2a1a" stroke-width="1.2" opacity="0.92"/>
<rect x="-572.5" y="48.0" width="1145.0" height="90.0" fill="#d8b878" stroke="#3a2a1a" stroke-width="1.2" opacity="0.92"/>
<rect x="-585.0" y="48.0" width="25.0" height="90.0" fill="#d8b878" stroke="#3a2a1a" stroke-width="1.2" opacity="0.92"/>
<rect x="560.0" y="48.0" width="25.0" height="90.0" fill="#d8b878" stroke="#3a2a1a" stroke-width="1.2" opacity="0.92"/>
<rect x="-265.0" y="143.0" width="530.0" height="25.0" fill="#d8b878" stroke="#3a2a1a" stroke-width="1.2" opacity="0.92"/>
    <text x="0" y="800.0" text-anchor="middle" font-size="18" fill="#444" font-family="sans-serif">正視圖（1200 × 750 mm）</text>
  </g>
<g transform="translate(1800, 100)">
    <rect x="-300.0" y="0" width="600.0" height="750.0" fill="none" stroke="#888" stroke-dasharray="4 3" stroke-width="0.8"/>
    <rect x="-300.0" y="0.0" width="600.0" height="28.0" fill="#d8b878" stroke="#3a2a1a" stroke-width="1.2" opacity="0.92"/>
<rect x="-300.0" y="28.0" width="55.0" height="722.0" fill="#d8b878" stroke="#3a2a1a" stroke-width="1.2" opacity="0.92"/>
<rect x="-300.0" y="28.0" width="55.0" height="722.0" fill="#d8b878" stroke="#3a2a1a" stroke-width="1.2" opacity="0.92"/>
<rect x="245.0" y="28.0" width="55.0" height="722.0" fill="#d8b878" stroke="#3a2a1a" stroke-width="1.2" opacity="0.92"/>
<rect x="245.0" y="28.0" width="55.0" height="722.0" fill="#d8b878" stroke="#3a2a1a" stroke-width="1.2" opacity="0.92"/>
<rect x="-285.0" y="48.0" width="25.0" height="90.0" fill="#d8b878" stroke="#3a2a1a" stroke-width="1.2" opacity="0.92"/>
<rect x="260.0" y="48.0" width="25.0" height="90.0" fill="#d8b878" stroke="#3a2a1a" stroke-width="1.2" opacity="0.92"/>
<rect x="-272.5" y="48.0" width="545.0" height="90.0" fill="#d8b878" stroke="#3a2a1a" stroke-width="1.2" opacity="0.92"/>
<rect x="-272.5" y="48.0" width="545.0" height="90.0" fill="#d8b878" stroke="#3a2a1a" stroke-width="1.2" opacity="0.92"/>
<rect x="-25.0" y="143.0" width="50.0" height="25.0" fill="#d8b878" stroke="#3a2a1a" stroke-width="1.2" opacity="0.92"/>
    <text x="0" y="800.0" text-anchor="middle" font-size="18" fill="#444" font-family="sans-serif">側視圖（600 × 750 mm）</text>
  </g>
<g transform="translate(680, 1100)">
    <rect x="-600.0" y="0" width="1200.0" height="600.0" fill="none" stroke="#888" stroke-dasharray="4 3" stroke-width="0.8"/>
    <rect x="-600.0" y="-300.0" width="1200.0" height="600.0" fill="#d8b878" stroke="#3a2a1a" stroke-width="1.2" opacity="0.92"/>
<rect x="-600.0" y="-300.0" width="55.0" height="55.0" fill="#d8b878" stroke="#3a2a1a" stroke-width="1.2" opacity="0.92"/>
<rect x="545.0" y="-300.0" width="55.0" height="55.0" fill="#d8b878" stroke="#3a2a1a" stroke-width="1.2" opacity="0.92"/>
<rect x="-600.0" y="245.0" width="55.0" height="55.0" fill="#d8b878" stroke="#3a2a1a" stroke-width="1.2" opacity="0.92"/>
<rect x="545.0" y="245.0" width="55.0" height="55.0" fill="#d8b878" stroke="#3a2a1a" stroke-width="1.2" opacity="0.92"/>
<rect x="-572.5" y="-285.0" width="1145.0" height="25.0" fill="#d8b878" stroke="#3a2a1a" stroke-width="1.2" opacity="0.92"/>
<rect x="-572.5" y="260.0" width="1145.0" height="25.0" fill="#d8b878" stroke="#3a2a1a" stroke-width="1.2" opacity="0.92"/>
<rect x="-585.0" y="-272.5" width="25.0" height="545.0" fill="#d8b878" stroke="#3a2a1a" stroke-width="1.2" opacity="0.92"/>
<rect x="560.0" y="-272.5" width="25.0" height="545.0" fill="#d8b878" stroke="#3a2a1a" stroke-width="1.2" opacity="0.92"/>
<rect x="-265.0" y="-25.0" width="530.0" height="50.0" fill="#d8b878" stroke="#3a2a1a" stroke-width="1.2" opacity="0.92"/>
    <text x="0" y="650.0" text-anchor="middle" font-size="18" fill="#444" font-family="sans-serif">俯視圖（1200 × 600 mm）</text>
  </g>
</svg>