<?xml version="1.0" encoding="UTF-8"?>
<svg xmlns="http://www.w3.org/2000/svg" viewBox="-20 -10 1340 2004" width="1340">
<defs><marker id="arr-front" viewBox="0 0 10 10" refX="9" refY="5" markerWidth="8" markerHeight="8" orient="auto-start-reverse"><path d="M 0 0 L 10 5 L 0 10 z" fill="#111"/></marker>
<marker id="arr-side" viewBox="0 0 10 10" refX="9" refY="5" markerWidth="8" markerHeight="8" orient="auto-start-reverse"><path d="M 0 0 L 10 5 L 0 10 z" fill="#111"/></marker>
<marker id="arr-top" viewBox="0 0 10 10" refX="9" refY="5" markerWidth="8" markerHeight="8" orient="auto-start-reverse"><path d="M 0 0 L 10 5 L 0 10 z" fill="#111"/></marker></defs>
<rect x="-20" y="-10" width="1340" height="2004" fill="#fafaf7"/>

<text x="650" y="24" text-anchor="middle" font-size="22" font-weight="700" fill="#111" font-family="sans-serif">餐椅</text>
<text x="650" y="46" text-anchor="middle" font-size="12" fill="#666" font-family="sans-serif">450 × 450 × 850 mm · 台灣檜木 · 12 件零件</text>
<g transform="translate(0, 70)">
  <g transform="translate(315.0, 972.0)">
    <rect x="-307.0" y="-964.0" width="614.0" height="1096.0" fill="none" stroke="#222" stroke-width="1"/>
    
<line x1="-307.0" y1="-932.0" x2="307.0" y2="-932.0" stroke="#222" stroke-width="0.6"/>
<text x="-297.0" y="-942.0" font-size="13" font-weight="700" fill="#111" font-family="sans-serif">正視圖</text>
<text x="-225.0" y="-942.0" font-size="10" fill="#666" font-family="sans-serif">FRONT VIEW</text>
    
<g stroke="#888" stroke-width="0.5" stroke-dasharray="8 2 2 2" opacity="0.7">
  <line x1="0" y1="-860.0" x2="0" y2="10.0"/>
  <line x1="-235.0" y1="-425.0" x2="235.0" y2="-425.0"/>
</g>
    <rect x="-225.0" y="-850.0" width="450.0" height="850.0" fill="none" stroke="#999" stroke-dasharray="3 3" stroke-width="0.5" opacity="0.8"/>
    <rect x="-207.5" y="-420.0" width="415.0" height="60.0" fill="none" stroke="#888" stroke-width="0.5" stroke-dasharray="4 3"/>
<rect x="-207.5" y="-850.0" width="415.0" height="50.0" fill="none" stroke="#111" stroke-width="0.9"/>
<rect x="-225.0" y="-850.0" width="35.0" height="850.0" fill="none" stroke="#111" stroke-width="0.9"/>
<rect x="190.0" y="-850.0" width="35.0" height="850.0" fill="none" stroke="#111" stroke-width="0.9"/>
<rect x="-71.5" y="-800.0" width="18.0" height="350.0" fill="none" stroke="#111" stroke-width="0.9"/>
<rect x="53.5" y="-800.0" width="18.0" height="350.0" fill="none" stroke="#111" stroke-width="0.9"/>
<rect x="-217.5" y="-420.0" width="20.0" height="60.0" fill="none" stroke="#111" stroke-width="0.9"/>
<rect x="197.5" y="-420.0" width="20.0" height="60.0" fill="none" stroke="#111" stroke-width="0.9"/>
<rect x="-207.5" y="-420.0" width="415.0" height="60.0" fill="none" stroke="#111" stroke-width="0.9"/>
<rect x="-225.0" y="-450.0" width="450.0" height="25.0" fill="none" stroke="#111" stroke-width="0.9"/>
<rect x="-225.0" y="-450.0" width="35.0" height="450.0" fill="none" stroke="#111" stroke-width="0.9"/>
<rect x="190.0" y="-450.0" width="35.0" height="450.0" fill="none" stroke="#111" stroke-width="0.9"/>
    
<g stroke="#111" fill="#111" stroke-width="0.6" font-family="sans-serif">
  <line x1="-225.0" y1="12.0" x2="-225.0" y2="36.0" stroke-width="0.4" stroke="#666"/>
  <line x1="225.0" y1="12.0" x2="225.0" y2="36.0" stroke-width="0.4" stroke="#666"/>
  <line x1="-225.0" y1="28.0" x2="225.0" y2="28.0" marker-start="url(#arr-front)" marker-end="url(#arr-front)"/>
  <text x="0" y="23.0" text-anchor="middle" font-size="11" stroke="none">450</text>
</g>
    
<g stroke="#111" fill="#111" stroke-width="0.6" font-family="sans-serif">
  <line x1="237.0" y1="-850.0" x2="261.0" y2="-850.0" stroke-width="0.4" stroke="#666"/>
  <line x1="237.0" y1="0.0" x2="261.0" y2="0.0" stroke-width="0.4" stroke="#666"/>
  <line x1="253.0" y1="-850.0" x2="253.0" y2="0.0" marker-start="url(#arr-front)" marker-end="url(#arr-front)"/>
  <text x="259.0" y="-425.0" text-anchor="start" dominant-baseline="middle" font-size="11" stroke="none">850</text>
</g>
  </g>
  <g transform="translate(670, 0)"><g transform="translate(315.0, 972.0)">
    <rect x="-307.0" y="-964.0" width="614.0" height="1096.0" fill="none" stroke="#222" stroke-width="1"/>
    
<line x1="-307.0" y1="-932.0" x2="307.0" y2="-932.0" stroke="#222" stroke-width="0.6"/>
<text x="-297.0" y="-942.0" font-size="13" font-weight="700" fill="#111" font-family="sans-serif">側視圖</text>
<text x="-225.0" y="-942.0" font-size="10" fill="#666" font-family="sans-serif">SIDE VIEW</text>
    
<g stroke="#888" stroke-width="0.5" stroke-dasharray="8 2 2 2" opacity="0.7">
  <line x1="0" y1="-860.0" x2="0" y2="10.0"/>
  <line x1="-235.0" y1="-425.0" x2="235.0" y2="-425.0"/>
</g>
    <rect x="-225.0" y="-850.0" width="450.0" height="850.0" fill="none" stroke="#999" stroke-dasharray="3 3" stroke-width="0.5" opacity="0.8"/>
    <rect x="-207.5" y="-420.0" width="415.0" height="60.0" fill="none" stroke="#888" stroke-width="0.5" stroke-dasharray="4 3"/>
<rect x="-225.0" y="-450.0" width="35.0" height="450.0" fill="none" stroke="#888" stroke-width="0.5" stroke-dasharray="4 3"/>
<rect x="190.0" y="-850.0" width="35.0" height="850.0" fill="none" stroke="#888" stroke-width="0.5" stroke-dasharray="4 3"/>
<rect x="177.5" y="-800.0" width="60.0" height="350.0" fill="none" stroke="#888" stroke-width="0.5" stroke-dasharray="4 3"/>
<rect x="177.5" y="-800.0" width="60.0" height="350.0" fill="none" stroke="#111" stroke-width="0.9"/>
<rect x="-217.5" y="-420.0" width="20.0" height="60.0" fill="none" stroke="#111" stroke-width="0.9"/>
<rect x="197.5" y="-420.0" width="20.0" height="60.0" fill="none" stroke="#111" stroke-width="0.9"/>
<rect x="196.5" y="-850.0" width="22.0" height="50.0" fill="none" stroke="#111" stroke-width="0.9"/>
<rect x="-207.5" y="-420.0" width="415.0" height="60.0" fill="none" stroke="#111" stroke-width="0.9"/>
<rect x="-225.0" y="-450.0" width="450.0" height="25.0" fill="none" stroke="#111" stroke-width="0.9"/>
<rect x="-225.0" y="-450.0" width="35.0" height="450.0" fill="none" stroke="#111" stroke-width="0.9"/>
<rect x="190.0" y="-850.0" width="35.0" height="850.0" fill="none" stroke="#111" stroke-width="0.9"/>
    
<g stroke="#111" fill="#111" stroke-width="0.6" font-family="sans-serif">
  <line x1="-225.0" y1="12.0" x2="-225.0" y2="36.0" stroke-width="0.4" stroke="#666"/>
  <line x1="225.0" y1="12.0" x2="225.0" y2="36.0" stroke-width="0.4" stroke="#666"/>
  <line x1="-225.0" y1="28.0" x2="225.0" y2="28.0" marker-start="url(#arr-side)" marker-end="url(#arr-side)"/>
  <text x="0" y="23.0" text-anchor="middle" font-size="11" stroke="none">450</text>
</g>
    
<g stroke="#111" fill="#111" stroke-width="0.6" font-family="sans-serif">
  <line x1="237.0" y1="-850.0" x2="261.0" y2="-850.0" stroke-width="0.4" stroke="#666"/>
  <line x1="237.0" y1="0.0" x2="261.0" y2="0.0" stroke-width="0.4" stroke="#666"/>
  <line x1="253.0" y1="-850.0" x2="253.0" y2="0.0" marker-start="url(#arr-side)" marker-end="url(#arr-side)"/>
  <text x="259.0" y="-425.0" text-anchor="start" dominant-baseline="middle" font-size="11" stroke="none">850</text>
</g>
  </g></g>
  <g transform="translate(0, 1152)"><g transform="translate(315.0, 347.0)">
    <rect x="-307.0" y="-339.0" width="614.0" height="696.0" fill="none" stroke="#222" stroke-width="1"/>
    
<line x1="-307.0" y1="-307.0" x2="307.0" y2="-307.0" stroke="#222" stroke-width="0.6"/>
<text x="-297.0" y="-317.0" font-size="13" font-weight="700" fill="#111" font-family="sans-serif">俯視圖</text>
<text x="-225.0" y="-317.0" font-size="10" fill="#666" font-family="sans-serif">TOP VIEW</text>
    
<g stroke="#888" stroke-width="0.5" stroke-dasharray="8 2 2 2" opacity="0.7">
  <line x1="0" y1="-235.0" x2="0" y2="235.0"/>
  <line x1="-235.0" y1="0.0" x2="235.0" y2="0.0"/>
</g>
    <rect x="-225.0" y="-225.0" width="450.0" height="450.0" fill="none" stroke="#999" stroke-dasharray="3 3" stroke-width="0.5" opacity="0.8"/>
    <rect x="-207.5" y="-217.5" width="415.0" height="20.0" fill="none" stroke="#888" stroke-width="0.5" stroke-dasharray="4 3"/>
<rect x="-207.5" y="197.5" width="415.0" height="20.0" fill="none" stroke="#888" stroke-width="0.5" stroke-dasharray="4 3"/>
<rect x="-217.5" y="-207.5" width="20.0" height="415.0" fill="none" stroke="#888" stroke-width="0.5" stroke-dasharray="4 3"/>
<rect x="197.5" y="-207.5" width="20.0" height="415.0" fill="none" stroke="#888" stroke-width="0.5" stroke-dasharray="4 3"/>
<rect x="-225.0" y="-225.0" width="450.0" height="450.0" fill="none" stroke="#111" stroke-width="0.9"/>
<rect x="-225.0" y="-225.0" width="35.0" height="35.0" fill="none" stroke="#111" stroke-width="0.9"/>
<rect x="190.0" y="-225.0" width="35.0" height="35.0" fill="none" stroke="#111" stroke-width="0.9"/>
<rect x="-71.5" y="177.5" width="18.0" height="60.0" fill="none" stroke="#111" stroke-width="0.9"/>
<rect x="53.5" y="177.5" width="18.0" height="60.0" fill="none" stroke="#111" stroke-width="0.9"/>
<rect x="-225.0" y="190.0" width="35.0" height="35.0" fill="none" stroke="#111" stroke-width="0.9"/>
<rect x="190.0" y="190.0" width="35.0" height="35.0" fill="none" stroke="#111" stroke-width="0.9"/>
<rect x="-207.5" y="196.5" width="415.0" height="22.0" fill="none" stroke="#111" stroke-width="0.9"/>
    
<g stroke="#111" fill="#111" stroke-width="0.6" font-family="sans-serif">
  <line x1="-225.0" y1="237.0" x2="-225.0" y2="261.0" stroke-width="0.4" stroke="#666"/>
  <line x1="225.0" y1="237.0" x2="225.0" y2="261.0" stroke-width="0.4" stroke="#666"/>
  <line x1="-225.0" y1="253.0" x2="225.0" y2="253.0" marker-start="url(#arr-top)" marker-end="url(#arr-top)"/>
  <text x="0" y="248.0" text-anchor="middle" font-size="11" stroke="none">450</text>
</g>
    
<g stroke="#111" fill="#111" stroke-width="0.6" font-family="sans-serif">
  <line x1="237.0" y1="-225.0" x2="261.0" y2="-225.0" stroke-width="0.4" stroke="#666"/>
  <line x1="237.0" y1="225.0" x2="261.0" y2="225.0" stroke-width="0.4" stroke="#666"/>
  <line x1="253.0" y1="-225.0" x2="253.0" y2="225.0" marker-start="url(#arr-top)" marker-end="url(#arr-top)"/>
  <text x="259.0" y="0.0" text-anchor="start" dominant-baseline="middle" font-size="11" stroke="none">450</text>
</g>
  </g></g>
</g>
</svg>