<?xml version="1.0" encoding="UTF-8"?>
<svg xmlns="http://www.w3.org/2000/svg" viewBox="-20 -10 2740 2254" width="2740">
<defs><marker id="arr-front" viewBox="0 0 10 10" refX="9" refY="5" markerWidth="8" markerHeight="8" orient="auto-start-reverse"><path d="M 0 0 L 10 5 L 0 10 z" fill="#111"/></marker>
<marker id="arr-side" viewBox="0 0 10 10" refX="9" refY="5" markerWidth="8" markerHeight="8" orient="auto-start-reverse"><path d="M 0 0 L 10 5 L 0 10 z" fill="#111"/></marker>
<marker id="arr-top" viewBox="0 0 10 10" refX="9" refY="5" markerWidth="8" markerHeight="8" orient="auto-start-reverse"><path d="M 0 0 L 10 5 L 0 10 z" fill="#111"/></marker></defs>
<rect x="-20" y="-10" width="2740" height="2254" fill="#fafaf7"/>

<text x="1350" y="24" text-anchor="middle" font-size="22" font-weight="700" fill="#111" font-family="sans-serif">餐桌</text>
<text x="1350" y="46" text-anchor="middle" font-size="12" fill="#666" font-family="sans-serif">1500 × 800 × 750 mm · 台灣檜木 · 10 件零件</text>
<g transform="translate(0, 70)">
  <g transform="translate(840.0, 872.0)">
    <rect x="-832.0" y="-864.0" width="1664.0" height="996.0" fill="none" stroke="#222" stroke-width="1"/>
    
<line x1="-832.0" y1="-832.0" x2="832.0" y2="-832.0" stroke="#222" stroke-width="0.6"/>
<text x="-822.0" y="-842.0" font-size="13" font-weight="700" fill="#111" font-family="sans-serif">正視圖</text>
<text x="-750.0" y="-842.0" font-size="10" fill="#666" font-family="sans-serif">FRONT VIEW</text>
    
<g stroke="#888" stroke-width="0.5" stroke-dasharray="8 2 2 2" opacity="0.7">
  <line x1="0" y1="-760.0" x2="0" y2="10.0"/>
  <line x1="-760.0" y1="-375.0" x2="760.0" y2="-375.0"/>
</g>
    <rect x="-750.0" y="-750.0" width="1500.0" height="750.0" fill="none" stroke="#999" stroke-dasharray="3 3" stroke-width="0.5" opacity="0.8"/>
    <rect x="-680.0" y="-700.0" width="1360.0" height="100.0" fill="none" stroke="#888" stroke-width="0.5" stroke-dasharray="4 3"/>
<rect x="-750.0" y="-720.0" width="70.0" height="720.0" fill="none" stroke="#888" stroke-width="0.5" stroke-dasharray="4 3"/>
<rect x="680.0" y="-720.0" width="70.0" height="720.0" fill="none" stroke="#888" stroke-width="0.5" stroke-dasharray="4 3"/>
<rect x="-729.0" y="-700.0" width="28.0" height="100.0" fill="none" stroke="#888" stroke-width="0.5" stroke-dasharray="4 3"/>
<rect x="701.0" y="-700.0" width="28.0" height="100.0" fill="none" stroke="#888" stroke-width="0.5" stroke-dasharray="4 3"/>
<rect x="-12.5" y="-620.0" width="25.0" height="50.0" fill="none" stroke="#111" stroke-width="0.9"/>
<rect x="-680.0" y="-700.0" width="1360.0" height="100.0" fill="none" stroke="#111" stroke-width="0.9"/>
<rect x="-750.0" y="-720.0" width="70.0" height="720.0" fill="none" stroke="#111" stroke-width="0.9"/>
<rect x="680.0" y="-720.0" width="70.0" height="720.0" fill="none" stroke="#111" stroke-width="0.9"/>
<rect x="-790.0" y="-750.0" width="1580.0" height="30.0" fill="none" stroke="#111" stroke-width="0.9"/>
    
<g stroke="#111" fill="#111" stroke-width="0.6" font-family="sans-serif">
  <line x1="-750.0" y1="12.0" x2="-750.0" y2="36.0" stroke-width="0.4" stroke="#666"/>
  <line x1="750.0" y1="12.0" x2="750.0" y2="36.0" stroke-width="0.4" stroke="#666"/>
  <line x1="-750.0" y1="28.0" x2="750.0" y2="28.0" marker-start="url(#arr-front)" marker-end="url(#arr-front)"/>
  <text x="0" y="23.0" text-anchor="middle" font-size="11" stroke="none">1500</text>
</g>
    
<g stroke="#111" fill="#111" stroke-width="0.6" font-family="sans-serif">
  <line x1="762.0" y1="-750.0" x2="786.0" y2="-750.0" stroke-width="0.4" stroke="#666"/>
  <line x1="762.0" y1="0.0" x2="786.0" y2="0.0" stroke-width="0.4" stroke="#666"/>
  <line x1="778.0" y1="-750.0" x2="778.0" y2="0.0" marker-start="url(#arr-front)" marker-end="url(#arr-front)"/>
  <text x="784.0" y="-375.0" text-anchor="start" dominant-baseline="middle" font-size="11" stroke="none">750</text>
</g>
  </g>
  <g transform="translate(1720, 0)"><g transform="translate(490.0, 872.0)">
    <rect x="-482.0" y="-864.0" width="964.0" height="996.0" fill="none" stroke="#222" stroke-width="1"/>
    
<line x1="-482.0" y1="-832.0" x2="482.0" y2="-832.0" stroke="#222" stroke-width="0.6"/>
<text x="-472.0" y="-842.0" font-size="13" font-weight="700" fill="#111" font-family="sans-serif">側視圖</text>
<text x="-400.0" y="-842.0" font-size="10" fill="#666" font-family="sans-serif">SIDE VIEW</text>
    
<g stroke="#888" stroke-width="0.5" stroke-dasharray="8 2 2 2" opacity="0.7">
  <line x1="0" y1="-760.0" x2="0" y2="10.0"/>
  <line x1="-410.0" y1="-375.0" x2="410.0" y2="-375.0"/>
</g>
    <rect x="-400.0" y="-750.0" width="800.0" height="750.0" fill="none" stroke="#999" stroke-dasharray="3 3" stroke-width="0.5" opacity="0.8"/>
    <rect x="-330.0" y="-700.0" width="660.0" height="100.0" fill="none" stroke="#888" stroke-width="0.5" stroke-dasharray="4 3"/>
<rect x="-400.0" y="-720.0" width="70.0" height="720.0" fill="none" stroke="#888" stroke-width="0.5" stroke-dasharray="4 3"/>
<rect x="330.0" y="-720.0" width="70.0" height="720.0" fill="none" stroke="#888" stroke-width="0.5" stroke-dasharray="4 3"/>
<rect x="-362.0" y="-620.0" width="724.0" height="50.0" fill="none" stroke="#111" stroke-width="0.9"/>
<rect x="-379.0" y="-700.0" width="28.0" height="100.0" fill="none" stroke="#888" stroke-width="0.5" stroke-dasharray="4 3"/>
<rect x="351.0" y="-700.0" width="28.0" height="100.0" fill="none" stroke="#888" stroke-width="0.5" stroke-dasharray="4 3"/>
<rect x="-330.0" y="-700.0" width="660.0" height="100.0" fill="none" stroke="#111" stroke-width="0.9"/>
<rect x="-400.0" y="-720.0" width="70.0" height="720.0" fill="none" stroke="#111" stroke-width="0.9"/>
<rect x="330.0" y="-720.0" width="70.0" height="720.0" fill="none" stroke="#111" stroke-width="0.9"/>
<rect x="-440.0" y="-750.0" width="880.0" height="30.0" fill="none" stroke="#111" stroke-width="0.9"/>
    
<g stroke="#111" fill="#111" stroke-width="0.6" font-family="sans-serif">
  <line x1="-400.0" y1="12.0" x2="-400.0" y2="36.0" stroke-width="0.4" stroke="#666"/>
  <line x1="400.0" y1="12.0" x2="400.0" y2="36.0" stroke-width="0.4" stroke="#666"/>
  <line x1="-400.0" y1="28.0" x2="400.0" y2="28.0" marker-start="url(#arr-side)" marker-end="url(#arr-side)"/>
  <text x="0" y="23.0" text-anchor="middle" font-size="11" stroke="none">800</text>
</g>
    
<g stroke="#111" fill="#111" stroke-width="0.6" font-family="sans-serif">
  <line x1="412.0" y1="-750.0" x2="436.0" y2="-750.0" stroke-width="0.4" stroke="#666"/>
  <line x1="412.0" y1="0.0" x2="436.0" y2="0.0" stroke-width="0.4" stroke="#666"/>
  <line x1="428.0" y1="-750.0" x2="428.0" y2="0.0" marker-start="url(#arr-side)" marker-end="url(#arr-side)"/>
  <text x="434.0" y="-375.0" text-anchor="start" dominant-baseline="middle" font-size="11" stroke="none">750</text>
</g>
  </g></g>
  <g transform="translate(0, 1052)"><g transform="translate(840.0, 522.0)">
    <rect x="-832.0" y="-514.0" width="1664.0" height="1046.0" fill="none" stroke="#222" stroke-width="1"/>
    
<line x1="-832.0" y1="-482.0" x2="832.0" y2="-482.0" stroke="#222" stroke-width="0.6"/>
<text x="-822.0" y="-492.0" font-size="13" font-weight="700" fill="#111" font-family="sans-serif">俯視圖</text>
<text x="-750.0" y="-492.0" font-size="10" fill="#666" font-family="sans-serif">TOP VIEW</text>
    
<g stroke="#888" stroke-width="0.5" stroke-dasharray="8 2 2 2" opacity="0.7">
  <line x1="0" y1="-410.0" x2="0" y2="410.0"/>
  <line x1="-760.0" y1="0.0" x2="760.0" y2="0.0"/>
</g>
    <rect x="-750.0" y="-400.0" width="1500.0" height="800.0" fill="none" stroke="#999" stroke-dasharray="3 3" stroke-width="0.5" opacity="0.8"/>
    <rect x="-12.5" y="-362.0" width="25.0" height="724.0" fill="none" stroke="#888" stroke-width="0.5" stroke-dasharray="4 3"/>
<rect x="-680.0" y="-379.0" width="1360.0" height="28.0" fill="none" stroke="#888" stroke-width="0.5" stroke-dasharray="4 3"/>
<rect x="-680.0" y="351.0" width="1360.0" height="28.0" fill="none" stroke="#888" stroke-width="0.5" stroke-dasharray="4 3"/>
<rect x="-729.0" y="-330.0" width="28.0" height="660.0" fill="none" stroke="#888" stroke-width="0.5" stroke-dasharray="4 3"/>
<rect x="701.0" y="-330.0" width="28.0" height="660.0" fill="none" stroke="#888" stroke-width="0.5" stroke-dasharray="4 3"/>
<rect x="-750.0" y="-400.0" width="70.0" height="70.0" fill="none" stroke="#888" stroke-width="0.5" stroke-dasharray="4 3"/>
<rect x="680.0" y="-400.0" width="70.0" height="70.0" fill="none" stroke="#888" stroke-width="0.5" stroke-dasharray="4 3"/>
<rect x="-750.0" y="330.0" width="70.0" height="70.0" fill="none" stroke="#888" stroke-width="0.5" stroke-dasharray="4 3"/>
<rect x="680.0" y="330.0" width="70.0" height="70.0" fill="none" stroke="#888" stroke-width="0.5" stroke-dasharray="4 3"/>
<rect x="-790.0" y="-440.0" width="1580.0" height="880.0" fill="none" stroke="#111" stroke-width="0.9"/>
    
<g stroke="#111" fill="#111" stroke-width="0.6" font-family="sans-serif">
  <line x1="-750.0" y1="412.0" x2="-750.0" y2="436.0" stroke-width="0.4" stroke="#666"/>
  <line x1="750.0" y1="412.0" x2="750.0" y2="436.0" stroke-width="0.4" stroke="#666"/>
  <line x1="-750.0" y1="428.0" x2="750.0" y2="428.0" marker-start="url(#arr-top)" marker-end="url(#arr-top)"/>
  <text x="0" y="423.0" text-anchor="middle" font-size="11" stroke="none">1500</text>
</g>
    
<g stroke="#111" fill="#111" stroke-width="0.6" font-family="sans-serif">
  <line x1="762.0" y1="-400.0" x2="786.0" y2="-400.0" stroke-width="0.4" stroke="#666"/>
  <line x1="762.0" y1="400.0" x2="786.0" y2="400.0" stroke-width="0.4" stroke="#666"/>
  <line x1="778.0" y1="-400.0" x2="778.0" y2="400.0" marker-start="url(#arr-top)" marker-end="url(#arr-top)"/>
  <text x="784.0" y="0.0" text-anchor="start" dominant-baseline="middle" font-size="11" stroke="none">800</text>
</g>
  </g></g>
</g>
</svg>