<?xml version="1.0" encoding="UTF-8"?>
<svg xmlns="http://www.w3.org/2000/svg" viewBox="-20 -50 1320 1860" width="1320" height="1860">
<rect x="-20" y="-50" width="1320" height="1860" fill="#fafaf7"/>
<text x="640" y="-10" text-anchor="middle" font-size="24" font-weight="700" fill="#111" font-family="sans-serif">餐椅</text>
<text x="640" y="12" text-anchor="middle" font-size="13" fill="#666" font-family="sans-serif">450 × 450 × 850 mm · 台灣檜木 · 12 件</text>
<g transform="translate(305, 100)">
    <rect x="-225.0" y="0" width="450.0" height="850.0" fill="none" stroke="#888" stroke-dasharray="4 3" stroke-width="0.8"/>
    <rect x="-225.0" y="400.0" width="450.0" height="25.0" fill="#d8b878" stroke="#3a2a1a" stroke-width="1.2" opacity="0.92"/>
<rect x="-225.0" y="400.0" width="35.0" height="450.0" fill="#d8b878" stroke="#3a2a1a" stroke-width="1.2" opacity="0.92"/>
<rect x="190.0" y="400.0" width="35.0" height="450.0" fill="#d8b878" stroke="#3a2a1a" stroke-width="1.2" opacity="0.92"/>
<rect x="-225.0" y="0.0" width="35.0" height="850.0" fill="#d8b878" stroke="#3a2a1a" stroke-width="1.2" opacity="0.92"/>
<rect x="190.0" y="0.0" width="35.0" height="850.0" fill="#d8b878" stroke="#3a2a1a" stroke-width="1.2" opacity="0.92"/>
<rect x="-207.5" y="470.0" width="415.0" height="20.0" fill="#d8b878" stroke="#3a2a1a" stroke-width="1.2" opacity="0.92"/>
<rect x="-207.5" y="470.0" width="415.0" height="20.0" fill="#d8b878" stroke="#3a2a1a" stroke-width="1.2" opacity="0.92"/>
<rect x="-415.0" y="470.0" width="415.0" height="20.0" fill="#d8b878" stroke="#3a2a1a" stroke-width="1.2" opacity="0.92"/>
<rect x="0.0" y="470.0" width="415.0" height="20.0" fill="#d8b878" stroke="#3a2a1a" stroke-width="1.2" opacity="0.92"/>
<rect x="-207.5" y="38.0" width="415.0" height="22.0" fill="#d8b878" stroke="#3a2a1a" stroke-width="1.2" opacity="0.92"/>
<rect x="-238.8" y="222.0" width="320.0" height="18.0" fill="#d8b878" stroke="#3a2a1a" stroke-width="1.2" opacity="0.92"/>
<rect x="-81.3" y="222.0" width="320.0" height="18.0" fill="#d8b878" stroke="#3a2a1a" stroke-width="1.2" opacity="0.92"/>
    <text x="0" y="900.0" text-anchor="middle" font-size="18" fill="#444" font-family="sans-serif">正視圖（450 × 850 mm）</text>
  </g>
<g transform="translate(975, 100)">
    <rect x="-225.0" y="0" width="450.0" height="850.0" fill="none" stroke="#888" stroke-dasharray="4 3" stroke-width="0.8"/>
    <rect x="-225.0" y="400.0" width="450.0" height="25.0" fill="#d8b878" stroke="#3a2a1a" stroke-width="1.2" opacity="0.92"/>
<rect x="-225.0" y="400.0" width="35.0" height="450.0" fill="#d8b878" stroke="#3a2a1a" stroke-width="1.2" opacity="0.92"/>
<rect x="-225.0" y="400.0" width="35.0" height="450.0" fill="#d8b878" stroke="#3a2a1a" stroke-width="1.2" opacity="0.92"/>
<rect x="190.0" y="0.0" width="35.0" height="850.0" fill="#d8b878" stroke="#3a2a1a" stroke-width="1.2" opacity="0.92"/>
<rect x="190.0" y="0.0" width="35.0" height="850.0" fill="#d8b878" stroke="#3a2a1a" stroke-width="1.2" opacity="0.92"/>
<rect x="-237.5" y="470.0" width="60.0" height="20.0" fill="#d8b878" stroke="#3a2a1a" stroke-width="1.2" opacity="0.92"/>
<rect x="177.5" y="470.0" width="60.0" height="20.0" fill="#d8b878" stroke="#3a2a1a" stroke-width="1.2" opacity="0.92"/>
<rect x="-30.0" y="470.0" width="60.0" height="20.0" fill="#d8b878" stroke="#3a2a1a" stroke-width="1.2" opacity="0.92"/>
<rect x="-30.0" y="470.0" width="60.0" height="20.0" fill="#d8b878" stroke="#3a2a1a" stroke-width="1.2" opacity="0.92"/>
<rect x="182.5" y="38.0" width="50.0" height="22.0" fill="#d8b878" stroke="#3a2a1a" stroke-width="1.2" opacity="0.92"/>
<rect x="177.5" y="222.0" width="60.0" height="18.0" fill="#d8b878" stroke="#3a2a1a" stroke-width="1.2" opacity="0.92"/>
<rect x="177.5" y="222.0" width="60.0" height="18.0" fill="#d8b878" stroke="#3a2a1a" stroke-width="1.2" opacity="0.92"/>
    <text x="0" y="900.0" text-anchor="middle" font-size="18" fill="#444" font-family="sans-serif">側視圖（450 × 850 mm）</text>
  </g>
<g transform="translate(305, 1200)">
    <rect x="-225.0" y="0" width="450.0" height="450.0" fill="none" stroke="#888" stroke-dasharray="4 3" stroke-width="0.8"/>
    <rect x="-225.0" y="-225.0" width="450.0" height="450.0" fill="#d8b878" stroke="#3a2a1a" stroke-width="1.2" opacity="0.92"/>
<rect x="-225.0" y="-225.0" width="35.0" height="35.0" fill="#d8b878" stroke="#3a2a1a" stroke-width="1.2" opacity="0.92"/>
<rect x="190.0" y="-225.0" width="35.0" height="35.0" fill="#d8b878" stroke="#3a2a1a" stroke-width="1.2" opacity="0.92"/>
<rect x="-225.0" y="190.0" width="35.0" height="35.0" fill="#d8b878" stroke="#3a2a1a" stroke-width="1.2" opacity="0.92"/>
<rect x="190.0" y="190.0" width="35.0" height="35.0" fill="#d8b878" stroke="#3a2a1a" stroke-width="1.2" opacity="0.92"/>
<rect x="-207.5" y="-237.5" width="415.0" height="60.0" fill="#d8b878" stroke="#3a2a1a" stroke-width="1.2" opacity="0.92"/>
<rect x="-207.5" y="177.5" width="415.0" height="60.0" fill="#d8b878" stroke="#3a2a1a" stroke-width="1.2" opacity="0.92"/>
<rect x="-415.0" y="-30.0" width="415.0" height="60.0" fill="#d8b878" stroke="#3a2a1a" stroke-width="1.2" opacity="0.92"/>
<rect x="0.0" y="-30.0" width="415.0" height="60.0" fill="#d8b878" stroke="#3a2a1a" stroke-width="1.2" opacity="0.92"/>
<rect x="-207.5" y="182.5" width="415.0" height="50.0" fill="#d8b878" stroke="#3a2a1a" stroke-width="1.2" opacity="0.92"/>
<rect x="-238.8" y="177.5" width="320.0" height="60.0" fill="#d8b878" stroke="#3a2a1a" stroke-width="1.2" opacity="0.92"/>
<rect x="-81.3" y="177.5" width="320.0" height="60.0" fill="#d8b878" stroke="#3a2a1a" stroke-width="1.2" opacity="0.92"/>
    <text x="0" y="500.0" text-anchor="middle" font-size="18" fill="#444" font-family="sans-serif">俯視圖（450 × 450 mm）</text>
  </g>
</svg>