<?xml version="1.0" encoding="UTF-8"?>
<svg xmlns="http://www.w3.org/2000/svg" viewBox="-20 -50 1620 2560" width="1620" height="2560">
<rect x="-20" y="-50" width="1620" height="2560" fill="#fafaf7"/>
<text x="790" y="-10" text-anchor="middle" font-size="24" font-weight="700" fill="#111" font-family="sans-serif">玻璃展示櫃</text>
<text x="790" y="12" text-anchor="middle" font-size="13" fill="#666" font-family="sans-serif">800 × 400 × 1600 mm · 台灣檜木 · 16 件</text>
<g transform="translate(480, 100)">
    <rect x="-400.0" y="0" width="800.0" height="1600.0" fill="none" stroke="#888" stroke-dasharray="4 3" stroke-width="0.8"/>
    <rect x="-400.0" y="0.0" width="800.0" height="20.0" fill="#d8b878" stroke="#3a2a1a" stroke-width="1.2" opacity="0.92"/>
<rect x="-400.0" y="1580.0" width="800.0" height="20.0" fill="#d8b878" stroke="#3a2a1a" stroke-width="1.2" opacity="0.92"/>
<rect x="-400.0" y="20.0" width="20.0" height="1560.0" fill="#d8b878" stroke="#3a2a1a" stroke-width="1.2" opacity="0.92"/>
<rect x="380.0" y="20.0" width="20.0" height="1560.0" fill="#d8b878" stroke="#3a2a1a" stroke-width="1.2" opacity="0.92"/>
<rect x="-380.0" y="1172.0" width="760.0" height="18.0" fill="#d8b878" stroke="#3a2a1a" stroke-width="1.2" opacity="0.92"/>
<rect x="-380.0" y="782.0" width="760.0" height="18.0" fill="#d8b878" stroke="#3a2a1a" stroke-width="1.2" opacity="0.92"/>
<rect x="-380.0" y="392.0" width="760.0" height="18.0" fill="#d8b878" stroke="#3a2a1a" stroke-width="1.2" opacity="0.92"/>
<rect x="-380.0" y="20.0" width="760.0" height="1560.0" fill="#d8b878" stroke="#3a2a1a" stroke-width="1.2" opacity="0.92"/>
<rect x="-318.0" y="24.0" width="256.0" height="60.0" fill="#d8b878" stroke="#3a2a1a" stroke-width="1.2" opacity="0.92"/>
<rect x="-318.0" y="1520.0" width="256.0" height="60.0" fill="#d8b878" stroke="#3a2a1a" stroke-width="1.2" opacity="0.92"/>
<rect x="-378.0" y="24.0" width="60.0" height="1556.0" fill="#d8b878" stroke="#3a2a1a" stroke-width="1.2" opacity="0.92"/>
<rect x="-62.0" y="24.0" width="60.0" height="1556.0" fill="#d8b878" stroke="#3a2a1a" stroke-width="1.2" opacity="0.92"/>
<rect x="62.0" y="24.0" width="256.0" height="60.0" fill="#d8b878" stroke="#3a2a1a" stroke-width="1.2" opacity="0.92"/>
<rect x="62.0" y="1520.0" width="256.0" height="60.0" fill="#d8b878" stroke="#3a2a1a" stroke-width="1.2" opacity="0.92"/>
<rect x="2.0" y="24.0" width="60.0" height="1556.0" fill="#d8b878" stroke="#3a2a1a" stroke-width="1.2" opacity="0.92"/>
<rect x="318.0" y="24.0" width="60.0" height="1556.0" fill="#d8b878" stroke="#3a2a1a" stroke-width="1.2" opacity="0.92"/>
    <text x="0" y="1650.0" text-anchor="middle" font-size="18" fill="#444" font-family="sans-serif">正視圖（800 × 1600 mm）</text>
  </g>
<g transform="translate(1300, 100)">
    <rect x="-200.0" y="0" width="400.0" height="1600.0" fill="none" stroke="#888" stroke-dasharray="4 3" stroke-width="0.8"/>
    <rect x="-200.0" y="0.0" width="400.0" height="20.0" fill="#d8b878" stroke="#3a2a1a" stroke-width="1.2" opacity="0.92"/>
<rect x="-200.0" y="1580.0" width="400.0" height="20.0" fill="#d8b878" stroke="#3a2a1a" stroke-width="1.2" opacity="0.92"/>
<rect x="-196.0" y="20.0" width="392.0" height="1560.0" fill="#d8b878" stroke="#3a2a1a" stroke-width="1.2" opacity="0.92"/>
<rect x="-196.0" y="20.0" width="392.0" height="1560.0" fill="#d8b878" stroke="#3a2a1a" stroke-width="1.2" opacity="0.92"/>
<rect x="-196.0" y="1172.0" width="392.0" height="18.0" fill="#d8b878" stroke="#3a2a1a" stroke-width="1.2" opacity="0.92"/>
<rect x="-196.0" y="782.0" width="392.0" height="18.0" fill="#d8b878" stroke="#3a2a1a" stroke-width="1.2" opacity="0.92"/>
<rect x="-196.0" y="392.0" width="392.0" height="18.0" fill="#d8b878" stroke="#3a2a1a" stroke-width="1.2" opacity="0.92"/>
<rect x="192.0" y="20.0" width="8.0" height="1560.0" fill="#d8b878" stroke="#3a2a1a" stroke-width="1.2" opacity="0.92"/>
<rect x="-223.0" y="24.0" width="22.0" height="60.0" fill="#d8b878" stroke="#3a2a1a" stroke-width="1.2" opacity="0.92"/>
<rect x="-223.0" y="1520.0" width="22.0" height="60.0" fill="#d8b878" stroke="#3a2a1a" stroke-width="1.2" opacity="0.92"/>
<rect x="-223.0" y="24.0" width="22.0" height="1556.0" fill="#d8b878" stroke="#3a2a1a" stroke-width="1.2" opacity="0.92"/>
<rect x="-223.0" y="24.0" width="22.0" height="1556.0" fill="#d8b878" stroke="#3a2a1a" stroke-width="1.2" opacity="0.92"/>
<rect x="-223.0" y="24.0" width="22.0" height="60.0" fill="#d8b878" stroke="#3a2a1a" stroke-width="1.2" opacity="0.92"/>
<rect x="-223.0" y="1520.0" width="22.0" height="60.0" fill="#d8b878" stroke="#3a2a1a" stroke-width="1.2" opacity="0.92"/>
<rect x="-223.0" y="24.0" width="22.0" height="1556.0" fill="#d8b878" stroke="#3a2a1a" stroke-width="1.2" opacity="0.92"/>
<rect x="-223.0" y="24.0" width="22.0" height="1556.0" fill="#d8b878" stroke="#3a2a1a" stroke-width="1.2" opacity="0.92"/>
    <text x="0" y="1650.0" text-anchor="middle" font-size="18" fill="#444" font-family="sans-serif">側視圖（400 × 1600 mm）</text>
  </g>
<g transform="translate(480, 1950)">
    <rect x="-400.0" y="0" width="800.0" height="400.0" fill="none" stroke="#888" stroke-dasharray="4 3" stroke-width="0.8"/>
    <rect x="-400.0" y="-200.0" width="800.0" height="400.0" fill="#d8b878" stroke="#3a2a1a" stroke-width="1.2" opacity="0.92"/>
<rect x="-400.0" y="-200.0" width="800.0" height="400.0" fill="#d8b878" stroke="#3a2a1a" stroke-width="1.2" opacity="0.92"/>
<rect x="-400.0" y="-196.0" width="20.0" height="392.0" fill="#d8b878" stroke="#3a2a1a" stroke-width="1.2" opacity="0.92"/>
<rect x="380.0" y="-196.0" width="20.0" height="392.0" fill="#d8b878" stroke="#3a2a1a" stroke-width="1.2" opacity="0.92"/>
<rect x="-380.0" y="-196.0" width="760.0" height="392.0" fill="#d8b878" stroke="#3a2a1a" stroke-width="1.2" opacity="0.92"/>
<rect x="-380.0" y="-196.0" width="760.0" height="392.0" fill="#d8b878" stroke="#3a2a1a" stroke-width="1.2" opacity="0.92"/>
<rect x="-380.0" y="-196.0" width="760.0" height="392.0" fill="#d8b878" stroke="#3a2a1a" stroke-width="1.2" opacity="0.92"/>
<rect x="-380.0" y="192.0" width="760.0" height="8.0" fill="#d8b878" stroke="#3a2a1a" stroke-width="1.2" opacity="0.92"/>
<rect x="-318.0" y="-223.0" width="256.0" height="22.0" fill="#d8b878" stroke="#3a2a1a" stroke-width="1.2" opacity="0.92"/>
<rect x="-318.0" y="-223.0" width="256.0" height="22.0" fill="#d8b878" stroke="#3a2a1a" stroke-width="1.2" opacity="0.92"/>
<rect x="-378.0" y="-223.0" width="60.0" height="22.0" fill="#d8b878" stroke="#3a2a1a" stroke-width="1.2" opacity="0.92"/>
<rect x="-62.0" y="-223.0" width="60.0" height="22.0" fill="#d8b878" stroke="#3a2a1a" stroke-width="1.2" opacity="0.92"/>
<rect x="62.0" y="-223.0" width="256.0" height="22.0" fill="#d8b878" stroke="#3a2a1a" stroke-width="1.2" opacity="0.92"/>
<rect x="62.0" y="-223.0" width="256.0" height="22.0" fill="#d8b878" stroke="#3a2a1a" stroke-width="1.2" opacity="0.92"/>
<rect x="2.0" y="-223.0" width="60.0" height="22.0" fill="#d8b878" stroke="#3a2a1a" stroke-width="1.2" opacity="0.92"/>
<rect x="318.0" y="-223.0" width="60.0" height="22.0" fill="#d8b878" stroke="#3a2a1a" stroke-width="1.2" opacity="0.92"/>
    <text x="0" y="450.0" text-anchor="middle" font-size="18" fill="#444" font-family="sans-serif">俯視圖（800 × 400 mm）</text>
  </g>
</svg>