<?xml version="1.0" encoding="UTF-8"?>
<svg xmlns="http://www.w3.org/2000/svg" viewBox="-20 -10 1640 2704" width="1640">
<defs><marker id="arr-front" viewBox="0 0 10 10" refX="9" refY="5" markerWidth="8" markerHeight="8" orient="auto-start-reverse"><path d="M 0 0 L 10 5 L 0 10 z" fill="#111"/></marker>
<marker id="arr-side" viewBox="0 0 10 10" refX="9" refY="5" markerWidth="8" markerHeight="8" orient="auto-start-reverse"><path d="M 0 0 L 10 5 L 0 10 z" fill="#111"/></marker>
<marker id="arr-top" viewBox="0 0 10 10" refX="9" refY="5" markerWidth="8" markerHeight="8" orient="auto-start-reverse"><path d="M 0 0 L 10 5 L 0 10 z" fill="#111"/></marker></defs>
<rect x="-20" y="-10" width="1640" height="2704" fill="#fafaf7"/>

<text x="800" y="24" text-anchor="middle" font-size="22" font-weight="700" fill="#111" font-family="sans-serif">玻璃展示櫃</text>
<text x="800" y="46" text-anchor="middle" font-size="12" fill="#666" font-family="sans-serif">800 × 400 × 1600 mm · 台灣檜木 · 20 件零件</text>
<g transform="translate(0, 70)">
  <g transform="translate(490.0, 1722.0)">
    <rect x="-482.0" y="-1714.0" width="964.0" height="1846.0" fill="none" stroke="#222" stroke-width="1"/>
    
<line x1="-482.0" y1="-1682.0" x2="482.0" y2="-1682.0" stroke="#222" stroke-width="0.6"/>
<text x="-472.0" y="-1692.0" font-size="13" font-weight="700" fill="#111" font-family="sans-serif">正視圖</text>
<text x="-400.0" y="-1692.0" font-size="10" fill="#666" font-family="sans-serif">FRONT VIEW</text>
    
<g stroke="#888" stroke-width="0.5" stroke-dasharray="8 2 2 2" opacity="0.7">
  <line x1="0" y1="-1610.0" x2="0" y2="10.0"/>
  <line x1="-410.0" y1="-800.0" x2="410.0" y2="-800.0"/>
</g>
    <rect x="-400.0" y="-1600.0" width="800.0" height="1600.0" fill="none" stroke="#999" stroke-dasharray="3 3" stroke-width="0.5" opacity="0.8"/>
    <rect x="-380.0" y="-1580.0" width="760.0" height="1460.0" fill="none" stroke="#111" stroke-width="0.9"/>
<polygon points="-400.0,-100.0 -365.0,-100.0 -372.9,0.0 -392.1,0.0" fill="none" stroke="#888" stroke-width="0.5" stroke-dasharray="4 3"/>
<polygon points="365.0,-100.0 400.0,-100.0 392.1,0.0 372.9,0.0" fill="none" stroke="#888" stroke-width="0.5" stroke-dasharray="4 3"/>
<rect x="-400.0" y="-1580.0" width="20.0" height="1460.0" fill="none" stroke="#111" stroke-width="0.9"/>
<rect x="380.0" y="-1580.0" width="20.0" height="1460.0" fill="none" stroke="#111" stroke-width="0.9"/>
<rect x="-380.0" y="-503.0" width="760.0" height="18.0" fill="none" stroke="#111" stroke-width="0.9"/>
<rect x="-380.0" y="-868.0" width="760.0" height="18.0" fill="none" stroke="#111" stroke-width="0.9"/>
<rect x="-380.0" y="-1233.0" width="760.0" height="18.0" fill="none" stroke="#111" stroke-width="0.9"/>
<polygon points="-400.0,-100.0 -365.0,-100.0 -372.9,0.0 -392.1,0.0" fill="none" stroke="#111" stroke-width="0.9"/>
<polygon points="365.0,-100.0 400.0,-100.0 392.1,0.0 372.9,0.0" fill="none" stroke="#111" stroke-width="0.9"/>
<rect x="-400.0" y="-1600.0" width="800.0" height="20.0" fill="none" stroke="#111" stroke-width="0.9"/>
<rect x="-400.0" y="-120.0" width="800.0" height="20.0" fill="none" stroke="#111" stroke-width="0.9"/>
<rect x="-318.0" y="-1576.0" width="256.0" height="60.0" fill="none" stroke="#111" stroke-width="0.9"/>
<rect x="-318.0" y="-180.0" width="256.0" height="60.0" fill="none" stroke="#111" stroke-width="0.9"/>
<rect x="-378.0" y="-1576.0" width="60.0" height="1456.0" fill="none" stroke="#111" stroke-width="0.9"/>
<rect x="-62.0" y="-1576.0" width="60.0" height="1456.0" fill="none" stroke="#111" stroke-width="0.9"/>
<rect x="62.0" y="-1576.0" width="256.0" height="60.0" fill="none" stroke="#111" stroke-width="0.9"/>
<rect x="62.0" y="-180.0" width="256.0" height="60.0" fill="none" stroke="#111" stroke-width="0.9"/>
<rect x="2.0" y="-1576.0" width="60.0" height="1456.0" fill="none" stroke="#111" stroke-width="0.9"/>
<rect x="318.0" y="-1576.0" width="60.0" height="1456.0" fill="none" stroke="#111" stroke-width="0.9"/>
    
<g stroke="#111" fill="#111" stroke-width="0.6" font-family="sans-serif">
  <line x1="-400.0" y1="12.0" x2="-400.0" y2="36.0" stroke-width="0.4" stroke="#666"/>
  <line x1="400.0" y1="12.0" x2="400.0" y2="36.0" stroke-width="0.4" stroke="#666"/>
  <line x1="-400.0" y1="28.0" x2="400.0" y2="28.0" marker-start="url(#arr-front)" marker-end="url(#arr-front)"/>
  <text x="0" y="23.0" text-anchor="middle" font-size="11" stroke="none">800</text>
</g>
    
<g stroke="#111" fill="#111" stroke-width="0.6" font-family="sans-serif">
  <line x1="412.0" y1="-1600.0" x2="436.0" y2="-1600.0" stroke-width="0.4" stroke="#666"/>
  <line x1="412.0" y1="0.0" x2="436.0" y2="0.0" stroke-width="0.4" stroke="#666"/>
  <line x1="428.0" y1="-1600.0" x2="428.0" y2="0.0" marker-start="url(#arr-front)" marker-end="url(#arr-front)"/>
  <text x="434.0" y="-800.0" text-anchor="start" dominant-baseline="middle" font-size="11" stroke="none">1600</text>
</g>
  </g>
  <g transform="translate(1020, 0)"><g transform="translate(290.0, 1722.0)">
    <rect x="-282.0" y="-1714.0" width="564.0" height="1846.0" fill="none" stroke="#222" stroke-width="1"/>
    
<line x1="-282.0" y1="-1682.0" x2="282.0" y2="-1682.0" stroke="#222" stroke-width="0.6"/>
<text x="-272.0" y="-1692.0" font-size="13" font-weight="700" fill="#111" font-family="sans-serif">側視圖</text>
<text x="-200.0" y="-1692.0" font-size="10" fill="#666" font-family="sans-serif">SIDE VIEW</text>
    
<g stroke="#888" stroke-width="0.5" stroke-dasharray="8 2 2 2" opacity="0.7">
  <line x1="0" y1="-1610.0" x2="0" y2="10.0"/>
  <line x1="-210.0" y1="-800.0" x2="210.0" y2="-800.0"/>
</g>
    <rect x="-200.0" y="-1600.0" width="400.0" height="1600.0" fill="none" stroke="#999" stroke-dasharray="3 3" stroke-width="0.5" opacity="0.8"/>
    <rect x="-196.0" y="-1580.0" width="392.0" height="1460.0" fill="none" stroke="#888" stroke-width="0.5" stroke-dasharray="4 3"/>
<polygon points="-200.0,-100.0 -165.0,-100.0 -172.9,0.0 -192.1,0.0" fill="none" stroke="#888" stroke-width="0.5" stroke-dasharray="4 3"/>
<polygon points="165.0,-100.0 200.0,-100.0 192.1,0.0 172.9,0.0" fill="none" stroke="#888" stroke-width="0.5" stroke-dasharray="4 3"/>
<rect x="-223.0" y="-1576.0" width="22.0" height="1456.0" fill="none" stroke="#888" stroke-width="0.5" stroke-dasharray="4 3"/>
<rect x="-223.0" y="-1576.0" width="22.0" height="60.0" fill="none" stroke="#888" stroke-width="0.5" stroke-dasharray="4 3"/>
<rect x="-223.0" y="-180.0" width="22.0" height="60.0" fill="none" stroke="#888" stroke-width="0.5" stroke-dasharray="4 3"/>
<rect x="-223.0" y="-1576.0" width="22.0" height="1456.0" fill="none" stroke="#888" stroke-width="0.5" stroke-dasharray="4 3"/>
<rect x="-223.0" y="-1576.0" width="22.0" height="1456.0" fill="none" stroke="#888" stroke-width="0.5" stroke-dasharray="4 3"/>
<rect x="-223.0" y="-1576.0" width="22.0" height="60.0" fill="none" stroke="#888" stroke-width="0.5" stroke-dasharray="4 3"/>
<rect x="-223.0" y="-180.0" width="22.0" height="60.0" fill="none" stroke="#888" stroke-width="0.5" stroke-dasharray="4 3"/>
<rect x="-223.0" y="-1576.0" width="22.0" height="1456.0" fill="none" stroke="#111" stroke-width="0.9"/>
<rect x="-196.0" y="-503.0" width="392.0" height="18.0" fill="none" stroke="#888" stroke-width="0.5" stroke-dasharray="4 3"/>
<rect x="-196.0" y="-868.0" width="392.0" height="18.0" fill="none" stroke="#888" stroke-width="0.5" stroke-dasharray="4 3"/>
<rect x="-196.0" y="-1233.0" width="392.0" height="18.0" fill="none" stroke="#888" stroke-width="0.5" stroke-dasharray="4 3"/>
<rect x="192.0" y="-1580.0" width="8.0" height="1460.0" fill="none" stroke="#111" stroke-width="0.9"/>
<polygon points="-200.0,-100.0 -165.0,-100.0 -172.9,0.0 -192.1,0.0" fill="none" stroke="#111" stroke-width="0.9"/>
<polygon points="165.0,-100.0 200.0,-100.0 192.1,0.0 172.9,0.0" fill="none" stroke="#111" stroke-width="0.9"/>
<rect x="-200.0" y="-1600.0" width="400.0" height="20.0" fill="none" stroke="#111" stroke-width="0.9"/>
<rect x="-200.0" y="-120.0" width="400.0" height="20.0" fill="none" stroke="#111" stroke-width="0.9"/>
<rect x="-196.0" y="-1580.0" width="392.0" height="1460.0" fill="none" stroke="#111" stroke-width="0.9"/>
    
<g stroke="#111" fill="#111" stroke-width="0.6" font-family="sans-serif">
  <line x1="-200.0" y1="12.0" x2="-200.0" y2="36.0" stroke-width="0.4" stroke="#666"/>
  <line x1="200.0" y1="12.0" x2="200.0" y2="36.0" stroke-width="0.4" stroke="#666"/>
  <line x1="-200.0" y1="28.0" x2="200.0" y2="28.0" marker-start="url(#arr-side)" marker-end="url(#arr-side)"/>
  <text x="0" y="23.0" text-anchor="middle" font-size="11" stroke="none">400</text>
</g>
    
<g stroke="#111" fill="#111" stroke-width="0.6" font-family="sans-serif">
  <line x1="212.0" y1="-1600.0" x2="236.0" y2="-1600.0" stroke-width="0.4" stroke="#666"/>
  <line x1="212.0" y1="0.0" x2="236.0" y2="0.0" stroke-width="0.4" stroke="#666"/>
  <line x1="228.0" y1="-1600.0" x2="228.0" y2="0.0" marker-start="url(#arr-side)" marker-end="url(#arr-side)"/>
  <text x="234.0" y="-800.0" text-anchor="start" dominant-baseline="middle" font-size="11" stroke="none">1600</text>
</g>
  </g></g>
  <g transform="translate(0, 1902)"><g transform="translate(490.0, 322.0)">
    <rect x="-482.0" y="-314.0" width="964.0" height="646.0" fill="none" stroke="#222" stroke-width="1"/>
    
<line x1="-482.0" y1="-282.0" x2="482.0" y2="-282.0" stroke="#222" stroke-width="0.6"/>
<text x="-472.0" y="-292.0" font-size="13" font-weight="700" fill="#111" font-family="sans-serif">俯視圖</text>
<text x="-400.0" y="-292.0" font-size="10" fill="#666" font-family="sans-serif">TOP VIEW</text>
    
<g stroke="#888" stroke-width="0.5" stroke-dasharray="8 2 2 2" opacity="0.7">
  <line x1="0" y1="-210.0" x2="0" y2="210.0"/>
  <line x1="-410.0" y1="0.0" x2="410.0" y2="0.0"/>
</g>
    <rect x="-400.0" y="-200.0" width="800.0" height="400.0" fill="none" stroke="#999" stroke-dasharray="3 3" stroke-width="0.5" opacity="0.8"/>
    <rect x="-400.0" y="-200.0" width="35.0" height="35.0" fill="none" stroke="#888" stroke-width="0.5" stroke-dasharray="4 3"/>
<rect x="-400.0" y="165.0" width="35.0" height="35.0" fill="none" stroke="#888" stroke-width="0.5" stroke-dasharray="4 3"/>
<rect x="365.0" y="-200.0" width="35.0" height="35.0" fill="none" stroke="#888" stroke-width="0.5" stroke-dasharray="4 3"/>
<rect x="365.0" y="165.0" width="35.0" height="35.0" fill="none" stroke="#888" stroke-width="0.5" stroke-dasharray="4 3"/>
<rect x="-400.0" y="-200.0" width="800.0" height="400.0" fill="none" stroke="#888" stroke-width="0.5" stroke-dasharray="4 3"/>
<rect x="-318.0" y="-223.0" width="256.0" height="22.0" fill="none" stroke="#888" stroke-width="0.5" stroke-dasharray="4 3"/>
<rect x="62.0" y="-223.0" width="256.0" height="22.0" fill="none" stroke="#888" stroke-width="0.5" stroke-dasharray="4 3"/>
<rect x="-380.0" y="-196.0" width="760.0" height="392.0" fill="none" stroke="#888" stroke-width="0.5" stroke-dasharray="4 3"/>
<rect x="-380.0" y="-196.0" width="760.0" height="392.0" fill="none" stroke="#888" stroke-width="0.5" stroke-dasharray="4 3"/>
<rect x="-380.0" y="-196.0" width="760.0" height="392.0" fill="none" stroke="#888" stroke-width="0.5" stroke-dasharray="4 3"/>
<rect x="-318.0" y="-223.0" width="256.0" height="22.0" fill="none" stroke="#111" stroke-width="0.9"/>
<rect x="-378.0" y="-223.0" width="60.0" height="22.0" fill="none" stroke="#111" stroke-width="0.9"/>
<rect x="-62.0" y="-223.0" width="60.0" height="22.0" fill="none" stroke="#111" stroke-width="0.9"/>
<rect x="62.0" y="-223.0" width="256.0" height="22.0" fill="none" stroke="#111" stroke-width="0.9"/>
<rect x="2.0" y="-223.0" width="60.0" height="22.0" fill="none" stroke="#111" stroke-width="0.9"/>
<rect x="318.0" y="-223.0" width="60.0" height="22.0" fill="none" stroke="#111" stroke-width="0.9"/>
<rect x="-400.0" y="-196.0" width="20.0" height="392.0" fill="none" stroke="#888" stroke-width="0.5" stroke-dasharray="4 3"/>
<rect x="380.0" y="-196.0" width="20.0" height="392.0" fill="none" stroke="#888" stroke-width="0.5" stroke-dasharray="4 3"/>
<rect x="-380.0" y="192.0" width="760.0" height="8.0" fill="none" stroke="#888" stroke-width="0.5" stroke-dasharray="4 3"/>
<rect x="-400.0" y="-200.0" width="800.0" height="400.0" fill="none" stroke="#111" stroke-width="0.9"/>
    
<g stroke="#111" fill="#111" stroke-width="0.6" font-family="sans-serif">
  <line x1="-400.0" y1="212.0" x2="-400.0" y2="236.0" stroke-width="0.4" stroke="#666"/>
  <line x1="400.0" y1="212.0" x2="400.0" y2="236.0" stroke-width="0.4" stroke="#666"/>
  <line x1="-400.0" y1="228.0" x2="400.0" y2="228.0" marker-start="url(#arr-top)" marker-end="url(#arr-top)"/>
  <text x="0" y="223.0" text-anchor="middle" font-size="11" stroke="none">800</text>
</g>
    
<g stroke="#111" fill="#111" stroke-width="0.6" font-family="sans-serif">
  <line x1="412.0" y1="-200.0" x2="436.0" y2="-200.0" stroke-width="0.4" stroke="#666"/>
  <line x1="412.0" y1="200.0" x2="436.0" y2="200.0" stroke-width="0.4" stroke="#666"/>
  <line x1="428.0" y1="-200.0" x2="428.0" y2="200.0" marker-start="url(#arr-top)" marker-end="url(#arr-top)"/>
  <text x="434.0" y="0.0" text-anchor="start" dominant-baseline="middle" font-size="11" stroke="none">400</text>
</g>
  </g></g>
</g>
</svg>