<?xml version="1.0" encoding="UTF-8"?>
<svg xmlns="http://www.w3.org/2000/svg" viewBox="-20 -10 840 934" width="840">
<defs><marker id="arr-front" viewBox="0 0 10 10" refX="9" refY="5" markerWidth="8" markerHeight="8" orient="auto-start-reverse"><path d="M 0 0 L 10 5 L 0 10 z" fill="#111"/></marker>
<marker id="arr-side" viewBox="0 0 10 10" refX="9" refY="5" markerWidth="8" markerHeight="8" orient="auto-start-reverse"><path d="M 0 0 L 10 5 L 0 10 z" fill="#111"/></marker>
<marker id="arr-top" viewBox="0 0 10 10" refX="9" refY="5" markerWidth="8" markerHeight="8" orient="auto-start-reverse"><path d="M 0 0 L 10 5 L 0 10 z" fill="#111"/></marker></defs>
<rect x="-20" y="-10" width="840" height="934" fill="#fafaf7"/>

<text x="400" y="24" text-anchor="middle" font-size="22" font-weight="700" fill="#111" font-family="sans-serif">鳩尾盒</text>
<text x="400" y="46" text-anchor="middle" font-size="12" fill="#666" font-family="sans-serif">250 × 150 × 80 mm · 台灣檜木 · 6 件零件</text>
<g transform="translate(0, 70)">
  <g transform="translate(215.0, 202.0)">
    <rect x="-207.0" y="-194.0" width="414.0" height="326.0" fill="none" stroke="#222" stroke-width="1"/>
    
<line x1="-207.0" y1="-162.0" x2="207.0" y2="-162.0" stroke="#222" stroke-width="0.6"/>
<text x="-197.0" y="-172.0" font-size="13" font-weight="700" fill="#111" font-family="sans-serif">正視圖</text>
<text x="-125.0" y="-172.0" font-size="10" fill="#666" font-family="sans-serif">FRONT VIEW</text>
    
<g stroke="#888" stroke-width="0.5" stroke-dasharray="8 2 2 2" opacity="0.7">
  <line x1="0" y1="-90.0" x2="0" y2="10.0"/>
  <line x1="-135.0" y1="-40.0" x2="135.0" y2="-40.0"/>
</g>
    <rect x="-125.0" y="-80.0" width="250.0" height="80.0" fill="none" stroke="#999" stroke-dasharray="3 3" stroke-width="0.5" opacity="0.8"/>
    <rect x="-125.0" y="-68.0" width="250.0" height="60.0" fill="none" stroke="#888" stroke-width="0.5" stroke-dasharray="4 3"/>
<rect x="113.0" y="-68.0" width="12.0" height="60.0" fill="none" stroke="#888" stroke-width="0.5" stroke-dasharray="4 3"/>
<rect x="-125.0" y="-68.0" width="12.0" height="60.0" fill="none" stroke="#888" stroke-width="0.5" stroke-dasharray="4 3"/>
<rect x="-121.0" y="-8.0" width="242.0" height="8.0" fill="none" stroke="#111" stroke-width="0.9"/>
<rect x="-125.0" y="-68.0" width="250.0" height="60.0" fill="none" stroke="#111" stroke-width="0.9"/>
<rect x="-125.0" y="-80.0" width="250.0" height="12.0" fill="none" stroke="#111" stroke-width="0.9"/>
    
<g stroke="#111" fill="#111" stroke-width="0.6" font-family="sans-serif">
  <line x1="-125.0" y1="12.0" x2="-125.0" y2="36.0" stroke-width="0.4" stroke="#666"/>
  <line x1="125.0" y1="12.0" x2="125.0" y2="36.0" stroke-width="0.4" stroke="#666"/>
  <line x1="-125.0" y1="28.0" x2="125.0" y2="28.0" marker-start="url(#arr-front)" marker-end="url(#arr-front)"/>
  <text x="0" y="23.0" text-anchor="middle" font-size="11" stroke="none">250</text>
</g>
    
<g stroke="#111" fill="#111" stroke-width="0.6" font-family="sans-serif">
  <line x1="137.0" y1="-80.0" x2="161.0" y2="-80.0" stroke-width="0.4" stroke="#666"/>
  <line x1="137.0" y1="0.0" x2="161.0" y2="0.0" stroke-width="0.4" stroke="#666"/>
  <line x1="153.0" y1="-80.0" x2="153.0" y2="0.0" marker-start="url(#arr-front)" marker-end="url(#arr-front)"/>
  <text x="159.0" y="-40.0" text-anchor="start" dominant-baseline="middle" font-size="11" stroke="none">80</text>
</g>
  </g>
  <g transform="translate(470, 0)"><g transform="translate(165.0, 202.0)">
    <rect x="-157.0" y="-194.0" width="314.0" height="326.0" fill="none" stroke="#222" stroke-width="1"/>
    
<line x1="-157.0" y1="-162.0" x2="157.0" y2="-162.0" stroke="#222" stroke-width="0.6"/>
<text x="-147.0" y="-172.0" font-size="13" font-weight="700" fill="#111" font-family="sans-serif">側視圖</text>
<text x="-75.0" y="-172.0" font-size="10" fill="#666" font-family="sans-serif">SIDE VIEW</text>
    
<g stroke="#888" stroke-width="0.5" stroke-dasharray="8 2 2 2" opacity="0.7">
  <line x1="0" y1="-90.0" x2="0" y2="10.0"/>
  <line x1="-85.0" y1="-40.0" x2="85.0" y2="-40.0"/>
</g>
    <rect x="-75.0" y="-80.0" width="150.0" height="80.0" fill="none" stroke="#999" stroke-dasharray="3 3" stroke-width="0.5" opacity="0.8"/>
    <rect x="-63.0" y="-68.0" width="126.0" height="60.0" fill="none" stroke="#888" stroke-width="0.5" stroke-dasharray="4 3"/>
<rect x="-71.0" y="-8.0" width="142.0" height="8.0" fill="none" stroke="#111" stroke-width="0.9"/>
<rect x="-75.0" y="-68.0" width="12.0" height="60.0" fill="none" stroke="#111" stroke-width="0.9"/>
<rect x="63.0" y="-68.0" width="12.0" height="60.0" fill="none" stroke="#111" stroke-width="0.9"/>
<rect x="-63.0" y="-68.0" width="126.0" height="60.0" fill="none" stroke="#111" stroke-width="0.9"/>
<rect x="-75.0" y="-80.0" width="150.0" height="12.0" fill="none" stroke="#111" stroke-width="0.9"/>
    
<g stroke="#111" fill="#111" stroke-width="0.6" font-family="sans-serif">
  <line x1="-75.0" y1="12.0" x2="-75.0" y2="36.0" stroke-width="0.4" stroke="#666"/>
  <line x1="75.0" y1="12.0" x2="75.0" y2="36.0" stroke-width="0.4" stroke="#666"/>
  <line x1="-75.0" y1="28.0" x2="75.0" y2="28.0" marker-start="url(#arr-side)" marker-end="url(#arr-side)"/>
  <text x="0" y="23.0" text-anchor="middle" font-size="11" stroke="none">150</text>
</g>
    
<g stroke="#111" fill="#111" stroke-width="0.6" font-family="sans-serif">
  <line x1="87.0" y1="-80.0" x2="111.0" y2="-80.0" stroke-width="0.4" stroke="#666"/>
  <line x1="87.0" y1="0.0" x2="111.0" y2="0.0" stroke-width="0.4" stroke="#666"/>
  <line x1="103.0" y1="-80.0" x2="103.0" y2="0.0" marker-start="url(#arr-side)" marker-end="url(#arr-side)"/>
  <text x="109.0" y="-40.0" text-anchor="start" dominant-baseline="middle" font-size="11" stroke="none">80</text>
</g>
  </g></g>
  <g transform="translate(0, 382)"><g transform="translate(215.0, 197.0)">
    <rect x="-207.0" y="-189.0" width="414.0" height="396.0" fill="none" stroke="#222" stroke-width="1"/>
    
<line x1="-207.0" y1="-157.0" x2="207.0" y2="-157.0" stroke="#222" stroke-width="0.6"/>
<text x="-197.0" y="-167.0" font-size="13" font-weight="700" fill="#111" font-family="sans-serif">俯視圖</text>
<text x="-125.0" y="-167.0" font-size="10" fill="#666" font-family="sans-serif">TOP VIEW</text>
    
<g stroke="#888" stroke-width="0.5" stroke-dasharray="8 2 2 2" opacity="0.7">
  <line x1="0" y1="-85.0" x2="0" y2="85.0"/>
  <line x1="-135.0" y1="0.0" x2="135.0" y2="0.0"/>
</g>
    <rect x="-125.0" y="-75.0" width="250.0" height="150.0" fill="none" stroke="#999" stroke-dasharray="3 3" stroke-width="0.5" opacity="0.8"/>
    <rect x="-121.0" y="-71.0" width="242.0" height="142.0" fill="none" stroke="#888" stroke-width="0.5" stroke-dasharray="4 3"/>
<rect x="-125.0" y="-75.0" width="250.0" height="12.0" fill="none" stroke="#888" stroke-width="0.5" stroke-dasharray="4 3"/>
<rect x="-125.0" y="63.0" width="250.0" height="12.0" fill="none" stroke="#888" stroke-width="0.5" stroke-dasharray="4 3"/>
<rect x="113.0" y="-63.0" width="12.0" height="126.0" fill="none" stroke="#888" stroke-width="0.5" stroke-dasharray="4 3"/>
<rect x="-125.0" y="-63.0" width="12.0" height="126.0" fill="none" stroke="#888" stroke-width="0.5" stroke-dasharray="4 3"/>
<rect x="-125.0" y="-75.0" width="250.0" height="150.0" fill="none" stroke="#111" stroke-width="0.9"/>
    
<g stroke="#111" fill="#111" stroke-width="0.6" font-family="sans-serif">
  <line x1="-125.0" y1="87.0" x2="-125.0" y2="111.0" stroke-width="0.4" stroke="#666"/>
  <line x1="125.0" y1="87.0" x2="125.0" y2="111.0" stroke-width="0.4" stroke="#666"/>
  <line x1="-125.0" y1="103.0" x2="125.0" y2="103.0" marker-start="url(#arr-top)" marker-end="url(#arr-top)"/>
  <text x="0" y="98.0" text-anchor="middle" font-size="11" stroke="none">250</text>
</g>
    
<g stroke="#111" fill="#111" stroke-width="0.6" font-family="sans-serif">
  <line x1="137.0" y1="-75.0" x2="161.0" y2="-75.0" stroke-width="0.4" stroke="#666"/>
  <line x1="137.0" y1="75.0" x2="161.0" y2="75.0" stroke-width="0.4" stroke="#666"/>
  <line x1="153.0" y1="-75.0" x2="153.0" y2="75.0" marker-start="url(#arr-top)" marker-end="url(#arr-top)"/>
  <text x="159.0" y="0.0" text-anchor="start" dominant-baseline="middle" font-size="11" stroke="none">150</text>
</g>
  </g></g>
</g>
</svg>