<?xml version="1.0" encoding="UTF-8"?>
<svg xmlns="http://www.w3.org/2000/svg" viewBox="-20 -10 2040 1654" width="2040">
<defs><marker id="arr-front" viewBox="0 0 10 10" refX="9" refY="5" markerWidth="8" markerHeight="8" orient="auto-start-reverse"><path d="M 0 0 L 10 5 L 0 10 z" fill="#111"/></marker>
<marker id="arr-side" viewBox="0 0 10 10" refX="9" refY="5" markerWidth="8" markerHeight="8" orient="auto-start-reverse"><path d="M 0 0 L 10 5 L 0 10 z" fill="#111"/></marker>
<marker id="arr-top" viewBox="0 0 10 10" refX="9" refY="5" markerWidth="8" markerHeight="8" orient="auto-start-reverse"><path d="M 0 0 L 10 5 L 0 10 z" fill="#111"/></marker></defs>
<rect x="-20" y="-10" width="2040" height="1654" fill="#fafaf7"/>

<text x="1000" y="24" text-anchor="middle" font-size="22" font-weight="700" fill="#111" font-family="sans-serif">矮桌</text>
<text x="1000" y="46" text-anchor="middle" font-size="12" fill="#666" font-family="sans-serif">1000 × 600 × 350 mm · 台灣檜木 · 10 件零件</text>
<g transform="translate(0, 70)">
  <g transform="translate(590.0, 472.0)">
    <rect x="-582.0" y="-464.0" width="1164.0" height="596.0" fill="none" stroke="#222" stroke-width="1"/>
    
<line x1="-582.0" y1="-432.0" x2="582.0" y2="-432.0" stroke="#222" stroke-width="0.6"/>
<text x="-572.0" y="-442.0" font-size="13" font-weight="700" fill="#111" font-family="sans-serif">正視圖</text>
<text x="-500.0" y="-442.0" font-size="10" fill="#666" font-family="sans-serif">FRONT VIEW</text>
    
<g stroke="#888" stroke-width="0.5" stroke-dasharray="8 2 2 2" opacity="0.7">
  <line x1="0" y1="-360.0" x2="0" y2="10.0"/>
  <line x1="-510.0" y1="-175.0" x2="510.0" y2="-175.0"/>
</g>
    <rect x="-500.0" y="-350.0" width="1000.0" height="350.0" fill="none" stroke="#999" stroke-dasharray="3 3" stroke-width="0.5" opacity="0.8"/>
    <rect x="-455.0" y="-302.0" width="910.0" height="70.0" fill="none" stroke="#888" stroke-width="0.5" stroke-dasharray="4 3"/>
<rect x="-500.0" y="-322.0" width="45.0" height="322.0" fill="none" stroke="#888" stroke-width="0.5" stroke-dasharray="4 3"/>
<rect x="455.0" y="-322.0" width="45.0" height="322.0" fill="none" stroke="#888" stroke-width="0.5" stroke-dasharray="4 3"/>
<rect x="-488.5" y="-302.0" width="22.0" height="70.0" fill="none" stroke="#888" stroke-width="0.5" stroke-dasharray="4 3"/>
<rect x="466.5" y="-302.0" width="22.0" height="70.0" fill="none" stroke="#888" stroke-width="0.5" stroke-dasharray="4 3"/>
<rect x="-12.5" y="-252.0" width="25.0" height="50.0" fill="none" stroke="#111" stroke-width="0.9"/>
<rect x="-455.0" y="-302.0" width="910.0" height="70.0" fill="none" stroke="#111" stroke-width="0.9"/>
<rect x="-500.0" y="-322.0" width="45.0" height="322.0" fill="none" stroke="#111" stroke-width="0.9"/>
<rect x="455.0" y="-322.0" width="45.0" height="322.0" fill="none" stroke="#111" stroke-width="0.9"/>
<rect x="-520.0" y="-350.0" width="1040.0" height="28.0" fill="none" stroke="#111" stroke-width="0.9"/>
    
<g stroke="#111" fill="#111" stroke-width="0.6" font-family="sans-serif">
  <line x1="-500.0" y1="12.0" x2="-500.0" y2="36.0" stroke-width="0.4" stroke="#666"/>
  <line x1="500.0" y1="12.0" x2="500.0" y2="36.0" stroke-width="0.4" stroke="#666"/>
  <line x1="-500.0" y1="28.0" x2="500.0" y2="28.0" marker-start="url(#arr-front)" marker-end="url(#arr-front)"/>
  <text x="0" y="23.0" text-anchor="middle" font-size="11" stroke="none">1000</text>
</g>
    
<g stroke="#111" fill="#111" stroke-width="0.6" font-family="sans-serif">
  <line x1="512.0" y1="-350.0" x2="536.0" y2="-350.0" stroke-width="0.4" stroke="#666"/>
  <line x1="512.0" y1="0.0" x2="536.0" y2="0.0" stroke-width="0.4" stroke="#666"/>
  <line x1="528.0" y1="-350.0" x2="528.0" y2="0.0" marker-start="url(#arr-front)" marker-end="url(#arr-front)"/>
  <text x="534.0" y="-175.0" text-anchor="start" dominant-baseline="middle" font-size="11" stroke="none">350</text>
</g>
  </g>
  <g transform="translate(1220, 0)"><g transform="translate(390.0, 472.0)">
    <rect x="-382.0" y="-464.0" width="764.0" height="596.0" fill="none" stroke="#222" stroke-width="1"/>
    
<line x1="-382.0" y1="-432.0" x2="382.0" y2="-432.0" stroke="#222" stroke-width="0.6"/>
<text x="-372.0" y="-442.0" font-size="13" font-weight="700" fill="#111" font-family="sans-serif">側視圖</text>
<text x="-300.0" y="-442.0" font-size="10" fill="#666" font-family="sans-serif">SIDE VIEW</text>
    
<g stroke="#888" stroke-width="0.5" stroke-dasharray="8 2 2 2" opacity="0.7">
  <line x1="0" y1="-360.0" x2="0" y2="10.0"/>
  <line x1="-310.0" y1="-175.0" x2="310.0" y2="-175.0"/>
</g>
    <rect x="-300.0" y="-350.0" width="600.0" height="350.0" fill="none" stroke="#999" stroke-dasharray="3 3" stroke-width="0.5" opacity="0.8"/>
    <rect x="-255.0" y="-302.0" width="510.0" height="70.0" fill="none" stroke="#888" stroke-width="0.5" stroke-dasharray="4 3"/>
<rect x="-300.0" y="-322.0" width="45.0" height="322.0" fill="none" stroke="#888" stroke-width="0.5" stroke-dasharray="4 3"/>
<rect x="255.0" y="-322.0" width="45.0" height="322.0" fill="none" stroke="#888" stroke-width="0.5" stroke-dasharray="4 3"/>
<rect x="-268.0" y="-252.0" width="536.0" height="50.0" fill="none" stroke="#111" stroke-width="0.9"/>
<rect x="-288.5" y="-302.0" width="22.0" height="70.0" fill="none" stroke="#888" stroke-width="0.5" stroke-dasharray="4 3"/>
<rect x="266.5" y="-302.0" width="22.0" height="70.0" fill="none" stroke="#888" stroke-width="0.5" stroke-dasharray="4 3"/>
<rect x="-255.0" y="-302.0" width="510.0" height="70.0" fill="none" stroke="#111" stroke-width="0.9"/>
<rect x="-300.0" y="-322.0" width="45.0" height="322.0" fill="none" stroke="#111" stroke-width="0.9"/>
<rect x="255.0" y="-322.0" width="45.0" height="322.0" fill="none" stroke="#111" stroke-width="0.9"/>
<rect x="-320.0" y="-350.0" width="640.0" height="28.0" fill="none" stroke="#111" stroke-width="0.9"/>
    
<g stroke="#111" fill="#111" stroke-width="0.6" font-family="sans-serif">
  <line x1="-300.0" y1="12.0" x2="-300.0" y2="36.0" stroke-width="0.4" stroke="#666"/>
  <line x1="300.0" y1="12.0" x2="300.0" y2="36.0" stroke-width="0.4" stroke="#666"/>
  <line x1="-300.0" y1="28.0" x2="300.0" y2="28.0" marker-start="url(#arr-side)" marker-end="url(#arr-side)"/>
  <text x="0" y="23.0" text-anchor="middle" font-size="11" stroke="none">600</text>
</g>
    
<g stroke="#111" fill="#111" stroke-width="0.6" font-family="sans-serif">
  <line x1="312.0" y1="-350.0" x2="336.0" y2="-350.0" stroke-width="0.4" stroke="#666"/>
  <line x1="312.0" y1="0.0" x2="336.0" y2="0.0" stroke-width="0.4" stroke="#666"/>
  <line x1="328.0" y1="-350.0" x2="328.0" y2="0.0" marker-start="url(#arr-side)" marker-end="url(#arr-side)"/>
  <text x="334.0" y="-175.0" text-anchor="start" dominant-baseline="middle" font-size="11" stroke="none">350</text>
</g>
  </g></g>
  <g transform="translate(0, 652)"><g transform="translate(590.0, 422.0)">
    <rect x="-582.0" y="-414.0" width="1164.0" height="846.0" fill="none" stroke="#222" stroke-width="1"/>
    
<line x1="-582.0" y1="-382.0" x2="582.0" y2="-382.0" stroke="#222" stroke-width="0.6"/>
<text x="-572.0" y="-392.0" font-size="13" font-weight="700" fill="#111" font-family="sans-serif">俯視圖</text>
<text x="-500.0" y="-392.0" font-size="10" fill="#666" font-family="sans-serif">TOP VIEW</text>
    
<g stroke="#888" stroke-width="0.5" stroke-dasharray="8 2 2 2" opacity="0.7">
  <line x1="0" y1="-310.0" x2="0" y2="310.0"/>
  <line x1="-510.0" y1="0.0" x2="510.0" y2="0.0"/>
</g>
    <rect x="-500.0" y="-300.0" width="1000.0" height="600.0" fill="none" stroke="#999" stroke-dasharray="3 3" stroke-width="0.5" opacity="0.8"/>
    <rect x="-12.5" y="-268.0" width="25.0" height="536.0" fill="none" stroke="#888" stroke-width="0.5" stroke-dasharray="4 3"/>
<rect x="-455.0" y="-288.5" width="910.0" height="22.0" fill="none" stroke="#888" stroke-width="0.5" stroke-dasharray="4 3"/>
<rect x="-455.0" y="266.5" width="910.0" height="22.0" fill="none" stroke="#888" stroke-width="0.5" stroke-dasharray="4 3"/>
<rect x="-488.5" y="-255.0" width="22.0" height="510.0" fill="none" stroke="#888" stroke-width="0.5" stroke-dasharray="4 3"/>
<rect x="466.5" y="-255.0" width="22.0" height="510.0" fill="none" stroke="#888" stroke-width="0.5" stroke-dasharray="4 3"/>
<rect x="-500.0" y="-300.0" width="45.0" height="45.0" fill="none" stroke="#888" stroke-width="0.5" stroke-dasharray="4 3"/>
<rect x="455.0" y="-300.0" width="45.0" height="45.0" fill="none" stroke="#888" stroke-width="0.5" stroke-dasharray="4 3"/>
<rect x="-500.0" y="255.0" width="45.0" height="45.0" fill="none" stroke="#888" stroke-width="0.5" stroke-dasharray="4 3"/>
<rect x="455.0" y="255.0" width="45.0" height="45.0" fill="none" stroke="#888" stroke-width="0.5" stroke-dasharray="4 3"/>
<rect x="-520.0" y="-320.0" width="1040.0" height="640.0" fill="none" stroke="#111" stroke-width="0.9"/>
    
<g stroke="#111" fill="#111" stroke-width="0.6" font-family="sans-serif">
  <line x1="-500.0" y1="312.0" x2="-500.0" y2="336.0" stroke-width="0.4" stroke="#666"/>
  <line x1="500.0" y1="312.0" x2="500.0" y2="336.0" stroke-width="0.4" stroke="#666"/>
  <line x1="-500.0" y1="328.0" x2="500.0" y2="328.0" marker-start="url(#arr-top)" marker-end="url(#arr-top)"/>
  <text x="0" y="323.0" text-anchor="middle" font-size="11" stroke="none">1000</text>
</g>
    
<g stroke="#111" fill="#111" stroke-width="0.6" font-family="sans-serif">
  <line x1="512.0" y1="-300.0" x2="536.0" y2="-300.0" stroke-width="0.4" stroke="#666"/>
  <line x1="512.0" y1="300.0" x2="536.0" y2="300.0" stroke-width="0.4" stroke="#666"/>
  <line x1="528.0" y1="-300.0" x2="528.0" y2="300.0" marker-start="url(#arr-top)" marker-end="url(#arr-top)"/>
  <text x="534.0" y="0.0" text-anchor="start" dominant-baseline="middle" font-size="11" stroke="none">600</text>
</g>
  </g></g>
</g>
</svg>