<?xml version="1.0" encoding="UTF-8"?>
<svg xmlns="http://www.w3.org/2000/svg" viewBox="-20 -10 2340 1604" width="2340">
<defs><marker id="arr-front" viewBox="0 0 10 10" refX="9" refY="5" markerWidth="8" markerHeight="8" orient="auto-start-reverse"><path d="M 0 0 L 10 5 L 0 10 z" fill="#111"/></marker>
<marker id="arr-side" viewBox="0 0 10 10" refX="9" refY="5" markerWidth="8" markerHeight="8" orient="auto-start-reverse"><path d="M 0 0 L 10 5 L 0 10 z" fill="#111"/></marker>
<marker id="arr-top" viewBox="0 0 10 10" refX="9" refY="5" markerWidth="8" markerHeight="8" orient="auto-start-reverse"><path d="M 0 0 L 10 5 L 0 10 z" fill="#111"/></marker></defs>
<rect x="-20" y="-10" width="2340" height="1604" fill="#fafaf7"/>

<text x="1150" y="24" text-anchor="middle" font-size="22" font-weight="700" fill="#111" font-family="sans-serif">電視櫃</text>
<text x="1150" y="46" text-anchor="middle" font-size="12" fill="#666" font-family="sans-serif">1500 × 400 × 500 mm · 台灣檜木 · 26 件零件</text>
<g transform="translate(0, 70)">
  <g transform="translate(840.0, 622.0)">
    <rect x="-832.0" y="-614.0" width="1664.0" height="746.0" fill="none" stroke="#222" stroke-width="1"/>
    
<line x1="-832.0" y1="-582.0" x2="832.0" y2="-582.0" stroke="#222" stroke-width="0.6"/>
<text x="-822.0" y="-592.0" font-size="13" font-weight="700" fill="#111" font-family="sans-serif">正視圖</text>
<text x="-750.0" y="-592.0" font-size="10" fill="#666" font-family="sans-serif">FRONT VIEW</text>
    
<g stroke="#888" stroke-width="0.5" stroke-dasharray="8 2 2 2" opacity="0.7">
  <line x1="0" y1="-510.0" x2="0" y2="10.0"/>
  <line x1="-760.0" y1="-250.0" x2="760.0" y2="-250.0"/>
</g>
    <rect x="-750.0" y="-500.0" width="1500.0" height="500.0" fill="none" stroke="#999" stroke-dasharray="3 3" stroke-width="0.5" opacity="0.8"/>
    <rect x="-750.0" y="-500.0" width="1500.0" height="350.0" fill="none" stroke="#111" stroke-width="0.9"/>
<rect x="11.0" y="-328.0" width="719.0" height="158.0" fill="none" stroke="#888" stroke-width="0.5" stroke-dasharray="4 3"/>
<rect x="-730.0" y="-328.0" width="719.0" height="158.0" fill="none" stroke="#888" stroke-width="0.5" stroke-dasharray="4 3"/>
<polygon points="710.0,-150.0 750.0,-150.0 741.0,0.0 719.0,0.0" fill="none" stroke="#888" stroke-width="0.5" stroke-dasharray="4 3"/>
<polygon points="-750.0,-150.0 -710.0,-150.0 -719.0,0.0 -741.0,0.0" fill="none" stroke="#888" stroke-width="0.5" stroke-dasharray="4 3"/>
<rect x="716.0" y="-328.0" width="14.0" height="158.0" fill="none" stroke="#888" stroke-width="0.5" stroke-dasharray="4 3"/>
<rect x="11.0" y="-328.0" width="14.0" height="158.0" fill="none" stroke="#888" stroke-width="0.5" stroke-dasharray="4 3"/>
<rect x="-25.0" y="-328.0" width="14.0" height="158.0" fill="none" stroke="#888" stroke-width="0.5" stroke-dasharray="4 3"/>
<rect x="-730.0" y="-328.0" width="14.0" height="158.0" fill="none" stroke="#888" stroke-width="0.5" stroke-dasharray="4 3"/>
<rect x="11.0" y="-170.0" width="719.0" height="3.0" fill="none" stroke="#888" stroke-width="0.5" stroke-dasharray="4 3"/>
<rect x="-730.0" y="-170.0" width="719.0" height="3.0" fill="none" stroke="#888" stroke-width="0.5" stroke-dasharray="4 3"/>
<rect x="11.0" y="-328.0" width="719.0" height="158.0" fill="none" stroke="#888" stroke-width="0.5" stroke-dasharray="4 3"/>
<rect x="-730.0" y="-328.0" width="719.0" height="158.0" fill="none" stroke="#888" stroke-width="0.5" stroke-dasharray="4 3"/>
<polygon points="710.0,-150.0 750.0,-150.0 741.0,0.0 719.0,0.0" fill="none" stroke="#111" stroke-width="0.9"/>
<polygon points="-750.0,-150.0 -710.0,-150.0 -719.0,0.0 -741.0,0.0" fill="none" stroke="#111" stroke-width="0.9"/>
<rect x="-750.0" y="-500.0" width="1500.0" height="18.0" fill="none" stroke="#111" stroke-width="0.9"/>
<rect x="-750.0" y="-168.0" width="1500.0" height="18.0" fill="none" stroke="#111" stroke-width="0.9"/>
<rect x="732.0" y="-482.0" width="18.0" height="314.0" fill="none" stroke="#111" stroke-width="0.9"/>
<rect x="-750.0" y="-482.0" width="18.0" height="314.0" fill="none" stroke="#111" stroke-width="0.9"/>
<rect x="-9.0" y="-330.0" width="18.0" height="162.0" fill="none" stroke="#111" stroke-width="0.9"/>
<rect x="-732.0" y="-348.0" width="1464.0" height="18.0" fill="none" stroke="#111" stroke-width="0.9"/>
<rect x="-732.0" y="-415.0" width="1464.0" height="18.0" fill="none" stroke="#111" stroke-width="0.9"/>
<rect x="1.0" y="-335.0" width="747.0" height="183.0" fill="none" stroke="#111" stroke-width="0.9"/>
<rect x="-748.0" y="-335.0" width="747.0" height="183.0" fill="none" stroke="#111" stroke-width="0.9"/>
<rect x="359.5" y="-258.5" width="30.0" height="30.0" fill="none" stroke="#111" stroke-width="0.9"/>
<rect x="-389.5" y="-258.5" width="30.0" height="30.0" fill="none" stroke="#111" stroke-width="0.9"/>
    
<g stroke="#111" fill="#111" stroke-width="0.6" font-family="sans-serif">
  <line x1="-750.0" y1="12.0" x2="-750.0" y2="36.0" stroke-width="0.4" stroke="#666"/>
  <line x1="750.0" y1="12.0" x2="750.0" y2="36.0" stroke-width="0.4" stroke="#666"/>
  <line x1="-750.0" y1="28.0" x2="750.0" y2="28.0" marker-start="url(#arr-front)" marker-end="url(#arr-front)"/>
  <text x="0" y="23.0" text-anchor="middle" font-size="11" stroke="none">1500</text>
</g>
    
<g stroke="#111" fill="#111" stroke-width="0.6" font-family="sans-serif">
  <line x1="762.0" y1="-500.0" x2="786.0" y2="-500.0" stroke-width="0.4" stroke="#666"/>
  <line x1="762.0" y1="0.0" x2="786.0" y2="0.0" stroke-width="0.4" stroke="#666"/>
  <line x1="778.0" y1="-500.0" x2="778.0" y2="0.0" marker-start="url(#arr-front)" marker-end="url(#arr-front)"/>
  <text x="784.0" y="-250.0" text-anchor="start" dominant-baseline="middle" font-size="11" stroke="none">500</text>
</g>
  </g>
  <g transform="translate(1720, 0)"><g transform="translate(290.0, 622.0)">
    <rect x="-282.0" y="-614.0" width="564.0" height="746.0" fill="none" stroke="#222" stroke-width="1"/>
    
<line x1="-282.0" y1="-582.0" x2="282.0" y2="-582.0" stroke="#222" stroke-width="0.6"/>
<text x="-272.0" y="-592.0" font-size="13" font-weight="700" fill="#111" font-family="sans-serif">側視圖</text>
<text x="-200.0" y="-592.0" font-size="10" fill="#666" font-family="sans-serif">SIDE VIEW</text>
    
<g stroke="#888" stroke-width="0.5" stroke-dasharray="8 2 2 2" opacity="0.7">
  <line x1="0" y1="-510.0" x2="0" y2="10.0"/>
  <line x1="-210.0" y1="-250.0" x2="210.0" y2="-250.0"/>
</g>
    <rect x="-200.0" y="-500.0" width="400.0" height="500.0" fill="none" stroke="#999" stroke-dasharray="3 3" stroke-width="0.5" opacity="0.8"/>
    <rect x="-200.0" y="-482.0" width="400.0" height="314.0" fill="none" stroke="#888" stroke-width="0.5" stroke-dasharray="4 3"/>
<rect x="-181.0" y="-328.0" width="364.0" height="158.0" fill="none" stroke="#888" stroke-width="0.5" stroke-dasharray="4 3"/>
<polygon points="-200.0,-150.0 -160.0,-150.0 -169.0,0.0 -191.0,0.0" fill="none" stroke="#888" stroke-width="0.5" stroke-dasharray="4 3"/>
<polygon points="160.0,-150.0 200.0,-150.0 191.0,0.0 169.0,0.0" fill="none" stroke="#888" stroke-width="0.5" stroke-dasharray="4 3"/>
<rect x="-248.5" y="-258.5" width="25.0" height="30.0" fill="none" stroke="#888" stroke-width="0.5" stroke-dasharray="4 3"/>
<rect x="-199.0" y="-328.0" width="18.0" height="158.0" fill="none" stroke="#888" stroke-width="0.5" stroke-dasharray="4 3"/>
<rect x="183.0" y="-328.0" width="12.0" height="158.0" fill="none" stroke="#888" stroke-width="0.5" stroke-dasharray="4 3"/>
<rect x="-181.0" y="-328.0" width="364.0" height="158.0" fill="none" stroke="#888" stroke-width="0.5" stroke-dasharray="4 3"/>
<rect x="-197.5" y="-170.0" width="394.0" height="3.0" fill="none" stroke="#888" stroke-width="0.5" stroke-dasharray="4 3"/>
<rect x="-223.0" y="-335.0" width="22.0" height="183.0" fill="none" stroke="#888" stroke-width="0.5" stroke-dasharray="4 3"/>
<rect x="-200.0" y="-330.0" width="400.0" height="162.0" fill="none" stroke="#888" stroke-width="0.5" stroke-dasharray="4 3"/>
<rect x="-181.0" y="-328.0" width="364.0" height="158.0" fill="none" stroke="#888" stroke-width="0.5" stroke-dasharray="4 3"/>
<rect x="-248.5" y="-258.5" width="25.0" height="30.0" fill="none" stroke="#111" stroke-width="0.9"/>
<rect x="-199.0" y="-328.0" width="18.0" height="158.0" fill="none" stroke="#888" stroke-width="0.5" stroke-dasharray="4 3"/>
<rect x="183.0" y="-328.0" width="12.0" height="158.0" fill="none" stroke="#888" stroke-width="0.5" stroke-dasharray="4 3"/>
<rect x="-181.0" y="-328.0" width="364.0" height="158.0" fill="none" stroke="#888" stroke-width="0.5" stroke-dasharray="4 3"/>
<rect x="-197.5" y="-170.0" width="394.0" height="3.0" fill="none" stroke="#111" stroke-width="0.9"/>
<rect x="-200.0" y="-348.0" width="400.0" height="18.0" fill="none" stroke="#888" stroke-width="0.5" stroke-dasharray="4 3"/>
<rect x="-200.0" y="-415.0" width="400.0" height="18.0" fill="none" stroke="#888" stroke-width="0.5" stroke-dasharray="4 3"/>
<rect x="-223.0" y="-335.0" width="22.0" height="183.0" fill="none" stroke="#111" stroke-width="0.9"/>
<polygon points="-200.0,-150.0 -160.0,-150.0 -169.0,0.0 -191.0,0.0" fill="none" stroke="#111" stroke-width="0.9"/>
<polygon points="160.0,-150.0 200.0,-150.0 191.0,0.0 169.0,0.0" fill="none" stroke="#111" stroke-width="0.9"/>
<rect x="-200.0" y="-500.0" width="400.0" height="18.0" fill="none" stroke="#111" stroke-width="0.9"/>
<rect x="-200.0" y="-168.0" width="400.0" height="18.0" fill="none" stroke="#111" stroke-width="0.9"/>
<rect x="-200.0" y="-482.0" width="400.0" height="314.0" fill="none" stroke="#111" stroke-width="0.9"/>
<rect x="200.0" y="-500.0" width="3.0" height="350.0" fill="none" stroke="#111" stroke-width="0.9"/>
    
<g stroke="#111" fill="#111" stroke-width="0.6" font-family="sans-serif">
  <line x1="-200.0" y1="12.0" x2="-200.0" y2="36.0" stroke-width="0.4" stroke="#666"/>
  <line x1="200.0" y1="12.0" x2="200.0" y2="36.0" stroke-width="0.4" stroke="#666"/>
  <line x1="-200.0" y1="28.0" x2="200.0" y2="28.0" marker-start="url(#arr-side)" marker-end="url(#arr-side)"/>
  <text x="0" y="23.0" text-anchor="middle" font-size="11" stroke="none">400</text>
</g>
    
<g stroke="#111" fill="#111" stroke-width="0.6" font-family="sans-serif">
  <line x1="212.0" y1="-500.0" x2="236.0" y2="-500.0" stroke-width="0.4" stroke="#666"/>
  <line x1="212.0" y1="0.0" x2="236.0" y2="0.0" stroke-width="0.4" stroke="#666"/>
  <line x1="228.0" y1="-500.0" x2="228.0" y2="0.0" marker-start="url(#arr-side)" marker-end="url(#arr-side)"/>
  <text x="234.0" y="-250.0" text-anchor="start" dominant-baseline="middle" font-size="11" stroke="none">500</text>
</g>
  </g></g>
  <g transform="translate(0, 802)"><g transform="translate(840.0, 322.0)">
    <rect x="-832.0" y="-314.0" width="1664.0" height="646.0" fill="none" stroke="#222" stroke-width="1"/>
    
<line x1="-832.0" y1="-282.0" x2="832.0" y2="-282.0" stroke="#222" stroke-width="0.6"/>
<text x="-822.0" y="-292.0" font-size="13" font-weight="700" fill="#111" font-family="sans-serif">俯視圖</text>
<text x="-750.0" y="-292.0" font-size="10" fill="#666" font-family="sans-serif">TOP VIEW</text>
    
<g stroke="#888" stroke-width="0.5" stroke-dasharray="8 2 2 2" opacity="0.7">
  <line x1="0" y1="-210.0" x2="0" y2="210.0"/>
  <line x1="-760.0" y1="0.0" x2="760.0" y2="0.0"/>
</g>
    <rect x="-750.0" y="-200.0" width="1500.0" height="400.0" fill="none" stroke="#999" stroke-dasharray="3 3" stroke-width="0.5" opacity="0.8"/>
    <rect x="710.0" y="-200.0" width="40.0" height="40.0" fill="none" stroke="#888" stroke-width="0.5" stroke-dasharray="4 3"/>
<rect x="710.0" y="160.0" width="40.0" height="40.0" fill="none" stroke="#888" stroke-width="0.5" stroke-dasharray="4 3"/>
<rect x="-750.0" y="-200.0" width="40.0" height="40.0" fill="none" stroke="#888" stroke-width="0.5" stroke-dasharray="4 3"/>
<rect x="-750.0" y="160.0" width="40.0" height="40.0" fill="none" stroke="#888" stroke-width="0.5" stroke-dasharray="4 3"/>
<rect x="-750.0" y="-200.0" width="1500.0" height="400.0" fill="none" stroke="#888" stroke-width="0.5" stroke-dasharray="4 3"/>
<rect x="11.0" y="-197.5" width="719.0" height="394.0" fill="none" stroke="#888" stroke-width="0.5" stroke-dasharray="4 3"/>
<rect x="-730.0" y="-197.5" width="719.0" height="394.0" fill="none" stroke="#888" stroke-width="0.5" stroke-dasharray="4 3"/>
<rect x="359.5" y="-248.5" width="30.0" height="25.0" fill="none" stroke="#111" stroke-width="0.9"/>
<rect x="-389.5" y="-248.5" width="30.0" height="25.0" fill="none" stroke="#111" stroke-width="0.9"/>
<rect x="11.0" y="-199.0" width="719.0" height="18.0" fill="none" stroke="#888" stroke-width="0.5" stroke-dasharray="4 3"/>
<rect x="11.0" y="183.0" width="719.0" height="12.0" fill="none" stroke="#888" stroke-width="0.5" stroke-dasharray="4 3"/>
<rect x="716.0" y="-181.0" width="14.0" height="364.0" fill="none" stroke="#888" stroke-width="0.5" stroke-dasharray="4 3"/>
<rect x="11.0" y="-181.0" width="14.0" height="364.0" fill="none" stroke="#888" stroke-width="0.5" stroke-dasharray="4 3"/>
<rect x="-730.0" y="-199.0" width="719.0" height="18.0" fill="none" stroke="#888" stroke-width="0.5" stroke-dasharray="4 3"/>
<rect x="-730.0" y="183.0" width="719.0" height="12.0" fill="none" stroke="#888" stroke-width="0.5" stroke-dasharray="4 3"/>
<rect x="-25.0" y="-181.0" width="14.0" height="364.0" fill="none" stroke="#888" stroke-width="0.5" stroke-dasharray="4 3"/>
<rect x="-730.0" y="-181.0" width="14.0" height="364.0" fill="none" stroke="#888" stroke-width="0.5" stroke-dasharray="4 3"/>
<rect x="-9.0" y="-200.0" width="18.0" height="400.0" fill="none" stroke="#888" stroke-width="0.5" stroke-dasharray="4 3"/>
<rect x="1.0" y="-223.0" width="747.0" height="22.0" fill="none" stroke="#111" stroke-width="0.9"/>
<rect x="-748.0" y="-223.0" width="747.0" height="22.0" fill="none" stroke="#111" stroke-width="0.9"/>
<rect x="-732.0" y="-200.0" width="1464.0" height="400.0" fill="none" stroke="#888" stroke-width="0.5" stroke-dasharray="4 3"/>
<rect x="-732.0" y="-200.0" width="1464.0" height="400.0" fill="none" stroke="#888" stroke-width="0.5" stroke-dasharray="4 3"/>
<rect x="732.0" y="-200.0" width="18.0" height="400.0" fill="none" stroke="#888" stroke-width="0.5" stroke-dasharray="4 3"/>
<rect x="-750.0" y="-200.0" width="18.0" height="400.0" fill="none" stroke="#888" stroke-width="0.5" stroke-dasharray="4 3"/>
<rect x="-750.0" y="-200.0" width="1500.0" height="400.0" fill="none" stroke="#111" stroke-width="0.9"/>
<rect x="-750.0" y="200.0" width="1500.0" height="3.0" fill="none" stroke="#111" stroke-width="0.9"/>
    
<g stroke="#111" fill="#111" stroke-width="0.6" font-family="sans-serif">
  <line x1="-750.0" y1="212.0" x2="-750.0" y2="236.0" stroke-width="0.4" stroke="#666"/>
  <line x1="750.0" y1="212.0" x2="750.0" y2="236.0" stroke-width="0.4" stroke="#666"/>
  <line x1="-750.0" y1="228.0" x2="750.0" y2="228.0" marker-start="url(#arr-top)" marker-end="url(#arr-top)"/>
  <text x="0" y="223.0" text-anchor="middle" font-size="11" stroke="none">1500</text>
</g>
    
<g stroke="#111" fill="#111" stroke-width="0.6" font-family="sans-serif">
  <line x1="762.0" y1="-200.0" x2="786.0" y2="-200.0" stroke-width="0.4" stroke="#666"/>
  <line x1="762.0" y1="200.0" x2="786.0" y2="200.0" stroke-width="0.4" stroke="#666"/>
  <line x1="778.0" y1="-200.0" x2="778.0" y2="200.0" marker-start="url(#arr-top)" marker-end="url(#arr-top)"/>
  <text x="784.0" y="0.0" text-anchor="start" dominant-baseline="middle" font-size="11" stroke="none">400</text>
</g>
  </g></g>
</g>
</svg>