<?xml version="1.0" encoding="UTF-8"?>
<svg xmlns="http://www.w3.org/2000/svg" viewBox="-20 -10 1270 1684" width="1270">
<defs><marker id="arr-front" viewBox="0 0 10 10" refX="9" refY="5" markerWidth="8" markerHeight="8" orient="auto-start-reverse"><path d="M 0 0 L 10 5 L 0 10 z" fill="#111"/></marker>
<marker id="arr-side" viewBox="0 0 10 10" refX="9" refY="5" markerWidth="8" markerHeight="8" orient="auto-start-reverse"><path d="M 0 0 L 10 5 L 0 10 z" fill="#111"/></marker>
<marker id="arr-top" viewBox="0 0 10 10" refX="9" refY="5" markerWidth="8" markerHeight="8" orient="auto-start-reverse"><path d="M 0 0 L 10 5 L 0 10 z" fill="#111"/></marker></defs>
<rect x="-20" y="-10" width="1270" height="1684" fill="#fafaf7"/>

<text x="615" y="24" text-anchor="middle" font-size="22" font-weight="700" fill="#111" font-family="sans-serif">床頭櫃</text>
<text x="615" y="46" text-anchor="middle" font-size="12" fill="#666" font-family="sans-serif">450 × 380 × 600 mm · 台灣檜木 · 15 件零件</text>
<g transform="translate(0, 70)">
  <g transform="translate(315.0, 722.0)">
    <rect x="-307.0" y="-714.0" width="614.0" height="846.0" fill="none" stroke="#222" stroke-width="1"/>
    
<line x1="-307.0" y1="-682.0" x2="307.0" y2="-682.0" stroke="#222" stroke-width="0.6"/>
<text x="-297.0" y="-692.0" font-size="13" font-weight="700" fill="#111" font-family="sans-serif">正視圖</text>
<text x="-225.0" y="-692.0" font-size="10" fill="#666" font-family="sans-serif">FRONT VIEW</text>
    
<g stroke="#888" stroke-width="0.5" stroke-dasharray="8 2 2 2" opacity="0.7">
  <line x1="0" y1="-610.0" x2="0" y2="10.0"/>
  <line x1="-235.0" y1="-300.0" x2="235.0" y2="-300.0"/>
</g>
    <rect x="-225.0" y="-600.0" width="450.0" height="600.0" fill="none" stroke="#999" stroke-dasharray="3 3" stroke-width="0.5" opacity="0.8"/>
    <rect x="-207.0" y="-582.0" width="414.0" height="444.0" fill="none" stroke="#111" stroke-width="0.9"/>
<rect x="-205.0" y="-312.0" width="410.0" height="162.0" fill="none" stroke="#888" stroke-width="0.5" stroke-dasharray="4 3"/>
<rect x="-225.0" y="-120.0" width="35.0" height="120.0" fill="none" stroke="#888" stroke-width="0.5" stroke-dasharray="4 3"/>
<rect x="190.0" y="-120.0" width="35.0" height="120.0" fill="none" stroke="#888" stroke-width="0.5" stroke-dasharray="4 3"/>
<rect x="-193.0" y="-153.0" width="386.0" height="6.0" fill="none" stroke="#111" stroke-width="0.9"/>
<rect x="-207.0" y="-314.0" width="14.0" height="172.0" fill="none" stroke="#111" stroke-width="0.9"/>
<rect x="193.0" y="-314.0" width="14.0" height="172.0" fill="none" stroke="#111" stroke-width="0.9"/>
<rect x="-225.0" y="-582.0" width="18.0" height="444.0" fill="none" stroke="#111" stroke-width="0.9"/>
<rect x="207.0" y="-582.0" width="18.0" height="444.0" fill="none" stroke="#111" stroke-width="0.9"/>
<rect x="-207.0" y="-378.0" width="414.0" height="18.0" fill="none" stroke="#111" stroke-width="0.9"/>
<rect x="-205.0" y="-314.0" width="410.0" height="172.0" fill="none" stroke="#111" stroke-width="0.9"/>
<rect x="-225.0" y="-120.0" width="35.0" height="120.0" fill="none" stroke="#111" stroke-width="0.9"/>
<rect x="190.0" y="-120.0" width="35.0" height="120.0" fill="none" stroke="#111" stroke-width="0.9"/>
<rect x="-225.0" y="-600.0" width="450.0" height="18.0" fill="none" stroke="#111" stroke-width="0.9"/>
<rect x="-225.0" y="-138.0" width="450.0" height="18.0" fill="none" stroke="#111" stroke-width="0.9"/>
    
<g stroke="#111" fill="#111" stroke-width="0.6" font-family="sans-serif">
  <line x1="-225.0" y1="12.0" x2="-225.0" y2="36.0" stroke-width="0.4" stroke="#666"/>
  <line x1="225.0" y1="12.0" x2="225.0" y2="36.0" stroke-width="0.4" stroke="#666"/>
  <line x1="-225.0" y1="28.0" x2="225.0" y2="28.0" marker-start="url(#arr-front)" marker-end="url(#arr-front)"/>
  <text x="0" y="23.0" text-anchor="middle" font-size="11" stroke="none">450</text>
</g>
    
<g stroke="#111" fill="#111" stroke-width="0.6" font-family="sans-serif">
  <line x1="237.0" y1="-600.0" x2="261.0" y2="-600.0" stroke-width="0.4" stroke="#666"/>
  <line x1="237.0" y1="0.0" x2="261.0" y2="0.0" stroke-width="0.4" stroke="#666"/>
  <line x1="253.0" y1="-600.0" x2="253.0" y2="0.0" marker-start="url(#arr-front)" marker-end="url(#arr-front)"/>
  <text x="259.0" y="-300.0" text-anchor="start" dominant-baseline="middle" font-size="11" stroke="none">600</text>
</g>
  </g>
  <g transform="translate(670, 0)"><g transform="translate(280.0, 722.0)">
    <rect x="-272.0" y="-714.0" width="544.0" height="846.0" fill="none" stroke="#222" stroke-width="1"/>
    
<line x1="-272.0" y1="-682.0" x2="272.0" y2="-682.0" stroke="#222" stroke-width="0.6"/>
<text x="-262.0" y="-692.0" font-size="13" font-weight="700" fill="#111" font-family="sans-serif">側視圖</text>
<text x="-190.0" y="-692.0" font-size="10" fill="#666" font-family="sans-serif">SIDE VIEW</text>
    
<g stroke="#888" stroke-width="0.5" stroke-dasharray="8 2 2 2" opacity="0.7">
  <line x1="0" y1="-610.0" x2="0" y2="10.0"/>
  <line x1="-200.0" y1="-300.0" x2="200.0" y2="-300.0"/>
</g>
    <rect x="-190.0" y="-600.0" width="380.0" height="600.0" fill="none" stroke="#999" stroke-dasharray="3 3" stroke-width="0.5" opacity="0.8"/>
    <rect x="-187.0" y="-582.0" width="374.0" height="444.0" fill="none" stroke="#888" stroke-width="0.5" stroke-dasharray="4 3"/>
<rect x="-185.5" y="-314.0" width="364.0" height="172.0" fill="none" stroke="#888" stroke-width="0.5" stroke-dasharray="4 3"/>
<rect x="-190.0" y="-120.0" width="35.0" height="120.0" fill="none" stroke="#888" stroke-width="0.5" stroke-dasharray="4 3"/>
<rect x="155.0" y="-120.0" width="35.0" height="120.0" fill="none" stroke="#888" stroke-width="0.5" stroke-dasharray="4 3"/>
<rect x="-174.5" y="-153.0" width="342.0" height="6.0" fill="none" stroke="#888" stroke-width="0.5" stroke-dasharray="4 3"/>
<rect x="-189.0" y="-314.0" width="18.0" height="172.0" fill="none" stroke="#111" stroke-width="0.9"/>
<rect x="167.0" y="-312.0" width="12.0" height="162.0" fill="none" stroke="#888" stroke-width="0.5" stroke-dasharray="4 3"/>
<rect x="-187.0" y="-378.0" width="374.0" height="18.0" fill="none" stroke="#888" stroke-width="0.5" stroke-dasharray="4 3"/>
<rect x="184.0" y="-582.0" width="6.0" height="444.0" fill="none" stroke="#111" stroke-width="0.9"/>
<rect x="-185.5" y="-314.0" width="364.0" height="172.0" fill="none" stroke="#888" stroke-width="0.5" stroke-dasharray="4 3"/>
<rect x="-190.0" y="-120.0" width="35.0" height="120.0" fill="none" stroke="#111" stroke-width="0.9"/>
<rect x="155.0" y="-120.0" width="35.0" height="120.0" fill="none" stroke="#111" stroke-width="0.9"/>
<rect x="-190.0" y="-600.0" width="380.0" height="18.0" fill="none" stroke="#111" stroke-width="0.9"/>
<rect x="-190.0" y="-138.0" width="380.0" height="18.0" fill="none" stroke="#111" stroke-width="0.9"/>
<rect x="-187.0" y="-582.0" width="374.0" height="444.0" fill="none" stroke="#111" stroke-width="0.9"/>
    
<g stroke="#111" fill="#111" stroke-width="0.6" font-family="sans-serif">
  <line x1="-190.0" y1="12.0" x2="-190.0" y2="36.0" stroke-width="0.4" stroke="#666"/>
  <line x1="190.0" y1="12.0" x2="190.0" y2="36.0" stroke-width="0.4" stroke="#666"/>
  <line x1="-190.0" y1="28.0" x2="190.0" y2="28.0" marker-start="url(#arr-side)" marker-end="url(#arr-side)"/>
  <text x="0" y="23.0" text-anchor="middle" font-size="11" stroke="none">380</text>
</g>
    
<g stroke="#111" fill="#111" stroke-width="0.6" font-family="sans-serif">
  <line x1="202.0" y1="-600.0" x2="226.0" y2="-600.0" stroke-width="0.4" stroke="#666"/>
  <line x1="202.0" y1="0.0" x2="226.0" y2="0.0" stroke-width="0.4" stroke="#666"/>
  <line x1="218.0" y1="-600.0" x2="218.0" y2="0.0" marker-start="url(#arr-side)" marker-end="url(#arr-side)"/>
  <text x="224.0" y="-300.0" text-anchor="start" dominant-baseline="middle" font-size="11" stroke="none">600</text>
</g>
  </g></g>
  <g transform="translate(0, 902)"><g transform="translate(315.0, 312.0)">
    <rect x="-307.0" y="-304.0" width="614.0" height="626.0" fill="none" stroke="#222" stroke-width="1"/>
    
<line x1="-307.0" y1="-272.0" x2="307.0" y2="-272.0" stroke="#222" stroke-width="0.6"/>
<text x="-297.0" y="-282.0" font-size="13" font-weight="700" fill="#111" font-family="sans-serif">俯視圖</text>
<text x="-225.0" y="-282.0" font-size="10" fill="#666" font-family="sans-serif">TOP VIEW</text>
    
<g stroke="#888" stroke-width="0.5" stroke-dasharray="8 2 2 2" opacity="0.7">
  <line x1="0" y1="-200.0" x2="0" y2="200.0"/>
  <line x1="-235.0" y1="0.0" x2="235.0" y2="0.0"/>
</g>
    <rect x="-225.0" y="-190.0" width="450.0" height="380.0" fill="none" stroke="#999" stroke-dasharray="3 3" stroke-width="0.5" opacity="0.8"/>
    <rect x="-225.0" y="-190.0" width="35.0" height="35.0" fill="none" stroke="#888" stroke-width="0.5" stroke-dasharray="4 3"/>
<rect x="-225.0" y="155.0" width="35.0" height="35.0" fill="none" stroke="#888" stroke-width="0.5" stroke-dasharray="4 3"/>
<rect x="190.0" y="-190.0" width="35.0" height="35.0" fill="none" stroke="#888" stroke-width="0.5" stroke-dasharray="4 3"/>
<rect x="190.0" y="155.0" width="35.0" height="35.0" fill="none" stroke="#888" stroke-width="0.5" stroke-dasharray="4 3"/>
<rect x="-225.0" y="-190.0" width="450.0" height="380.0" fill="none" stroke="#888" stroke-width="0.5" stroke-dasharray="4 3"/>
<rect x="-193.0" y="-174.5" width="386.0" height="342.0" fill="none" stroke="#888" stroke-width="0.5" stroke-dasharray="4 3"/>
<rect x="-205.0" y="167.0" width="410.0" height="12.0" fill="none" stroke="#888" stroke-width="0.5" stroke-dasharray="4 3"/>
<rect x="-205.0" y="-189.0" width="410.0" height="18.0" fill="none" stroke="#888" stroke-width="0.5" stroke-dasharray="4 3"/>
<rect x="-207.0" y="-185.5" width="14.0" height="364.0" fill="none" stroke="#888" stroke-width="0.5" stroke-dasharray="4 3"/>
<rect x="193.0" y="-185.5" width="14.0" height="364.0" fill="none" stroke="#888" stroke-width="0.5" stroke-dasharray="4 3"/>
<rect x="-207.0" y="-187.0" width="414.0" height="374.0" fill="none" stroke="#888" stroke-width="0.5" stroke-dasharray="4 3"/>
<rect x="-225.0" y="-187.0" width="18.0" height="374.0" fill="none" stroke="#888" stroke-width="0.5" stroke-dasharray="4 3"/>
<rect x="207.0" y="-187.0" width="18.0" height="374.0" fill="none" stroke="#888" stroke-width="0.5" stroke-dasharray="4 3"/>
<rect x="-207.0" y="184.0" width="414.0" height="6.0" fill="none" stroke="#888" stroke-width="0.5" stroke-dasharray="4 3"/>
<rect x="-225.0" y="-190.0" width="450.0" height="380.0" fill="none" stroke="#111" stroke-width="0.9"/>
    
<g stroke="#111" fill="#111" stroke-width="0.6" font-family="sans-serif">
  <line x1="-225.0" y1="202.0" x2="-225.0" y2="226.0" stroke-width="0.4" stroke="#666"/>
  <line x1="225.0" y1="202.0" x2="225.0" y2="226.0" stroke-width="0.4" stroke="#666"/>
  <line x1="-225.0" y1="218.0" x2="225.0" y2="218.0" marker-start="url(#arr-top)" marker-end="url(#arr-top)"/>
  <text x="0" y="213.0" text-anchor="middle" font-size="11" stroke="none">450</text>
</g>
    
<g stroke="#111" fill="#111" stroke-width="0.6" font-family="sans-serif">
  <line x1="237.0" y1="-190.0" x2="261.0" y2="-190.0" stroke-width="0.4" stroke="#666"/>
  <line x1="237.0" y1="190.0" x2="261.0" y2="190.0" stroke-width="0.4" stroke="#666"/>
  <line x1="253.0" y1="-190.0" x2="253.0" y2="190.0" marker-start="url(#arr-top)" marker-end="url(#arr-top)"/>
  <text x="259.0" y="0.0" text-anchor="start" dominant-baseline="middle" font-size="11" stroke="none">380</text>
</g>
  </g></g>
</g>
</svg>