<?xml version="1.0" encoding="UTF-8"?>
<svg xmlns="http://www.w3.org/2000/svg" viewBox="-20 -10 1540 2804" width="1540">
<defs><marker id="arr-front" viewBox="0 0 10 10" refX="9" refY="5" markerWidth="8" markerHeight="8" orient="auto-start-reverse"><path d="M 0 0 L 10 5 L 0 10 z" fill="#111"/></marker>
<marker id="arr-side" viewBox="0 0 10 10" refX="9" refY="5" markerWidth="8" markerHeight="8" orient="auto-start-reverse"><path d="M 0 0 L 10 5 L 0 10 z" fill="#111"/></marker>
<marker id="arr-top" viewBox="0 0 10 10" refX="9" refY="5" markerWidth="8" markerHeight="8" orient="auto-start-reverse"><path d="M 0 0 L 10 5 L 0 10 z" fill="#111"/></marker></defs>
<rect x="-20" y="-10" width="1540" height="2804" fill="#fafaf7"/>

<text x="750" y="24" text-anchor="middle" font-size="22" font-weight="700" fill="#111" font-family="sans-serif">開放書櫃</text>
<text x="750" y="46" text-anchor="middle" font-size="12" fill="#666" font-family="sans-serif">800 × 300 × 1800 mm · 台灣檜木 · 9 件零件</text>
<g transform="translate(0, 70)">
  <g transform="translate(490.0, 1922.0)">
    <rect x="-482.0" y="-1914.0" width="964.0" height="2046.0" fill="none" stroke="#222" stroke-width="1"/>
    
<line x1="-482.0" y1="-1882.0" x2="482.0" y2="-1882.0" stroke="#222" stroke-width="0.6"/>
<text x="-472.0" y="-1892.0" font-size="13" font-weight="700" fill="#111" font-family="sans-serif">正視圖</text>
<text x="-400.0" y="-1892.0" font-size="10" fill="#666" font-family="sans-serif">FRONT VIEW</text>
    
<g stroke="#888" stroke-width="0.5" stroke-dasharray="8 2 2 2" opacity="0.7">
  <line x1="0" y1="-1810.0" x2="0" y2="10.0"/>
  <line x1="-410.0" y1="-900.0" x2="410.0" y2="-900.0"/>
</g>
    <rect x="-400.0" y="-1800.0" width="800.0" height="1800.0" fill="none" stroke="#999" stroke-dasharray="3 3" stroke-width="0.5" opacity="0.8"/>
    <rect x="-382.0" y="-1782.0" width="764.0" height="1764.0" fill="none" stroke="#111" stroke-width="0.9"/>
<rect x="-400.0" y="-1782.0" width="18.0" height="1764.0" fill="none" stroke="#111" stroke-width="0.9"/>
<rect x="382.0" y="-1782.0" width="18.0" height="1764.0" fill="none" stroke="#111" stroke-width="0.9"/>
<rect x="-382.0" y="-388.8" width="764.0" height="18.0" fill="none" stroke="#111" stroke-width="0.9"/>
<rect x="-382.0" y="-741.6" width="764.0" height="18.0" fill="none" stroke="#111" stroke-width="0.9"/>
<rect x="-382.0" y="-1094.4" width="764.0" height="18.0" fill="none" stroke="#111" stroke-width="0.9"/>
<rect x="-382.0" y="-1447.2" width="764.0" height="18.0" fill="none" stroke="#111" stroke-width="0.9"/>
<rect x="-400.0" y="-1800.0" width="800.0" height="18.0" fill="none" stroke="#111" stroke-width="0.9"/>
<rect x="-400.0" y="-18.0" width="800.0" height="18.0" fill="none" stroke="#111" stroke-width="0.9"/>
    
<g stroke="#111" fill="#111" stroke-width="0.6" font-family="sans-serif">
  <line x1="-400.0" y1="12.0" x2="-400.0" y2="36.0" stroke-width="0.4" stroke="#666"/>
  <line x1="400.0" y1="12.0" x2="400.0" y2="36.0" stroke-width="0.4" stroke="#666"/>
  <line x1="-400.0" y1="28.0" x2="400.0" y2="28.0" marker-start="url(#arr-front)" marker-end="url(#arr-front)"/>
  <text x="0" y="23.0" text-anchor="middle" font-size="11" stroke="none">800</text>
</g>
    
<g stroke="#111" fill="#111" stroke-width="0.6" font-family="sans-serif">
  <line x1="412.0" y1="-1800.0" x2="436.0" y2="-1800.0" stroke-width="0.4" stroke="#666"/>
  <line x1="412.0" y1="0.0" x2="436.0" y2="0.0" stroke-width="0.4" stroke="#666"/>
  <line x1="428.0" y1="-1800.0" x2="428.0" y2="0.0" marker-start="url(#arr-front)" marker-end="url(#arr-front)"/>
  <text x="434.0" y="-900.0" text-anchor="start" dominant-baseline="middle" font-size="11" stroke="none">1800</text>
</g>
  </g>
  <g transform="translate(1020, 0)"><g transform="translate(240.0, 1922.0)">
    <rect x="-232.0" y="-1914.0" width="464.0" height="2046.0" fill="none" stroke="#222" stroke-width="1"/>
    
<line x1="-232.0" y1="-1882.0" x2="232.0" y2="-1882.0" stroke="#222" stroke-width="0.6"/>
<text x="-222.0" y="-1892.0" font-size="13" font-weight="700" fill="#111" font-family="sans-serif">側視圖</text>
<text x="-150.0" y="-1892.0" font-size="10" fill="#666" font-family="sans-serif">SIDE VIEW</text>
    
<g stroke="#888" stroke-width="0.5" stroke-dasharray="8 2 2 2" opacity="0.7">
  <line x1="0" y1="-1810.0" x2="0" y2="10.0"/>
  <line x1="-160.0" y1="-900.0" x2="160.0" y2="-900.0"/>
</g>
    <rect x="-150.0" y="-1800.0" width="300.0" height="1800.0" fill="none" stroke="#999" stroke-dasharray="3 3" stroke-width="0.5" opacity="0.8"/>
    <rect x="-147.0" y="-1782.0" width="294.0" height="1764.0" fill="none" stroke="#888" stroke-width="0.5" stroke-dasharray="4 3"/>
<rect x="-147.0" y="-388.8" width="294.0" height="18.0" fill="none" stroke="#888" stroke-width="0.5" stroke-dasharray="4 3"/>
<rect x="-147.0" y="-741.6" width="294.0" height="18.0" fill="none" stroke="#888" stroke-width="0.5" stroke-dasharray="4 3"/>
<rect x="-147.0" y="-1094.4" width="294.0" height="18.0" fill="none" stroke="#888" stroke-width="0.5" stroke-dasharray="4 3"/>
<rect x="-147.0" y="-1447.2" width="294.0" height="18.0" fill="none" stroke="#888" stroke-width="0.5" stroke-dasharray="4 3"/>
<rect x="144.0" y="-1782.0" width="6.0" height="1764.0" fill="none" stroke="#111" stroke-width="0.9"/>
<rect x="-150.0" y="-1800.0" width="300.0" height="18.0" fill="none" stroke="#111" stroke-width="0.9"/>
<rect x="-150.0" y="-18.0" width="300.0" height="18.0" fill="none" stroke="#111" stroke-width="0.9"/>
<rect x="-147.0" y="-1782.0" width="294.0" height="1764.0" fill="none" stroke="#111" stroke-width="0.9"/>
    
<g stroke="#111" fill="#111" stroke-width="0.6" font-family="sans-serif">
  <line x1="-150.0" y1="12.0" x2="-150.0" y2="36.0" stroke-width="0.4" stroke="#666"/>
  <line x1="150.0" y1="12.0" x2="150.0" y2="36.0" stroke-width="0.4" stroke="#666"/>
  <line x1="-150.0" y1="28.0" x2="150.0" y2="28.0" marker-start="url(#arr-side)" marker-end="url(#arr-side)"/>
  <text x="0" y="23.0" text-anchor="middle" font-size="11" stroke="none">300</text>
</g>
    
<g stroke="#111" fill="#111" stroke-width="0.6" font-family="sans-serif">
  <line x1="162.0" y1="-1800.0" x2="186.0" y2="-1800.0" stroke-width="0.4" stroke="#666"/>
  <line x1="162.0" y1="0.0" x2="186.0" y2="0.0" stroke-width="0.4" stroke="#666"/>
  <line x1="178.0" y1="-1800.0" x2="178.0" y2="0.0" marker-start="url(#arr-side)" marker-end="url(#arr-side)"/>
  <text x="184.0" y="-900.0" text-anchor="start" dominant-baseline="middle" font-size="11" stroke="none">1800</text>
</g>
  </g></g>
  <g transform="translate(0, 2102)"><g transform="translate(490.0, 272.0)">
    <rect x="-482.0" y="-264.0" width="964.0" height="546.0" fill="none" stroke="#222" stroke-width="1"/>
    
<line x1="-482.0" y1="-232.0" x2="482.0" y2="-232.0" stroke="#222" stroke-width="0.6"/>
<text x="-472.0" y="-242.0" font-size="13" font-weight="700" fill="#111" font-family="sans-serif">俯視圖</text>
<text x="-400.0" y="-242.0" font-size="10" fill="#666" font-family="sans-serif">TOP VIEW</text>
    
<g stroke="#888" stroke-width="0.5" stroke-dasharray="8 2 2 2" opacity="0.7">
  <line x1="0" y1="-160.0" x2="0" y2="160.0"/>
  <line x1="-410.0" y1="0.0" x2="410.0" y2="0.0"/>
</g>
    <rect x="-400.0" y="-150.0" width="800.0" height="300.0" fill="none" stroke="#999" stroke-dasharray="3 3" stroke-width="0.5" opacity="0.8"/>
    <rect x="-400.0" y="-150.0" width="800.0" height="300.0" fill="none" stroke="#888" stroke-width="0.5" stroke-dasharray="4 3"/>
<rect x="-382.0" y="-147.0" width="764.0" height="294.0" fill="none" stroke="#888" stroke-width="0.5" stroke-dasharray="4 3"/>
<rect x="-382.0" y="-147.0" width="764.0" height="294.0" fill="none" stroke="#888" stroke-width="0.5" stroke-dasharray="4 3"/>
<rect x="-382.0" y="-147.0" width="764.0" height="294.0" fill="none" stroke="#888" stroke-width="0.5" stroke-dasharray="4 3"/>
<rect x="-382.0" y="-147.0" width="764.0" height="294.0" fill="none" stroke="#888" stroke-width="0.5" stroke-dasharray="4 3"/>
<rect x="-400.0" y="-147.0" width="18.0" height="294.0" fill="none" stroke="#888" stroke-width="0.5" stroke-dasharray="4 3"/>
<rect x="382.0" y="-147.0" width="18.0" height="294.0" fill="none" stroke="#888" stroke-width="0.5" stroke-dasharray="4 3"/>
<rect x="-382.0" y="144.0" width="764.0" height="6.0" fill="none" stroke="#888" stroke-width="0.5" stroke-dasharray="4 3"/>
<rect x="-400.0" y="-150.0" width="800.0" height="300.0" fill="none" stroke="#111" stroke-width="0.9"/>
    
<g stroke="#111" fill="#111" stroke-width="0.6" font-family="sans-serif">
  <line x1="-400.0" y1="162.0" x2="-400.0" y2="186.0" stroke-width="0.4" stroke="#666"/>
  <line x1="400.0" y1="162.0" x2="400.0" y2="186.0" stroke-width="0.4" stroke="#666"/>
  <line x1="-400.0" y1="178.0" x2="400.0" y2="178.0" marker-start="url(#arr-top)" marker-end="url(#arr-top)"/>
  <text x="0" y="173.0" text-anchor="middle" font-size="11" stroke="none">800</text>
</g>
    
<g stroke="#111" fill="#111" stroke-width="0.6" font-family="sans-serif">
  <line x1="412.0" y1="-150.0" x2="436.0" y2="-150.0" stroke-width="0.4" stroke="#666"/>
  <line x1="412.0" y1="150.0" x2="436.0" y2="150.0" stroke-width="0.4" stroke="#666"/>
  <line x1="428.0" y1="-150.0" x2="428.0" y2="150.0" marker-start="url(#arr-top)" marker-end="url(#arr-top)"/>
  <text x="434.0" y="0.0" text-anchor="start" dominant-baseline="middle" font-size="11" stroke="none">300</text>
</g>
  </g></g>
</g>
</svg>