<?xml version="1.0" encoding="UTF-8"?>
<svg xmlns="http://www.w3.org/2000/svg" viewBox="-20 -50 1520 2660" width="1520" height="2660">
<rect x="-20" y="-50" width="1520" height="2660" fill="#fafaf7"/>
<text x="740" y="-10" text-anchor="middle" font-size="24" font-weight="700" fill="#111" font-family="sans-serif">開放書櫃</text>
<text x="740" y="12" text-anchor="middle" font-size="13" fill="#666" font-family="sans-serif">800 × 300 × 1800 mm · 台灣檜木 · 9 件</text>
<g transform="translate(480, 100)">
    <rect x="-400.0" y="0" width="800.0" height="1800.0" fill="none" stroke="#888" stroke-dasharray="4 3" stroke-width="0.8"/>
    <rect x="-400.0" y="0.0" width="800.0" height="18.0" fill="#d8b878" stroke="#3a2a1a" stroke-width="1.2" opacity="0.92"/>
<rect x="-400.0" y="1782.0" width="800.0" height="18.0" fill="#d8b878" stroke="#3a2a1a" stroke-width="1.2" opacity="0.92"/>
<rect x="-400.0" y="18.0" width="18.0" height="1764.0" fill="#d8b878" stroke="#3a2a1a" stroke-width="1.2" opacity="0.92"/>
<rect x="382.0" y="18.0" width="18.0" height="1764.0" fill="#d8b878" stroke="#3a2a1a" stroke-width="1.2" opacity="0.92"/>
<rect x="-382.0" y="1411.2" width="764.0" height="18.0" fill="#d8b878" stroke="#3a2a1a" stroke-width="1.2" opacity="0.92"/>
<rect x="-382.0" y="1058.4" width="764.0" height="18.0" fill="#d8b878" stroke="#3a2a1a" stroke-width="1.2" opacity="0.92"/>
<rect x="-382.0" y="705.6" width="764.0" height="18.0" fill="#d8b878" stroke="#3a2a1a" stroke-width="1.2" opacity="0.92"/>
<rect x="-382.0" y="352.8" width="764.0" height="18.0" fill="#d8b878" stroke="#3a2a1a" stroke-width="1.2" opacity="0.92"/>
<rect x="-382.0" y="18.0" width="764.0" height="1764.0" fill="#d8b878" stroke="#3a2a1a" stroke-width="1.2" opacity="0.92"/>
    <text x="0" y="1850.0" text-anchor="middle" font-size="18" fill="#444" font-family="sans-serif">正視圖（800 × 1800 mm）</text>
  </g>
<g transform="translate(1250, 100)">
    <rect x="-150.0" y="0" width="300.0" height="1800.0" fill="none" stroke="#888" stroke-dasharray="4 3" stroke-width="0.8"/>
    <rect x="-150.0" y="0.0" width="300.0" height="18.0" fill="#d8b878" stroke="#3a2a1a" stroke-width="1.2" opacity="0.92"/>
<rect x="-150.0" y="1782.0" width="300.0" height="18.0" fill="#d8b878" stroke="#3a2a1a" stroke-width="1.2" opacity="0.92"/>
<rect x="-147.0" y="18.0" width="294.0" height="1764.0" fill="#d8b878" stroke="#3a2a1a" stroke-width="1.2" opacity="0.92"/>
<rect x="-147.0" y="18.0" width="294.0" height="1764.0" fill="#d8b878" stroke="#3a2a1a" stroke-width="1.2" opacity="0.92"/>
<rect x="-147.0" y="1411.2" width="294.0" height="18.0" fill="#d8b878" stroke="#3a2a1a" stroke-width="1.2" opacity="0.92"/>
<rect x="-147.0" y="1058.4" width="294.0" height="18.0" fill="#d8b878" stroke="#3a2a1a" stroke-width="1.2" opacity="0.92"/>
<rect x="-147.0" y="705.6" width="294.0" height="18.0" fill="#d8b878" stroke="#3a2a1a" stroke-width="1.2" opacity="0.92"/>
<rect x="-147.0" y="352.8" width="294.0" height="18.0" fill="#d8b878" stroke="#3a2a1a" stroke-width="1.2" opacity="0.92"/>
<rect x="144.0" y="18.0" width="6.0" height="1764.0" fill="#d8b878" stroke="#3a2a1a" stroke-width="1.2" opacity="0.92"/>
    <text x="0" y="1850.0" text-anchor="middle" font-size="18" fill="#444" font-family="sans-serif">側視圖（300 × 1800 mm）</text>
  </g>
<g transform="translate(480, 2150)">
    <rect x="-400.0" y="0" width="800.0" height="300.0" fill="none" stroke="#888" stroke-dasharray="4 3" stroke-width="0.8"/>
    <rect x="-400.0" y="-150.0" width="800.0" height="300.0" fill="#d8b878" stroke="#3a2a1a" stroke-width="1.2" opacity="0.92"/>
<rect x="-400.0" y="-150.0" width="800.0" height="300.0" fill="#d8b878" stroke="#3a2a1a" stroke-width="1.2" opacity="0.92"/>
<rect x="-400.0" y="-147.0" width="18.0" height="294.0" fill="#d8b878" stroke="#3a2a1a" stroke-width="1.2" opacity="0.92"/>
<rect x="382.0" y="-147.0" width="18.0" height="294.0" fill="#d8b878" stroke="#3a2a1a" stroke-width="1.2" opacity="0.92"/>
<rect x="-382.0" y="-147.0" width="764.0" height="294.0" fill="#d8b878" stroke="#3a2a1a" stroke-width="1.2" opacity="0.92"/>
<rect x="-382.0" y="-147.0" width="764.0" height="294.0" fill="#d8b878" stroke="#3a2a1a" stroke-width="1.2" opacity="0.92"/>
<rect x="-382.0" y="-147.0" width="764.0" height="294.0" fill="#d8b878" stroke="#3a2a1a" stroke-width="1.2" opacity="0.92"/>
<rect x="-382.0" y="-147.0" width="764.0" height="294.0" fill="#d8b878" stroke="#3a2a1a" stroke-width="1.2" opacity="0.92"/>
<rect x="-382.0" y="144.0" width="764.0" height="6.0" fill="#d8b878" stroke="#3a2a1a" stroke-width="1.2" opacity="0.92"/>
    <text x="0" y="350.0" text-anchor="middle" font-size="18" fill="#444" font-family="sans-serif">俯視圖（800 × 300 mm）</text>
  </g>
</svg>