<?xml version="1.0" encoding="UTF-8"?>
<svg xmlns="http://www.w3.org/2000/svg" viewBox="-20 -10 600 894" width="600">
<defs><marker id="arr-front" viewBox="0 0 10 10" refX="9" refY="5" markerWidth="8" markerHeight="8" orient="auto-start-reverse"><path d="M 0 0 L 10 5 L 0 10 z" fill="#111"/></marker>
<marker id="arr-side" viewBox="0 0 10 10" refX="9" refY="5" markerWidth="8" markerHeight="8" orient="auto-start-reverse"><path d="M 0 0 L 10 5 L 0 10 z" fill="#111"/></marker>
<marker id="arr-top" viewBox="0 0 10 10" refX="9" refY="5" markerWidth="8" markerHeight="8" orient="auto-start-reverse"><path d="M 0 0 L 10 5 L 0 10 z" fill="#111"/></marker></defs>
<rect x="-20" y="-10" width="600" height="894" fill="#fafaf7"/>

<text x="280" y="24" text-anchor="middle" font-size="22" font-weight="700" fill="#111" font-family="sans-serif">筆筒</text>
<text x="280" y="46" text-anchor="middle" font-size="12" fill="#666" font-family="sans-serif">80 × 80 × 110 mm · 台灣檜木 · 5 件零件</text>
<g transform="translate(0, 70)">
  <g transform="translate(130.0, 232.0)">
    <rect x="-122.0" y="-224.0" width="244.0" height="356.0" fill="none" stroke="#222" stroke-width="1"/>
    
<line x1="-122.0" y1="-192.0" x2="122.0" y2="-192.0" stroke="#222" stroke-width="0.6"/>
<text x="-112.0" y="-202.0" font-size="13" font-weight="700" fill="#111" font-family="sans-serif">正視圖</text>
<text x="-40.0" y="-202.0" font-size="10" fill="#666" font-family="sans-serif">FRONT VIEW</text>
    
<g stroke="#888" stroke-width="0.5" stroke-dasharray="8 2 2 2" opacity="0.7">
  <line x1="0" y1="-120.0" x2="0" y2="10.0"/>
  <line x1="-50.0" y1="-55.0" x2="50.0" y2="-55.0"/>
</g>
    <rect x="-40.0" y="-110.0" width="80.0" height="110.0" fill="none" stroke="#999" stroke-dasharray="3 3" stroke-width="0.5" opacity="0.8"/>
    <rect x="-40.0" y="-110.0" width="80.0" height="102.0" fill="none" stroke="#888" stroke-width="0.5" stroke-dasharray="4 3"/>
<rect x="32.0" y="-110.0" width="8.0" height="102.0" fill="none" stroke="#888" stroke-width="0.5" stroke-dasharray="4 3"/>
<rect x="-40.0" y="-110.0" width="8.0" height="102.0" fill="none" stroke="#888" stroke-width="0.5" stroke-dasharray="4 3"/>
<rect x="-36.0" y="-8.0" width="72.0" height="8.0" fill="none" stroke="#111" stroke-width="0.9"/>
<rect x="-40.0" y="-110.0" width="80.0" height="102.0" fill="none" stroke="#111" stroke-width="0.9"/>
    
<g stroke="#111" fill="#111" stroke-width="0.6" font-family="sans-serif">
  <line x1="-40.0" y1="12.0" x2="-40.0" y2="36.0" stroke-width="0.4" stroke="#666"/>
  <line x1="40.0" y1="12.0" x2="40.0" y2="36.0" stroke-width="0.4" stroke="#666"/>
  <line x1="-40.0" y1="28.0" x2="40.0" y2="28.0" marker-start="url(#arr-front)" marker-end="url(#arr-front)"/>
  <text x="0" y="23.0" text-anchor="middle" font-size="11" stroke="none">80</text>
</g>
    
<g stroke="#111" fill="#111" stroke-width="0.6" font-family="sans-serif">
  <line x1="52.0" y1="-110.0" x2="76.0" y2="-110.0" stroke-width="0.4" stroke="#666"/>
  <line x1="52.0" y1="0.0" x2="76.0" y2="0.0" stroke-width="0.4" stroke="#666"/>
  <line x1="68.0" y1="-110.0" x2="68.0" y2="0.0" marker-start="url(#arr-front)" marker-end="url(#arr-front)"/>
  <text x="74.0" y="-55.0" text-anchor="start" dominant-baseline="middle" font-size="11" stroke="none">110</text>
</g>
  </g>
  <g transform="translate(300, 0)"><g transform="translate(130.0, 232.0)">
    <rect x="-122.0" y="-224.0" width="244.0" height="356.0" fill="none" stroke="#222" stroke-width="1"/>
    
<line x1="-122.0" y1="-192.0" x2="122.0" y2="-192.0" stroke="#222" stroke-width="0.6"/>
<text x="-112.0" y="-202.0" font-size="13" font-weight="700" fill="#111" font-family="sans-serif">側視圖</text>
<text x="-40.0" y="-202.0" font-size="10" fill="#666" font-family="sans-serif">SIDE VIEW</text>
    
<g stroke="#888" stroke-width="0.5" stroke-dasharray="8 2 2 2" opacity="0.7">
  <line x1="0" y1="-120.0" x2="0" y2="10.0"/>
  <line x1="-50.0" y1="-55.0" x2="50.0" y2="-55.0"/>
</g>
    <rect x="-40.0" y="-110.0" width="80.0" height="110.0" fill="none" stroke="#999" stroke-dasharray="3 3" stroke-width="0.5" opacity="0.8"/>
    <rect x="-32.0" y="-110.0" width="64.0" height="102.0" fill="none" stroke="#888" stroke-width="0.5" stroke-dasharray="4 3"/>
<rect x="-36.0" y="-8.0" width="72.0" height="8.0" fill="none" stroke="#111" stroke-width="0.9"/>
<rect x="-40.0" y="-110.0" width="8.0" height="102.0" fill="none" stroke="#111" stroke-width="0.9"/>
<rect x="32.0" y="-110.0" width="8.0" height="102.0" fill="none" stroke="#111" stroke-width="0.9"/>
<rect x="-32.0" y="-110.0" width="64.0" height="102.0" fill="none" stroke="#111" stroke-width="0.9"/>
    
<g stroke="#111" fill="#111" stroke-width="0.6" font-family="sans-serif">
  <line x1="-40.0" y1="12.0" x2="-40.0" y2="36.0" stroke-width="0.4" stroke="#666"/>
  <line x1="40.0" y1="12.0" x2="40.0" y2="36.0" stroke-width="0.4" stroke="#666"/>
  <line x1="-40.0" y1="28.0" x2="40.0" y2="28.0" marker-start="url(#arr-side)" marker-end="url(#arr-side)"/>
  <text x="0" y="23.0" text-anchor="middle" font-size="11" stroke="none">80</text>
</g>
    
<g stroke="#111" fill="#111" stroke-width="0.6" font-family="sans-serif">
  <line x1="52.0" y1="-110.0" x2="76.0" y2="-110.0" stroke-width="0.4" stroke="#666"/>
  <line x1="52.0" y1="0.0" x2="76.0" y2="0.0" stroke-width="0.4" stroke="#666"/>
  <line x1="68.0" y1="-110.0" x2="68.0" y2="0.0" marker-start="url(#arr-side)" marker-end="url(#arr-side)"/>
  <text x="74.0" y="-55.0" text-anchor="start" dominant-baseline="middle" font-size="11" stroke="none">110</text>
</g>
  </g></g>
  <g transform="translate(0, 412)"><g transform="translate(130.0, 162.0)">
    <rect x="-122.0" y="-154.0" width="244.0" height="326.0" fill="none" stroke="#222" stroke-width="1"/>
    
<line x1="-122.0" y1="-122.0" x2="122.0" y2="-122.0" stroke="#222" stroke-width="0.6"/>
<text x="-112.0" y="-132.0" font-size="13" font-weight="700" fill="#111" font-family="sans-serif">俯視圖</text>
<text x="-40.0" y="-132.0" font-size="10" fill="#666" font-family="sans-serif">TOP VIEW</text>
    
<g stroke="#888" stroke-width="0.5" stroke-dasharray="8 2 2 2" opacity="0.7">
  <line x1="0" y1="-50.0" x2="0" y2="50.0"/>
  <line x1="-50.0" y1="0.0" x2="50.0" y2="0.0"/>
</g>
    <rect x="-40.0" y="-40.0" width="80.0" height="80.0" fill="none" stroke="#999" stroke-dasharray="3 3" stroke-width="0.5" opacity="0.8"/>
    <rect x="-36.0" y="-36.0" width="72.0" height="72.0" fill="none" stroke="#111" stroke-width="0.9"/>
<rect x="-40.0" y="-40.0" width="80.0" height="8.0" fill="none" stroke="#111" stroke-width="0.9"/>
<rect x="-40.0" y="32.0" width="80.0" height="8.0" fill="none" stroke="#111" stroke-width="0.9"/>
<rect x="32.0" y="-32.0" width="8.0" height="64.0" fill="none" stroke="#111" stroke-width="0.9"/>
<rect x="-40.0" y="-32.0" width="8.0" height="64.0" fill="none" stroke="#111" stroke-width="0.9"/>
    
<g stroke="#111" fill="#111" stroke-width="0.6" font-family="sans-serif">
  <line x1="-40.0" y1="52.0" x2="-40.0" y2="76.0" stroke-width="0.4" stroke="#666"/>
  <line x1="40.0" y1="52.0" x2="40.0" y2="76.0" stroke-width="0.4" stroke="#666"/>
  <line x1="-40.0" y1="68.0" x2="40.0" y2="68.0" marker-start="url(#arr-top)" marker-end="url(#arr-top)"/>
  <text x="0" y="63.0" text-anchor="middle" font-size="11" stroke="none">80</text>
</g>
    
<g stroke="#111" fill="#111" stroke-width="0.6" font-family="sans-serif">
  <line x1="52.0" y1="-40.0" x2="76.0" y2="-40.0" stroke-width="0.4" stroke="#666"/>
  <line x1="52.0" y1="40.0" x2="76.0" y2="40.0" stroke-width="0.4" stroke="#666"/>
  <line x1="68.0" y1="-40.0" x2="68.0" y2="40.0" marker-start="url(#arr-top)" marker-end="url(#arr-top)"/>
  <text x="74.0" y="0.0" text-anchor="start" dominant-baseline="middle" font-size="11" stroke="none">80</text>
</g>
  </g></g>
</g>
</svg>