<?xml version="1.0" encoding="UTF-8"?>
<svg xmlns="http://www.w3.org/2000/svg" viewBox="-20 -10 790 922" width="790">
<defs><marker id="arr-front" viewBox="0 0 10 10" refX="9" refY="5" markerWidth="8" markerHeight="8" orient="auto-start-reverse"><path d="M 0 0 L 10 5 L 0 10 z" fill="#111"/></marker>
<marker id="arr-side" viewBox="0 0 10 10" refX="9" refY="5" markerWidth="8" markerHeight="8" orient="auto-start-reverse"><path d="M 0 0 L 10 5 L 0 10 z" fill="#111"/></marker>
<marker id="arr-top" viewBox="0 0 10 10" refX="9" refY="5" markerWidth="8" markerHeight="8" orient="auto-start-reverse"><path d="M 0 0 L 10 5 L 0 10 z" fill="#111"/></marker></defs>
<rect x="-20" y="-10" width="790" height="922" fill="#fafaf7"/>

<text x="375" y="24" text-anchor="middle" font-size="22" font-weight="700" fill="#111" font-family="sans-serif">相框</text>
<text x="375" y="46" text-anchor="middle" font-size="12" fill="#666" font-family="sans-serif">150 × 200 × 18 mm · 台灣檜木 · 6 件零件</text>
<g transform="translate(0, 70)">
  <g transform="translate(165.0, 140.0)">
    <rect x="-157.0" y="-132.0" width="314.0" height="264.0" fill="none" stroke="#222" stroke-width="1"/>
    
<line x1="-157.0" y1="-100.0" x2="157.0" y2="-100.0" stroke="#222" stroke-width="0.6"/>
<text x="-147.0" y="-110.0" font-size="13" font-weight="700" fill="#111" font-family="sans-serif">正視圖</text>
<text x="-75.0" y="-110.0" font-size="10" fill="#666" font-family="sans-serif">FRONT VIEW</text>
    
<g stroke="#888" stroke-width="0.5" stroke-dasharray="8 2 2 2" opacity="0.7">
  <line x1="0" y1="-28.0" x2="0" y2="10.0"/>
  <line x1="-85.0" y1="-9.0" x2="85.0" y2="-9.0"/>
</g>
    <rect x="-75.0" y="-18.0" width="150.0" height="18.0" fill="none" stroke="#999" stroke-dasharray="3 3" stroke-width="0.5" opacity="0.8"/>
    <rect x="-75.0" y="-18.0" width="150.0" height="18.0" fill="none" stroke="#888" stroke-width="0.5" stroke-dasharray="4 3"/>
<rect x="50.0" y="-18.0" width="25.0" height="18.0" fill="none" stroke="#888" stroke-width="0.5" stroke-dasharray="4 3"/>
<rect x="-75.0" y="-18.0" width="25.0" height="18.0" fill="none" stroke="#888" stroke-width="0.5" stroke-dasharray="4 3"/>
<rect x="-50.0" y="-12.0" width="100.0" height="2.0" fill="none" stroke="#888" stroke-width="0.5" stroke-dasharray="4 3"/>
<rect x="-50.0" y="-22.0" width="100.0" height="4.0" fill="none" stroke="#111" stroke-width="0.9"/>
<rect x="-75.0" y="-18.0" width="150.0" height="18.0" fill="none" stroke="#111" stroke-width="0.9"/>
    
<g stroke="#111" fill="#111" stroke-width="0.6" font-family="sans-serif">
  <line x1="-75.0" y1="12.0" x2="-75.0" y2="36.0" stroke-width="0.4" stroke="#666"/>
  <line x1="75.0" y1="12.0" x2="75.0" y2="36.0" stroke-width="0.4" stroke="#666"/>
  <line x1="-75.0" y1="28.0" x2="75.0" y2="28.0" marker-start="url(#arr-front)" marker-end="url(#arr-front)"/>
  <text x="0" y="23.0" text-anchor="middle" font-size="11" stroke="none">150</text>
</g>
    
<g stroke="#111" fill="#111" stroke-width="0.6" font-family="sans-serif">
  <line x1="87.0" y1="-18.0" x2="111.0" y2="-18.0" stroke-width="0.4" stroke="#666"/>
  <line x1="87.0" y1="0.0" x2="111.0" y2="0.0" stroke-width="0.4" stroke="#666"/>
  <line x1="103.0" y1="-18.0" x2="103.0" y2="0.0" marker-start="url(#arr-front)" marker-end="url(#arr-front)"/>
  <text x="109.0" y="-9.0" text-anchor="start" dominant-baseline="middle" font-size="11" stroke="none">18</text>
</g>
  </g>
  <g transform="translate(370, 0)"><g transform="translate(190.0, 140.0)">
    <rect x="-182.0" y="-132.0" width="364.0" height="264.0" fill="none" stroke="#222" stroke-width="1"/>
    
<line x1="-182.0" y1="-100.0" x2="182.0" y2="-100.0" stroke="#222" stroke-width="0.6"/>
<text x="-172.0" y="-110.0" font-size="13" font-weight="700" fill="#111" font-family="sans-serif">側視圖</text>
<text x="-100.0" y="-110.0" font-size="10" fill="#666" font-family="sans-serif">SIDE VIEW</text>
    
<g stroke="#888" stroke-width="0.5" stroke-dasharray="8 2 2 2" opacity="0.7">
  <line x1="0" y1="-28.0" x2="0" y2="10.0"/>
  <line x1="-110.0" y1="-9.0" x2="110.0" y2="-9.0"/>
</g>
    <rect x="-100.0" y="-18.0" width="200.0" height="18.0" fill="none" stroke="#999" stroke-dasharray="3 3" stroke-width="0.5" opacity="0.8"/>
    <rect x="-75.0" y="-18.0" width="150.0" height="18.0" fill="none" stroke="#888" stroke-width="0.5" stroke-dasharray="4 3"/>
<rect x="-75.0" y="-12.0" width="150.0" height="2.0" fill="none" stroke="#888" stroke-width="0.5" stroke-dasharray="4 3"/>
<rect x="-75.0" y="-22.0" width="150.0" height="4.0" fill="none" stroke="#111" stroke-width="0.9"/>
<rect x="75.0" y="-18.0" width="25.0" height="18.0" fill="none" stroke="#111" stroke-width="0.9"/>
<rect x="-100.0" y="-18.0" width="25.0" height="18.0" fill="none" stroke="#111" stroke-width="0.9"/>
<rect x="-75.0" y="-18.0" width="150.0" height="18.0" fill="none" stroke="#111" stroke-width="0.9"/>
    
<g stroke="#111" fill="#111" stroke-width="0.6" font-family="sans-serif">
  <line x1="-100.0" y1="12.0" x2="-100.0" y2="36.0" stroke-width="0.4" stroke="#666"/>
  <line x1="100.0" y1="12.0" x2="100.0" y2="36.0" stroke-width="0.4" stroke="#666"/>
  <line x1="-100.0" y1="28.0" x2="100.0" y2="28.0" marker-start="url(#arr-side)" marker-end="url(#arr-side)"/>
  <text x="0" y="23.0" text-anchor="middle" font-size="11" stroke="none">200</text>
</g>
    
<g stroke="#111" fill="#111" stroke-width="0.6" font-family="sans-serif">
  <line x1="112.0" y1="-18.0" x2="136.0" y2="-18.0" stroke-width="0.4" stroke="#666"/>
  <line x1="112.0" y1="0.0" x2="136.0" y2="0.0" stroke-width="0.4" stroke="#666"/>
  <line x1="128.0" y1="-18.0" x2="128.0" y2="0.0" marker-start="url(#arr-side)" marker-end="url(#arr-side)"/>
  <text x="134.0" y="-9.0" text-anchor="start" dominant-baseline="middle" font-size="11" stroke="none">18</text>
</g>
  </g></g>
  <g transform="translate(0, 320)"><g transform="translate(165.0, 222.0)">
    <rect x="-157.0" y="-214.0" width="314.0" height="446.0" fill="none" stroke="#222" stroke-width="1"/>
    
<line x1="-157.0" y1="-182.0" x2="157.0" y2="-182.0" stroke="#222" stroke-width="0.6"/>
<text x="-147.0" y="-192.0" font-size="13" font-weight="700" fill="#111" font-family="sans-serif">俯視圖</text>
<text x="-75.0" y="-192.0" font-size="10" fill="#666" font-family="sans-serif">TOP VIEW</text>
    
<g stroke="#888" stroke-width="0.5" stroke-dasharray="8 2 2 2" opacity="0.7">
  <line x1="0" y1="-110.0" x2="0" y2="110.0"/>
  <line x1="-85.0" y1="0.0" x2="85.0" y2="0.0"/>
</g>
    <rect x="-75.0" y="-100.0" width="150.0" height="200.0" fill="none" stroke="#999" stroke-dasharray="3 3" stroke-width="0.5" opacity="0.8"/>
    <rect x="-50.0" y="-75.0" width="100.0" height="150.0" fill="none" stroke="#888" stroke-width="0.5" stroke-dasharray="4 3"/>
<rect x="-75.0" y="75.0" width="150.0" height="25.0" fill="none" stroke="#111" stroke-width="0.9"/>
<rect x="-75.0" y="-100.0" width="150.0" height="25.0" fill="none" stroke="#111" stroke-width="0.9"/>
<rect x="50.0" y="-75.0" width="25.0" height="150.0" fill="none" stroke="#111" stroke-width="0.9"/>
<rect x="-75.0" y="-75.0" width="25.0" height="150.0" fill="none" stroke="#111" stroke-width="0.9"/>
<rect x="-50.0" y="-75.0" width="100.0" height="150.0" fill="none" stroke="#111" stroke-width="0.9"/>
    
<g stroke="#111" fill="#111" stroke-width="0.6" font-family="sans-serif">
  <line x1="-75.0" y1="112.0" x2="-75.0" y2="136.0" stroke-width="0.4" stroke="#666"/>
  <line x1="75.0" y1="112.0" x2="75.0" y2="136.0" stroke-width="0.4" stroke="#666"/>
  <line x1="-75.0" y1="128.0" x2="75.0" y2="128.0" marker-start="url(#arr-top)" marker-end="url(#arr-top)"/>
  <text x="0" y="123.0" text-anchor="middle" font-size="11" stroke="none">150</text>
</g>
    
<g stroke="#111" fill="#111" stroke-width="0.6" font-family="sans-serif">
  <line x1="87.0" y1="-100.0" x2="111.0" y2="-100.0" stroke-width="0.4" stroke="#666"/>
  <line x1="87.0" y1="100.0" x2="111.0" y2="100.0" stroke-width="0.4" stroke="#666"/>
  <line x1="103.0" y1="-100.0" x2="103.0" y2="100.0" marker-start="url(#arr-top)" marker-end="url(#arr-top)"/>
  <text x="109.0" y="0.0" text-anchor="start" dominant-baseline="middle" font-size="11" stroke="none">200</text>
</g>
  </g></g>
</g>
</svg>