<?xml version="1.0" encoding="UTF-8"?>
<svg xmlns="http://www.w3.org/2000/svg" viewBox="-20 -10 1840 1854" width="1840">
<defs><marker id="arr-front" viewBox="0 0 10 10" refX="9" refY="5" markerWidth="8" markerHeight="8" orient="auto-start-reverse"><path d="M 0 0 L 10 5 L 0 10 z" fill="#111"/></marker>
<marker id="arr-side" viewBox="0 0 10 10" refX="9" refY="5" markerWidth="8" markerHeight="8" orient="auto-start-reverse"><path d="M 0 0 L 10 5 L 0 10 z" fill="#111"/></marker>
<marker id="arr-top" viewBox="0 0 10 10" refX="9" refY="5" markerWidth="8" markerHeight="8" orient="auto-start-reverse"><path d="M 0 0 L 10 5 L 0 10 z" fill="#111"/></marker></defs>
<rect x="-20" y="-10" width="1840" height="1854" fill="#fafaf7"/>

<text x="900" y="24" text-anchor="middle" font-size="22" font-weight="700" fill="#111" font-family="sans-serif">圓茶几</text>
<text x="900" y="46" text-anchor="middle" font-size="12" fill="#666" font-family="sans-serif">700 × 700 × 450 mm · 台灣檜木 · 9 件零件</text>
<g transform="translate(0, 70)">
  <g transform="translate(440.0, 572.0)">
    <rect x="-432.0" y="-564.0" width="864.0" height="696.0" fill="none" stroke="#222" stroke-width="1"/>
    
<line x1="-432.0" y1="-532.0" x2="432.0" y2="-532.0" stroke="#222" stroke-width="0.6"/>
<text x="-422.0" y="-542.0" font-size="13" font-weight="700" fill="#111" font-family="sans-serif">正視圖</text>
<text x="-350.0" y="-542.0" font-size="10" fill="#666" font-family="sans-serif">FRONT VIEW</text>
    
<g stroke="#888" stroke-width="0.5" stroke-dasharray="8 2 2 2" opacity="0.7">
  <line x1="0" y1="-460.0" x2="0" y2="10.0"/>
  <line x1="-360.0" y1="-225.0" x2="360.0" y2="-225.0"/>
</g>
    <rect x="-350.0" y="-450.0" width="700.0" height="450.0" fill="none" stroke="#999" stroke-dasharray="3 3" stroke-width="0.5" opacity="0.8"/>
    <rect x="-171.5" y="-425.0" width="343.0" height="60.0" fill="none" stroke="#888" stroke-width="0.5" stroke-dasharray="4 3"/>
<polygon points="170.9,-425.0 210.9,-425.0 202.9,0.0 178.9,0.0" fill="none" stroke="#888" stroke-width="0.5" stroke-dasharray="4 3"/>
<polygon points="-210.9,-425.0 -170.9,-425.0 -178.9,0.0 -202.9,0.0" fill="none" stroke="#888" stroke-width="0.5" stroke-dasharray="4 3"/>
<rect x="180.9" y="-425.0" width="20.0" height="60.0" fill="none" stroke="#111" stroke-width="0.9"/>
<rect x="-200.9" y="-425.0" width="20.0" height="60.0" fill="none" stroke="#111" stroke-width="0.9"/>
<rect x="-171.5" y="-425.0" width="343.0" height="60.0" fill="none" stroke="#111" stroke-width="0.9"/>
<polygon points="170.9,-425.0 210.9,-425.0 202.9,0.0 178.9,0.0" fill="none" stroke="#111" stroke-width="0.9"/>
<polygon points="-210.9,-425.0 -170.9,-425.0 -178.9,0.0 -202.9,0.0" fill="none" stroke="#111" stroke-width="0.9"/>
<rect x="-350.0" y="-450.0" width="700.0" height="25.0" fill="none" stroke="#111" stroke-width="0.9"/>
    
<g stroke="#111" fill="#111" stroke-width="0.6" font-family="sans-serif">
  <line x1="-350.0" y1="12.0" x2="-350.0" y2="36.0" stroke-width="0.4" stroke="#666"/>
  <line x1="350.0" y1="12.0" x2="350.0" y2="36.0" stroke-width="0.4" stroke="#666"/>
  <line x1="-350.0" y1="28.0" x2="350.0" y2="28.0" marker-start="url(#arr-front)" marker-end="url(#arr-front)"/>
  <text x="0" y="23.0" text-anchor="middle" font-size="11" stroke="none">700</text>
</g>
    
<g stroke="#111" fill="#111" stroke-width="0.6" font-family="sans-serif">
  <line x1="362.0" y1="-450.0" x2="386.0" y2="-450.0" stroke-width="0.4" stroke="#666"/>
  <line x1="362.0" y1="0.0" x2="386.0" y2="0.0" stroke-width="0.4" stroke="#666"/>
  <line x1="378.0" y1="-450.0" x2="378.0" y2="0.0" marker-start="url(#arr-front)" marker-end="url(#arr-front)"/>
  <text x="384.0" y="-225.0" text-anchor="start" dominant-baseline="middle" font-size="11" stroke="none">450</text>
</g>
  </g>
  <g transform="translate(920, 0)"><g transform="translate(440.0, 572.0)">
    <rect x="-432.0" y="-564.0" width="864.0" height="696.0" fill="none" stroke="#222" stroke-width="1"/>
    
<line x1="-432.0" y1="-532.0" x2="432.0" y2="-532.0" stroke="#222" stroke-width="0.6"/>
<text x="-422.0" y="-542.0" font-size="13" font-weight="700" fill="#111" font-family="sans-serif">側視圖</text>
<text x="-350.0" y="-542.0" font-size="10" fill="#666" font-family="sans-serif">SIDE VIEW</text>
    
<g stroke="#888" stroke-width="0.5" stroke-dasharray="8 2 2 2" opacity="0.7">
  <line x1="0" y1="-460.0" x2="0" y2="10.0"/>
  <line x1="-360.0" y1="-225.0" x2="360.0" y2="-225.0"/>
</g>
    <rect x="-350.0" y="-450.0" width="700.0" height="450.0" fill="none" stroke="#999" stroke-dasharray="3 3" stroke-width="0.5" opacity="0.8"/>
    <rect x="-171.5" y="-425.0" width="343.0" height="60.0" fill="none" stroke="#888" stroke-width="0.5" stroke-dasharray="4 3"/>
<polygon points="-210.9,-425.0 -170.9,-425.0 -178.9,0.0 -202.9,0.0" fill="none" stroke="#888" stroke-width="0.5" stroke-dasharray="4 3"/>
<polygon points="170.9,-425.0 210.9,-425.0 202.9,0.0 178.9,0.0" fill="none" stroke="#888" stroke-width="0.5" stroke-dasharray="4 3"/>
<rect x="-200.9" y="-425.0" width="20.0" height="60.0" fill="none" stroke="#111" stroke-width="0.9"/>
<rect x="180.9" y="-425.0" width="20.0" height="60.0" fill="none" stroke="#111" stroke-width="0.9"/>
<rect x="-171.5" y="-425.0" width="343.0" height="60.0" fill="none" stroke="#111" stroke-width="0.9"/>
<polygon points="-210.9,-425.0 -170.9,-425.0 -178.9,0.0 -202.9,0.0" fill="none" stroke="#111" stroke-width="0.9"/>
<polygon points="170.9,-425.0 210.9,-425.0 202.9,0.0 178.9,0.0" fill="none" stroke="#111" stroke-width="0.9"/>
<rect x="-350.0" y="-450.0" width="700.0" height="25.0" fill="none" stroke="#111" stroke-width="0.9"/>
    
<g stroke="#111" fill="#111" stroke-width="0.6" font-family="sans-serif">
  <line x1="-350.0" y1="12.0" x2="-350.0" y2="36.0" stroke-width="0.4" stroke="#666"/>
  <line x1="350.0" y1="12.0" x2="350.0" y2="36.0" stroke-width="0.4" stroke="#666"/>
  <line x1="-350.0" y1="28.0" x2="350.0" y2="28.0" marker-start="url(#arr-side)" marker-end="url(#arr-side)"/>
  <text x="0" y="23.0" text-anchor="middle" font-size="11" stroke="none">700</text>
</g>
    
<g stroke="#111" fill="#111" stroke-width="0.6" font-family="sans-serif">
  <line x1="362.0" y1="-450.0" x2="386.0" y2="-450.0" stroke-width="0.4" stroke="#666"/>
  <line x1="362.0" y1="0.0" x2="386.0" y2="0.0" stroke-width="0.4" stroke="#666"/>
  <line x1="378.0" y1="-450.0" x2="378.0" y2="0.0" marker-start="url(#arr-side)" marker-end="url(#arr-side)"/>
  <text x="384.0" y="-225.0" text-anchor="start" dominant-baseline="middle" font-size="11" stroke="none">450</text>
</g>
  </g></g>
  <g transform="translate(0, 752)"><g transform="translate(440.0, 472.0)">
    <rect x="-432.0" y="-464.0" width="864.0" height="946.0" fill="none" stroke="#222" stroke-width="1"/>
    
<line x1="-432.0" y1="-432.0" x2="432.0" y2="-432.0" stroke="#222" stroke-width="0.6"/>
<text x="-422.0" y="-442.0" font-size="13" font-weight="700" fill="#111" font-family="sans-serif">俯視圖</text>
<text x="-350.0" y="-442.0" font-size="10" fill="#666" font-family="sans-serif">TOP VIEW</text>
    
<g stroke="#888" stroke-width="0.5" stroke-dasharray="8 2 2 2" opacity="0.7">
  <line x1="0" y1="-360.0" x2="0" y2="360.0"/>
  <line x1="-360.0" y1="0.0" x2="360.0" y2="0.0"/>
</g>
    <rect x="-350.0" y="-350.0" width="700.0" height="700.0" fill="none" stroke="#999" stroke-dasharray="3 3" stroke-width="0.5" opacity="0.8"/>
    <rect x="170.9" y="-210.9" width="40.0" height="40.0" fill="none" stroke="#888" stroke-width="0.5" stroke-dasharray="4 3"/>
<rect x="170.9" y="170.9" width="40.0" height="40.0" fill="none" stroke="#888" stroke-width="0.5" stroke-dasharray="4 3"/>
<rect x="-210.9" y="-210.9" width="40.0" height="40.0" fill="none" stroke="#888" stroke-width="0.5" stroke-dasharray="4 3"/>
<rect x="-210.9" y="170.9" width="40.0" height="40.0" fill="none" stroke="#888" stroke-width="0.5" stroke-dasharray="4 3"/>
<rect x="-171.5" y="-200.9" width="343.0" height="20.0" fill="none" stroke="#888" stroke-width="0.5" stroke-dasharray="4 3"/>
<rect x="-171.5" y="180.9" width="343.0" height="20.0" fill="none" stroke="#888" stroke-width="0.5" stroke-dasharray="4 3"/>
<rect x="180.9" y="-171.5" width="20.0" height="343.0" fill="none" stroke="#888" stroke-width="0.5" stroke-dasharray="4 3"/>
<rect x="-200.9" y="-171.5" width="20.0" height="343.0" fill="none" stroke="#888" stroke-width="0.5" stroke-dasharray="4 3"/>
<rect x="-350.0" y="-350.0" width="700.0" height="700.0" fill="none" stroke="#111" stroke-width="0.9"/>
    
<g stroke="#111" fill="#111" stroke-width="0.6" font-family="sans-serif">
  <line x1="-350.0" y1="362.0" x2="-350.0" y2="386.0" stroke-width="0.4" stroke="#666"/>
  <line x1="350.0" y1="362.0" x2="350.0" y2="386.0" stroke-width="0.4" stroke="#666"/>
  <line x1="-350.0" y1="378.0" x2="350.0" y2="378.0" marker-start="url(#arr-top)" marker-end="url(#arr-top)"/>
  <text x="0" y="373.0" text-anchor="middle" font-size="11" stroke="none">700</text>
</g>
    
<g stroke="#111" fill="#111" stroke-width="0.6" font-family="sans-serif">
  <line x1="362.0" y1="-350.0" x2="386.0" y2="-350.0" stroke-width="0.4" stroke="#666"/>
  <line x1="362.0" y1="350.0" x2="386.0" y2="350.0" stroke-width="0.4" stroke="#666"/>
  <line x1="378.0" y1="-350.0" x2="378.0" y2="350.0" marker-start="url(#arr-top)" marker-end="url(#arr-top)"/>
  <text x="384.0" y="0.0" text-anchor="start" dominant-baseline="middle" font-size="11" stroke="none">700</text>
</g>
  </g></g>
</g>
</svg>