<?xml version="1.0" encoding="UTF-8"?>
<svg xmlns="http://www.w3.org/2000/svg" viewBox="-20 -10 2440 2454" width="2440">
<defs><marker id="arr-front" viewBox="0 0 10 10" refX="9" refY="5" markerWidth="8" markerHeight="8" orient="auto-start-reverse"><path d="M 0 0 L 10 5 L 0 10 z" fill="#111"/></marker>
<marker id="arr-side" viewBox="0 0 10 10" refX="9" refY="5" markerWidth="8" markerHeight="8" orient="auto-start-reverse"><path d="M 0 0 L 10 5 L 0 10 z" fill="#111"/></marker>
<marker id="arr-top" viewBox="0 0 10 10" refX="9" refY="5" markerWidth="8" markerHeight="8" orient="auto-start-reverse"><path d="M 0 0 L 10 5 L 0 10 z" fill="#111"/></marker></defs>
<rect x="-20" y="-10" width="2440" height="2454" fill="#fafaf7"/>

<text x="1200" y="24" text-anchor="middle" font-size="22" font-weight="700" fill="#111" font-family="sans-serif">圓餐桌</text>
<text x="1200" y="46" text-anchor="middle" font-size="12" fill="#666" font-family="sans-serif">1000 × 1000 × 750 mm · 台灣檜木 · 9 件零件</text>
<g transform="translate(0, 70)">
  <g transform="translate(590.0, 872.0)">
    <rect x="-582.0" y="-864.0" width="1164.0" height="996.0" fill="none" stroke="#222" stroke-width="1"/>
    
<line x1="-582.0" y1="-832.0" x2="582.0" y2="-832.0" stroke="#222" stroke-width="0.6"/>
<text x="-572.0" y="-842.0" font-size="13" font-weight="700" fill="#111" font-family="sans-serif">正視圖</text>
<text x="-500.0" y="-842.0" font-size="10" fill="#666" font-family="sans-serif">FRONT VIEW</text>
    
<g stroke="#888" stroke-width="0.5" stroke-dasharray="8 2 2 2" opacity="0.7">
  <line x1="0" y1="-760.0" x2="0" y2="10.0"/>
  <line x1="-510.0" y1="-375.0" x2="510.0" y2="-375.0"/>
</g>
    <rect x="-500.0" y="-750.0" width="1000.0" height="750.0" fill="none" stroke="#999" stroke-dasharray="3 3" stroke-width="0.5" opacity="0.8"/>
    <rect x="-218.3" y="-722.0" width="436.6" height="100.0" fill="none" stroke="#888" stroke-width="0.5" stroke-dasharray="4 3"/>
<polygon points="217.5,-722.0 277.5,-722.0 264.0,0.0 231.0,0.0" fill="none" stroke="#888" stroke-width="0.5" stroke-dasharray="4 3"/>
<polygon points="-277.5,-722.0 -217.5,-722.0 -231.0,0.0 -264.0,0.0" fill="none" stroke="#888" stroke-width="0.5" stroke-dasharray="4 3"/>
<rect x="235.0" y="-722.0" width="25.0" height="100.0" fill="none" stroke="#111" stroke-width="0.9"/>
<rect x="-260.0" y="-722.0" width="25.0" height="100.0" fill="none" stroke="#111" stroke-width="0.9"/>
<rect x="-218.3" y="-722.0" width="436.6" height="100.0" fill="none" stroke="#111" stroke-width="0.9"/>
<polygon points="217.5,-722.0 277.5,-722.0 264.0,0.0 231.0,0.0" fill="none" stroke="#111" stroke-width="0.9"/>
<polygon points="-277.5,-722.0 -217.5,-722.0 -231.0,0.0 -264.0,0.0" fill="none" stroke="#111" stroke-width="0.9"/>
<rect x="-500.0" y="-750.0" width="1000.0" height="28.0" fill="none" stroke="#111" stroke-width="0.9"/>
    
<g stroke="#111" fill="#111" stroke-width="0.6" font-family="sans-serif">
  <line x1="-500.0" y1="12.0" x2="-500.0" y2="36.0" stroke-width="0.4" stroke="#666"/>
  <line x1="500.0" y1="12.0" x2="500.0" y2="36.0" stroke-width="0.4" stroke="#666"/>
  <line x1="-500.0" y1="28.0" x2="500.0" y2="28.0" marker-start="url(#arr-front)" marker-end="url(#arr-front)"/>
  <text x="0" y="23.0" text-anchor="middle" font-size="11" stroke="none">1000</text>
</g>
    
<g stroke="#111" fill="#111" stroke-width="0.6" font-family="sans-serif">
  <line x1="512.0" y1="-750.0" x2="536.0" y2="-750.0" stroke-width="0.4" stroke="#666"/>
  <line x1="512.0" y1="0.0" x2="536.0" y2="0.0" stroke-width="0.4" stroke="#666"/>
  <line x1="528.0" y1="-750.0" x2="528.0" y2="0.0" marker-start="url(#arr-front)" marker-end="url(#arr-front)"/>
  <text x="534.0" y="-375.0" text-anchor="start" dominant-baseline="middle" font-size="11" stroke="none">750</text>
</g>
  </g>
  <g transform="translate(1220, 0)"><g transform="translate(590.0, 872.0)">
    <rect x="-582.0" y="-864.0" width="1164.0" height="996.0" fill="none" stroke="#222" stroke-width="1"/>
    
<line x1="-582.0" y1="-832.0" x2="582.0" y2="-832.0" stroke="#222" stroke-width="0.6"/>
<text x="-572.0" y="-842.0" font-size="13" font-weight="700" fill="#111" font-family="sans-serif">側視圖</text>
<text x="-500.0" y="-842.0" font-size="10" fill="#666" font-family="sans-serif">SIDE VIEW</text>
    
<g stroke="#888" stroke-width="0.5" stroke-dasharray="8 2 2 2" opacity="0.7">
  <line x1="0" y1="-760.0" x2="0" y2="10.0"/>
  <line x1="-510.0" y1="-375.0" x2="510.0" y2="-375.0"/>
</g>
    <rect x="-500.0" y="-750.0" width="1000.0" height="750.0" fill="none" stroke="#999" stroke-dasharray="3 3" stroke-width="0.5" opacity="0.8"/>
    <rect x="-218.3" y="-722.0" width="436.6" height="100.0" fill="none" stroke="#888" stroke-width="0.5" stroke-dasharray="4 3"/>
<polygon points="-277.5,-722.0 -217.5,-722.0 -231.0,0.0 -264.0,0.0" fill="none" stroke="#888" stroke-width="0.5" stroke-dasharray="4 3"/>
<polygon points="217.5,-722.0 277.5,-722.0 264.0,0.0 231.0,0.0" fill="none" stroke="#888" stroke-width="0.5" stroke-dasharray="4 3"/>
<rect x="-260.0" y="-722.0" width="25.0" height="100.0" fill="none" stroke="#111" stroke-width="0.9"/>
<rect x="235.0" y="-722.0" width="25.0" height="100.0" fill="none" stroke="#111" stroke-width="0.9"/>
<rect x="-218.3" y="-722.0" width="436.6" height="100.0" fill="none" stroke="#111" stroke-width="0.9"/>
<polygon points="-277.5,-722.0 -217.5,-722.0 -231.0,0.0 -264.0,0.0" fill="none" stroke="#111" stroke-width="0.9"/>
<polygon points="217.5,-722.0 277.5,-722.0 264.0,0.0 231.0,0.0" fill="none" stroke="#111" stroke-width="0.9"/>
<rect x="-500.0" y="-750.0" width="1000.0" height="28.0" fill="none" stroke="#111" stroke-width="0.9"/>
    
<g stroke="#111" fill="#111" stroke-width="0.6" font-family="sans-serif">
  <line x1="-500.0" y1="12.0" x2="-500.0" y2="36.0" stroke-width="0.4" stroke="#666"/>
  <line x1="500.0" y1="12.0" x2="500.0" y2="36.0" stroke-width="0.4" stroke="#666"/>
  <line x1="-500.0" y1="28.0" x2="500.0" y2="28.0" marker-start="url(#arr-side)" marker-end="url(#arr-side)"/>
  <text x="0" y="23.0" text-anchor="middle" font-size="11" stroke="none">1000</text>
</g>
    
<g stroke="#111" fill="#111" stroke-width="0.6" font-family="sans-serif">
  <line x1="512.0" y1="-750.0" x2="536.0" y2="-750.0" stroke-width="0.4" stroke="#666"/>
  <line x1="512.0" y1="0.0" x2="536.0" y2="0.0" stroke-width="0.4" stroke="#666"/>
  <line x1="528.0" y1="-750.0" x2="528.0" y2="0.0" marker-start="url(#arr-side)" marker-end="url(#arr-side)"/>
  <text x="534.0" y="-375.0" text-anchor="start" dominant-baseline="middle" font-size="11" stroke="none">750</text>
</g>
  </g></g>
  <g transform="translate(0, 1052)"><g transform="translate(590.0, 622.0)">
    <rect x="-582.0" y="-614.0" width="1164.0" height="1246.0" fill="none" stroke="#222" stroke-width="1"/>
    
<line x1="-582.0" y1="-582.0" x2="582.0" y2="-582.0" stroke="#222" stroke-width="0.6"/>
<text x="-572.0" y="-592.0" font-size="13" font-weight="700" fill="#111" font-family="sans-serif">俯視圖</text>
<text x="-500.0" y="-592.0" font-size="10" fill="#666" font-family="sans-serif">TOP VIEW</text>
    
<g stroke="#888" stroke-width="0.5" stroke-dasharray="8 2 2 2" opacity="0.7">
  <line x1="0" y1="-510.0" x2="0" y2="510.0"/>
  <line x1="-510.0" y1="0.0" x2="510.0" y2="0.0"/>
</g>
    <rect x="-500.0" y="-500.0" width="1000.0" height="1000.0" fill="none" stroke="#999" stroke-dasharray="3 3" stroke-width="0.5" opacity="0.8"/>
    <rect x="217.5" y="-277.5" width="60.0" height="60.0" fill="none" stroke="#888" stroke-width="0.5" stroke-dasharray="4 3"/>
<rect x="217.5" y="217.5" width="60.0" height="60.0" fill="none" stroke="#888" stroke-width="0.5" stroke-dasharray="4 3"/>
<rect x="-277.5" y="-277.5" width="60.0" height="60.0" fill="none" stroke="#888" stroke-width="0.5" stroke-dasharray="4 3"/>
<rect x="-277.5" y="217.5" width="60.0" height="60.0" fill="none" stroke="#888" stroke-width="0.5" stroke-dasharray="4 3"/>
<rect x="-218.3" y="-260.0" width="436.6" height="25.0" fill="none" stroke="#888" stroke-width="0.5" stroke-dasharray="4 3"/>
<rect x="-218.3" y="235.0" width="436.6" height="25.0" fill="none" stroke="#888" stroke-width="0.5" stroke-dasharray="4 3"/>
<rect x="235.0" y="-218.3" width="25.0" height="436.6" fill="none" stroke="#888" stroke-width="0.5" stroke-dasharray="4 3"/>
<rect x="-260.0" y="-218.3" width="25.0" height="436.6" fill="none" stroke="#888" stroke-width="0.5" stroke-dasharray="4 3"/>
<rect x="-500.0" y="-500.0" width="1000.0" height="1000.0" fill="none" stroke="#111" stroke-width="0.9"/>
    
<g stroke="#111" fill="#111" stroke-width="0.6" font-family="sans-serif">
  <line x1="-500.0" y1="512.0" x2="-500.0" y2="536.0" stroke-width="0.4" stroke="#666"/>
  <line x1="500.0" y1="512.0" x2="500.0" y2="536.0" stroke-width="0.4" stroke="#666"/>
  <line x1="-500.0" y1="528.0" x2="500.0" y2="528.0" marker-start="url(#arr-top)" marker-end="url(#arr-top)"/>
  <text x="0" y="523.0" text-anchor="middle" font-size="11" stroke="none">1000</text>
</g>
    
<g stroke="#111" fill="#111" stroke-width="0.6" font-family="sans-serif">
  <line x1="512.0" y1="-500.0" x2="536.0" y2="-500.0" stroke-width="0.4" stroke="#666"/>
  <line x1="512.0" y1="500.0" x2="536.0" y2="500.0" stroke-width="0.4" stroke="#666"/>
  <line x1="528.0" y1="-500.0" x2="528.0" y2="500.0" marker-start="url(#arr-top)" marker-end="url(#arr-top)"/>
  <text x="534.0" y="0.0" text-anchor="start" dominant-baseline="middle" font-size="11" stroke="none">1000</text>
</g>
  </g></g>
</g>
</svg>