<?xml version="1.0" encoding="UTF-8"?>
<svg xmlns="http://www.w3.org/2000/svg" viewBox="-20 -10 1690 2054" width="1690">
<defs><marker id="arr-front" viewBox="0 0 10 10" refX="9" refY="5" markerWidth="8" markerHeight="8" orient="auto-start-reverse"><path d="M 0 0 L 10 5 L 0 10 z" fill="#111"/></marker>
<marker id="arr-side" viewBox="0 0 10 10" refX="9" refY="5" markerWidth="8" markerHeight="8" orient="auto-start-reverse"><path d="M 0 0 L 10 5 L 0 10 z" fill="#111"/></marker>
<marker id="arr-top" viewBox="0 0 10 10" refX="9" refY="5" markerWidth="8" markerHeight="8" orient="auto-start-reverse"><path d="M 0 0 L 10 5 L 0 10 z" fill="#111"/></marker></defs>
<rect x="-20" y="-10" width="1690" height="2054" fill="#fafaf7"/>

<text x="825" y="24" text-anchor="middle" font-size="22" font-weight="700" fill="#111" font-family="sans-serif">鞋櫃</text>
<text x="825" y="46" text-anchor="middle" font-size="12" fill="#666" font-family="sans-serif">900 × 350 × 1000 mm · 台灣檜木 · 23 件零件</text>
<g transform="translate(0, 70)">
  <g transform="translate(540.0, 1122.0)">
    <rect x="-532.0" y="-1114.0" width="1064.0" height="1246.0" fill="none" stroke="#222" stroke-width="1"/>
    
<line x1="-532.0" y1="-1082.0" x2="532.0" y2="-1082.0" stroke="#222" stroke-width="0.6"/>
<text x="-522.0" y="-1092.0" font-size="13" font-weight="700" fill="#111" font-family="sans-serif">正視圖</text>
<text x="-450.0" y="-1092.0" font-size="10" fill="#666" font-family="sans-serif">FRONT VIEW</text>
    
<g stroke="#888" stroke-width="0.5" stroke-dasharray="8 2 2 2" opacity="0.7">
  <line x1="0" y1="-1010.0" x2="0" y2="10.0"/>
  <line x1="-460.0" y1="-500.0" x2="460.0" y2="-500.0"/>
</g>
    <rect x="-450.0" y="-1000.0" width="900.0" height="1000.0" fill="none" stroke="#999" stroke-dasharray="3 3" stroke-width="0.5" opacity="0.8"/>
    <rect x="-432.0" y="-982.0" width="864.0" height="884.0" fill="none" stroke="#111" stroke-width="0.9"/>
<polygon points="-450.0,-80.0 -415.0,-80.0 -422.9,0.0 -442.1,0.0" fill="none" stroke="#888" stroke-width="0.5" stroke-dasharray="4 3"/>
<polygon points="415.0,-80.0 450.0,-80.0 442.1,0.0 422.9,0.0" fill="none" stroke="#888" stroke-width="0.5" stroke-dasharray="4 3"/>
<rect x="-450.0" y="-982.0" width="18.0" height="884.0" fill="none" stroke="#111" stroke-width="0.9"/>
<rect x="432.0" y="-982.0" width="18.0" height="884.0" fill="none" stroke="#111" stroke-width="0.9"/>
<rect x="-432.0" y="-292.8" width="864.0" height="18.0" fill="none" stroke="#111" stroke-width="0.9"/>
<rect x="-432.0" y="-469.6" width="864.0" height="18.0" fill="none" stroke="#111" stroke-width="0.9"/>
<rect x="-432.0" y="-646.4" width="864.0" height="18.0" fill="none" stroke="#111" stroke-width="0.9"/>
<rect x="-432.0" y="-823.2" width="864.0" height="18.0" fill="none" stroke="#111" stroke-width="0.9"/>
<polygon points="-450.0,-80.0 -415.0,-80.0 -422.9,0.0 -442.1,0.0" fill="none" stroke="#111" stroke-width="0.9"/>
<polygon points="415.0,-80.0 450.0,-80.0 442.1,0.0 422.9,0.0" fill="none" stroke="#111" stroke-width="0.9"/>
<rect x="-450.0" y="-1000.0" width="900.0" height="18.0" fill="none" stroke="#111" stroke-width="0.9"/>
<rect x="-450.0" y="-98.0" width="900.0" height="18.0" fill="none" stroke="#111" stroke-width="0.9"/>
<rect x="-377.0" y="-924.0" width="322.0" height="774.0" fill="none" stroke="#111" stroke-width="0.9"/>
<rect x="55.0" y="-924.0" width="322.0" height="774.0" fill="none" stroke="#111" stroke-width="0.9"/>
<rect x="-370.0" y="-978.0" width="308.0" height="60.0" fill="none" stroke="#111" stroke-width="0.9"/>
<rect x="-370.0" y="-158.0" width="308.0" height="60.0" fill="none" stroke="#111" stroke-width="0.9"/>
<rect x="-430.0" y="-978.0" width="60.0" height="880.0" fill="none" stroke="#111" stroke-width="0.9"/>
<rect x="-62.0" y="-978.0" width="60.0" height="880.0" fill="none" stroke="#111" stroke-width="0.9"/>
<rect x="62.0" y="-978.0" width="308.0" height="60.0" fill="none" stroke="#111" stroke-width="0.9"/>
<rect x="62.0" y="-158.0" width="308.0" height="60.0" fill="none" stroke="#111" stroke-width="0.9"/>
<rect x="2.0" y="-978.0" width="60.0" height="880.0" fill="none" stroke="#111" stroke-width="0.9"/>
<rect x="370.0" y="-978.0" width="60.0" height="880.0" fill="none" stroke="#111" stroke-width="0.9"/>
    
<g stroke="#111" fill="#111" stroke-width="0.6" font-family="sans-serif">
  <line x1="-450.0" y1="12.0" x2="-450.0" y2="36.0" stroke-width="0.4" stroke="#666"/>
  <line x1="450.0" y1="12.0" x2="450.0" y2="36.0" stroke-width="0.4" stroke="#666"/>
  <line x1="-450.0" y1="28.0" x2="450.0" y2="28.0" marker-start="url(#arr-front)" marker-end="url(#arr-front)"/>
  <text x="0" y="23.0" text-anchor="middle" font-size="11" stroke="none">900</text>
</g>
    
<g stroke="#111" fill="#111" stroke-width="0.6" font-family="sans-serif">
  <line x1="462.0" y1="-1000.0" x2="486.0" y2="-1000.0" stroke-width="0.4" stroke="#666"/>
  <line x1="462.0" y1="0.0" x2="486.0" y2="0.0" stroke-width="0.4" stroke="#666"/>
  <line x1="478.0" y1="-1000.0" x2="478.0" y2="0.0" marker-start="url(#arr-front)" marker-end="url(#arr-front)"/>
  <text x="484.0" y="-500.0" text-anchor="start" dominant-baseline="middle" font-size="11" stroke="none">1000</text>
</g>
  </g>
  <g transform="translate(1120, 0)"><g transform="translate(265.0, 1122.0)">
    <rect x="-257.0" y="-1114.0" width="514.0" height="1246.0" fill="none" stroke="#222" stroke-width="1"/>
    
<line x1="-257.0" y1="-1082.0" x2="257.0" y2="-1082.0" stroke="#222" stroke-width="0.6"/>
<text x="-247.0" y="-1092.0" font-size="13" font-weight="700" fill="#111" font-family="sans-serif">側視圖</text>
<text x="-175.0" y="-1092.0" font-size="10" fill="#666" font-family="sans-serif">SIDE VIEW</text>
    
<g stroke="#888" stroke-width="0.5" stroke-dasharray="8 2 2 2" opacity="0.7">
  <line x1="0" y1="-1010.0" x2="0" y2="10.0"/>
  <line x1="-185.0" y1="-500.0" x2="185.0" y2="-500.0"/>
</g>
    <rect x="-175.0" y="-1000.0" width="350.0" height="1000.0" fill="none" stroke="#999" stroke-dasharray="3 3" stroke-width="0.5" opacity="0.8"/>
    <rect x="-172.0" y="-982.0" width="344.0" height="884.0" fill="none" stroke="#888" stroke-width="0.5" stroke-dasharray="4 3"/>
<polygon points="-175.0,-80.0 -140.0,-80.0 -147.9,0.0 -167.1,0.0" fill="none" stroke="#888" stroke-width="0.5" stroke-dasharray="4 3"/>
<polygon points="140.0,-80.0 175.0,-80.0 167.1,0.0 147.9,0.0" fill="none" stroke="#888" stroke-width="0.5" stroke-dasharray="4 3"/>
<rect x="-198.0" y="-978.0" width="22.0" height="880.0" fill="none" stroke="#888" stroke-width="0.5" stroke-dasharray="4 3"/>
<rect x="-198.0" y="-978.0" width="22.0" height="60.0" fill="none" stroke="#888" stroke-width="0.5" stroke-dasharray="4 3"/>
<rect x="-198.0" y="-158.0" width="22.0" height="60.0" fill="none" stroke="#888" stroke-width="0.5" stroke-dasharray="4 3"/>
<rect x="-193.0" y="-924.0" width="12.0" height="774.0" fill="none" stroke="#888" stroke-width="0.5" stroke-dasharray="4 3"/>
<rect x="-198.0" y="-978.0" width="22.0" height="880.0" fill="none" stroke="#888" stroke-width="0.5" stroke-dasharray="4 3"/>
<rect x="-198.0" y="-978.0" width="22.0" height="880.0" fill="none" stroke="#888" stroke-width="0.5" stroke-dasharray="4 3"/>
<rect x="-198.0" y="-978.0" width="22.0" height="60.0" fill="none" stroke="#888" stroke-width="0.5" stroke-dasharray="4 3"/>
<rect x="-198.0" y="-158.0" width="22.0" height="60.0" fill="none" stroke="#888" stroke-width="0.5" stroke-dasharray="4 3"/>
<rect x="-193.0" y="-924.0" width="12.0" height="774.0" fill="none" stroke="#111" stroke-width="0.9"/>
<rect x="-198.0" y="-978.0" width="22.0" height="880.0" fill="none" stroke="#111" stroke-width="0.9"/>
<rect x="-172.0" y="-292.8" width="344.0" height="18.0" fill="none" stroke="#888" stroke-width="0.5" stroke-dasharray="4 3"/>
<rect x="-172.0" y="-469.6" width="344.0" height="18.0" fill="none" stroke="#888" stroke-width="0.5" stroke-dasharray="4 3"/>
<rect x="-172.0" y="-646.4" width="344.0" height="18.0" fill="none" stroke="#888" stroke-width="0.5" stroke-dasharray="4 3"/>
<rect x="-172.0" y="-823.2" width="344.0" height="18.0" fill="none" stroke="#888" stroke-width="0.5" stroke-dasharray="4 3"/>
<rect x="169.0" y="-982.0" width="6.0" height="884.0" fill="none" stroke="#111" stroke-width="0.9"/>
<polygon points="-175.0,-80.0 -140.0,-80.0 -147.9,0.0 -167.1,0.0" fill="none" stroke="#111" stroke-width="0.9"/>
<polygon points="140.0,-80.0 175.0,-80.0 167.1,0.0 147.9,0.0" fill="none" stroke="#111" stroke-width="0.9"/>
<rect x="-175.0" y="-1000.0" width="350.0" height="18.0" fill="none" stroke="#111" stroke-width="0.9"/>
<rect x="-175.0" y="-98.0" width="350.0" height="18.0" fill="none" stroke="#111" stroke-width="0.9"/>
<rect x="-172.0" y="-982.0" width="344.0" height="884.0" fill="none" stroke="#111" stroke-width="0.9"/>
    
<g stroke="#111" fill="#111" stroke-width="0.6" font-family="sans-serif">
  <line x1="-175.0" y1="12.0" x2="-175.0" y2="36.0" stroke-width="0.4" stroke="#666"/>
  <line x1="175.0" y1="12.0" x2="175.0" y2="36.0" stroke-width="0.4" stroke="#666"/>
  <line x1="-175.0" y1="28.0" x2="175.0" y2="28.0" marker-start="url(#arr-side)" marker-end="url(#arr-side)"/>
  <text x="0" y="23.0" text-anchor="middle" font-size="11" stroke="none">350</text>
</g>
    
<g stroke="#111" fill="#111" stroke-width="0.6" font-family="sans-serif">
  <line x1="187.0" y1="-1000.0" x2="211.0" y2="-1000.0" stroke-width="0.4" stroke="#666"/>
  <line x1="187.0" y1="0.0" x2="211.0" y2="0.0" stroke-width="0.4" stroke="#666"/>
  <line x1="203.0" y1="-1000.0" x2="203.0" y2="0.0" marker-start="url(#arr-side)" marker-end="url(#arr-side)"/>
  <text x="209.0" y="-500.0" text-anchor="start" dominant-baseline="middle" font-size="11" stroke="none">1000</text>
</g>
  </g></g>
  <g transform="translate(0, 1302)"><g transform="translate(540.0, 297.0)">
    <rect x="-532.0" y="-289.0" width="1064.0" height="596.0" fill="none" stroke="#222" stroke-width="1"/>
    
<line x1="-532.0" y1="-257.0" x2="532.0" y2="-257.0" stroke="#222" stroke-width="0.6"/>
<text x="-522.0" y="-267.0" font-size="13" font-weight="700" fill="#111" font-family="sans-serif">俯視圖</text>
<text x="-450.0" y="-267.0" font-size="10" fill="#666" font-family="sans-serif">TOP VIEW</text>
    
<g stroke="#888" stroke-width="0.5" stroke-dasharray="8 2 2 2" opacity="0.7">
  <line x1="0" y1="-185.0" x2="0" y2="185.0"/>
  <line x1="-460.0" y1="0.0" x2="460.0" y2="0.0"/>
</g>
    <rect x="-450.0" y="-175.0" width="900.0" height="350.0" fill="none" stroke="#999" stroke-dasharray="3 3" stroke-width="0.5" opacity="0.8"/>
    <rect x="-450.0" y="-175.0" width="35.0" height="35.0" fill="none" stroke="#888" stroke-width="0.5" stroke-dasharray="4 3"/>
<rect x="-450.0" y="140.0" width="35.0" height="35.0" fill="none" stroke="#888" stroke-width="0.5" stroke-dasharray="4 3"/>
<rect x="415.0" y="-175.0" width="35.0" height="35.0" fill="none" stroke="#888" stroke-width="0.5" stroke-dasharray="4 3"/>
<rect x="415.0" y="140.0" width="35.0" height="35.0" fill="none" stroke="#888" stroke-width="0.5" stroke-dasharray="4 3"/>
<rect x="-450.0" y="-175.0" width="900.0" height="350.0" fill="none" stroke="#888" stroke-width="0.5" stroke-dasharray="4 3"/>
<rect x="-370.0" y="-198.0" width="308.0" height="22.0" fill="none" stroke="#888" stroke-width="0.5" stroke-dasharray="4 3"/>
<rect x="62.0" y="-198.0" width="308.0" height="22.0" fill="none" stroke="#888" stroke-width="0.5" stroke-dasharray="4 3"/>
<rect x="-432.0" y="-172.0" width="864.0" height="344.0" fill="none" stroke="#888" stroke-width="0.5" stroke-dasharray="4 3"/>
<rect x="-432.0" y="-172.0" width="864.0" height="344.0" fill="none" stroke="#888" stroke-width="0.5" stroke-dasharray="4 3"/>
<rect x="-432.0" y="-172.0" width="864.0" height="344.0" fill="none" stroke="#888" stroke-width="0.5" stroke-dasharray="4 3"/>
<rect x="-432.0" y="-172.0" width="864.0" height="344.0" fill="none" stroke="#888" stroke-width="0.5" stroke-dasharray="4 3"/>
<rect x="-377.0" y="-193.0" width="322.0" height="12.0" fill="none" stroke="#111" stroke-width="0.9"/>
<rect x="55.0" y="-193.0" width="322.0" height="12.0" fill="none" stroke="#111" stroke-width="0.9"/>
<rect x="-370.0" y="-198.0" width="308.0" height="22.0" fill="none" stroke="#111" stroke-width="0.9"/>
<rect x="-430.0" y="-198.0" width="60.0" height="22.0" fill="none" stroke="#111" stroke-width="0.9"/>
<rect x="-62.0" y="-198.0" width="60.0" height="22.0" fill="none" stroke="#111" stroke-width="0.9"/>
<rect x="62.0" y="-198.0" width="308.0" height="22.0" fill="none" stroke="#111" stroke-width="0.9"/>
<rect x="2.0" y="-198.0" width="60.0" height="22.0" fill="none" stroke="#111" stroke-width="0.9"/>
<rect x="370.0" y="-198.0" width="60.0" height="22.0" fill="none" stroke="#111" stroke-width="0.9"/>
<rect x="-450.0" y="-172.0" width="18.0" height="344.0" fill="none" stroke="#888" stroke-width="0.5" stroke-dasharray="4 3"/>
<rect x="432.0" y="-172.0" width="18.0" height="344.0" fill="none" stroke="#888" stroke-width="0.5" stroke-dasharray="4 3"/>
<rect x="-432.0" y="169.0" width="864.0" height="6.0" fill="none" stroke="#888" stroke-width="0.5" stroke-dasharray="4 3"/>
<rect x="-450.0" y="-175.0" width="900.0" height="350.0" fill="none" stroke="#111" stroke-width="0.9"/>
    
<g stroke="#111" fill="#111" stroke-width="0.6" font-family="sans-serif">
  <line x1="-450.0" y1="187.0" x2="-450.0" y2="211.0" stroke-width="0.4" stroke="#666"/>
  <line x1="450.0" y1="187.0" x2="450.0" y2="211.0" stroke-width="0.4" stroke="#666"/>
  <line x1="-450.0" y1="203.0" x2="450.0" y2="203.0" marker-start="url(#arr-top)" marker-end="url(#arr-top)"/>
  <text x="0" y="198.0" text-anchor="middle" font-size="11" stroke="none">900</text>
</g>
    
<g stroke="#111" fill="#111" stroke-width="0.6" font-family="sans-serif">
  <line x1="462.0" y1="-175.0" x2="486.0" y2="-175.0" stroke-width="0.4" stroke="#666"/>
  <line x1="462.0" y1="175.0" x2="486.0" y2="175.0" stroke-width="0.4" stroke="#666"/>
  <line x1="478.0" y1="-175.0" x2="478.0" y2="175.0" marker-start="url(#arr-top)" marker-end="url(#arr-top)"/>
  <text x="484.0" y="0.0" text-anchor="start" dominant-baseline="middle" font-size="11" stroke="none">350</text>
</g>
  </g></g>
</g>
</svg>