<?xml version="1.0" encoding="UTF-8"?>
<svg xmlns="http://www.w3.org/2000/svg" viewBox="-20 -50 1670 1910" width="1670" height="1910">
<rect x="-20" y="-50" width="1670" height="1910" fill="#fafaf7"/>
<text x="815" y="-10" text-anchor="middle" font-size="24" font-weight="700" fill="#111" font-family="sans-serif">鞋櫃</text>
<text x="815" y="12" text-anchor="middle" font-size="13" fill="#666" font-family="sans-serif">900 × 350 × 1000 mm · 台灣檜木 · 19 件</text>
<g transform="translate(530, 100)">
    <rect x="-450.0" y="0" width="900.0" height="1000.0" fill="none" stroke="#888" stroke-dasharray="4 3" stroke-width="0.8"/>
    <rect x="-450.0" y="0.0" width="900.0" height="18.0" fill="#d8b878" stroke="#3a2a1a" stroke-width="1.2" opacity="0.92"/>
<rect x="-450.0" y="982.0" width="900.0" height="18.0" fill="#d8b878" stroke="#3a2a1a" stroke-width="1.2" opacity="0.92"/>
<rect x="-450.0" y="18.0" width="18.0" height="964.0" fill="#d8b878" stroke="#3a2a1a" stroke-width="1.2" opacity="0.92"/>
<rect x="432.0" y="18.0" width="18.0" height="964.0" fill="#d8b878" stroke="#3a2a1a" stroke-width="1.2" opacity="0.92"/>
<rect x="-432.0" y="771.2" width="864.0" height="18.0" fill="#d8b878" stroke="#3a2a1a" stroke-width="1.2" opacity="0.92"/>
<rect x="-432.0" y="578.4" width="864.0" height="18.0" fill="#d8b878" stroke="#3a2a1a" stroke-width="1.2" opacity="0.92"/>
<rect x="-432.0" y="385.6" width="864.0" height="18.0" fill="#d8b878" stroke="#3a2a1a" stroke-width="1.2" opacity="0.92"/>
<rect x="-432.0" y="192.8" width="864.0" height="18.0" fill="#d8b878" stroke="#3a2a1a" stroke-width="1.2" opacity="0.92"/>
<rect x="-432.0" y="18.0" width="864.0" height="964.0" fill="#d8b878" stroke="#3a2a1a" stroke-width="1.2" opacity="0.92"/>
<rect x="-370.0" y="22.0" width="308.0" height="60.0" fill="#d8b878" stroke="#3a2a1a" stroke-width="1.2" opacity="0.92"/>
<rect x="-370.0" y="922.0" width="308.0" height="60.0" fill="#d8b878" stroke="#3a2a1a" stroke-width="1.2" opacity="0.92"/>
<rect x="-430.0" y="22.0" width="60.0" height="960.0" fill="#d8b878" stroke="#3a2a1a" stroke-width="1.2" opacity="0.92"/>
<rect x="-62.0" y="22.0" width="60.0" height="960.0" fill="#d8b878" stroke="#3a2a1a" stroke-width="1.2" opacity="0.92"/>
<rect x="-377.0" y="76.0" width="322.0" height="854.0" fill="#d8b878" stroke="#3a2a1a" stroke-width="1.2" opacity="0.92"/>
<rect x="62.0" y="22.0" width="308.0" height="60.0" fill="#d8b878" stroke="#3a2a1a" stroke-width="1.2" opacity="0.92"/>
<rect x="62.0" y="922.0" width="308.0" height="60.0" fill="#d8b878" stroke="#3a2a1a" stroke-width="1.2" opacity="0.92"/>
<rect x="2.0" y="22.0" width="60.0" height="960.0" fill="#d8b878" stroke="#3a2a1a" stroke-width="1.2" opacity="0.92"/>
<rect x="370.0" y="22.0" width="60.0" height="960.0" fill="#d8b878" stroke="#3a2a1a" stroke-width="1.2" opacity="0.92"/>
<rect x="55.0" y="76.0" width="322.0" height="854.0" fill="#d8b878" stroke="#3a2a1a" stroke-width="1.2" opacity="0.92"/>
    <text x="0" y="1050.0" text-anchor="middle" font-size="18" fill="#444" font-family="sans-serif">正視圖（900 × 1000 mm）</text>
  </g>
<g transform="translate(1375, 100)">
    <rect x="-175.0" y="0" width="350.0" height="1000.0" fill="none" stroke="#888" stroke-dasharray="4 3" stroke-width="0.8"/>
    <rect x="-175.0" y="0.0" width="350.0" height="18.0" fill="#d8b878" stroke="#3a2a1a" stroke-width="1.2" opacity="0.92"/>
<rect x="-175.0" y="982.0" width="350.0" height="18.0" fill="#d8b878" stroke="#3a2a1a" stroke-width="1.2" opacity="0.92"/>
<rect x="-172.0" y="18.0" width="344.0" height="964.0" fill="#d8b878" stroke="#3a2a1a" stroke-width="1.2" opacity="0.92"/>
<rect x="-172.0" y="18.0" width="344.0" height="964.0" fill="#d8b878" stroke="#3a2a1a" stroke-width="1.2" opacity="0.92"/>
<rect x="-172.0" y="771.2" width="344.0" height="18.0" fill="#d8b878" stroke="#3a2a1a" stroke-width="1.2" opacity="0.92"/>
<rect x="-172.0" y="578.4" width="344.0" height="18.0" fill="#d8b878" stroke="#3a2a1a" stroke-width="1.2" opacity="0.92"/>
<rect x="-172.0" y="385.6" width="344.0" height="18.0" fill="#d8b878" stroke="#3a2a1a" stroke-width="1.2" opacity="0.92"/>
<rect x="-172.0" y="192.8" width="344.0" height="18.0" fill="#d8b878" stroke="#3a2a1a" stroke-width="1.2" opacity="0.92"/>
<rect x="169.0" y="18.0" width="6.0" height="964.0" fill="#d8b878" stroke="#3a2a1a" stroke-width="1.2" opacity="0.92"/>
<rect x="-198.0" y="22.0" width="22.0" height="60.0" fill="#d8b878" stroke="#3a2a1a" stroke-width="1.2" opacity="0.92"/>
<rect x="-198.0" y="922.0" width="22.0" height="60.0" fill="#d8b878" stroke="#3a2a1a" stroke-width="1.2" opacity="0.92"/>
<rect x="-198.0" y="22.0" width="22.0" height="960.0" fill="#d8b878" stroke="#3a2a1a" stroke-width="1.2" opacity="0.92"/>
<rect x="-198.0" y="22.0" width="22.0" height="960.0" fill="#d8b878" stroke="#3a2a1a" stroke-width="1.2" opacity="0.92"/>
<rect x="-193.0" y="76.0" width="12.0" height="854.0" fill="#d8b878" stroke="#3a2a1a" stroke-width="1.2" opacity="0.92"/>
<rect x="-198.0" y="22.0" width="22.0" height="60.0" fill="#d8b878" stroke="#3a2a1a" stroke-width="1.2" opacity="0.92"/>
<rect x="-198.0" y="922.0" width="22.0" height="60.0" fill="#d8b878" stroke="#3a2a1a" stroke-width="1.2" opacity="0.92"/>
<rect x="-198.0" y="22.0" width="22.0" height="960.0" fill="#d8b878" stroke="#3a2a1a" stroke-width="1.2" opacity="0.92"/>
<rect x="-198.0" y="22.0" width="22.0" height="960.0" fill="#d8b878" stroke="#3a2a1a" stroke-width="1.2" opacity="0.92"/>
<rect x="-193.0" y="76.0" width="12.0" height="854.0" fill="#d8b878" stroke="#3a2a1a" stroke-width="1.2" opacity="0.92"/>
    <text x="0" y="1050.0" text-anchor="middle" font-size="18" fill="#444" font-family="sans-serif">側視圖（350 × 1000 mm）</text>
  </g>
<g transform="translate(530, 1350)">
    <rect x="-450.0" y="0" width="900.0" height="350.0" fill="none" stroke="#888" stroke-dasharray="4 3" stroke-width="0.8"/>
    <rect x="-450.0" y="-175.0" width="900.0" height="350.0" fill="#d8b878" stroke="#3a2a1a" stroke-width="1.2" opacity="0.92"/>
<rect x="-450.0" y="-175.0" width="900.0" height="350.0" fill="#d8b878" stroke="#3a2a1a" stroke-width="1.2" opacity="0.92"/>
<rect x="-450.0" y="-172.0" width="18.0" height="344.0" fill="#d8b878" stroke="#3a2a1a" stroke-width="1.2" opacity="0.92"/>
<rect x="432.0" y="-172.0" width="18.0" height="344.0" fill="#d8b878" stroke="#3a2a1a" stroke-width="1.2" opacity="0.92"/>
<rect x="-432.0" y="-172.0" width="864.0" height="344.0" fill="#d8b878" stroke="#3a2a1a" stroke-width="1.2" opacity="0.92"/>
<rect x="-432.0" y="-172.0" width="864.0" height="344.0" fill="#d8b878" stroke="#3a2a1a" stroke-width="1.2" opacity="0.92"/>
<rect x="-432.0" y="-172.0" width="864.0" height="344.0" fill="#d8b878" stroke="#3a2a1a" stroke-width="1.2" opacity="0.92"/>
<rect x="-432.0" y="-172.0" width="864.0" height="344.0" fill="#d8b878" stroke="#3a2a1a" stroke-width="1.2" opacity="0.92"/>
<rect x="-432.0" y="169.0" width="864.0" height="6.0" fill="#d8b878" stroke="#3a2a1a" stroke-width="1.2" opacity="0.92"/>
<rect x="-370.0" y="-198.0" width="308.0" height="22.0" fill="#d8b878" stroke="#3a2a1a" stroke-width="1.2" opacity="0.92"/>
<rect x="-370.0" y="-198.0" width="308.0" height="22.0" fill="#d8b878" stroke="#3a2a1a" stroke-width="1.2" opacity="0.92"/>
<rect x="-430.0" y="-198.0" width="60.0" height="22.0" fill="#d8b878" stroke="#3a2a1a" stroke-width="1.2" opacity="0.92"/>
<rect x="-62.0" y="-198.0" width="60.0" height="22.0" fill="#d8b878" stroke="#3a2a1a" stroke-width="1.2" opacity="0.92"/>
<rect x="-377.0" y="-193.0" width="322.0" height="12.0" fill="#d8b878" stroke="#3a2a1a" stroke-width="1.2" opacity="0.92"/>
<rect x="62.0" y="-198.0" width="308.0" height="22.0" fill="#d8b878" stroke="#3a2a1a" stroke-width="1.2" opacity="0.92"/>
<rect x="62.0" y="-198.0" width="308.0" height="22.0" fill="#d8b878" stroke="#3a2a1a" stroke-width="1.2" opacity="0.92"/>
<rect x="2.0" y="-198.0" width="60.0" height="22.0" fill="#d8b878" stroke="#3a2a1a" stroke-width="1.2" opacity="0.92"/>
<rect x="370.0" y="-198.0" width="60.0" height="22.0" fill="#d8b878" stroke="#3a2a1a" stroke-width="1.2" opacity="0.92"/>
<rect x="55.0" y="-193.0" width="322.0" height="12.0" fill="#d8b878" stroke="#3a2a1a" stroke-width="1.2" opacity="0.92"/>
    <text x="0" y="400.0" text-anchor="middle" font-size="18" fill="#444" font-family="sans-serif">俯視圖（900 × 350 mm）</text>
  </g>
</svg>