<?xml version="1.0" encoding="UTF-8"?>
<svg xmlns="http://www.w3.org/2000/svg" viewBox="-20 -10 1290 1704" width="1290">
<defs><marker id="arr-front" viewBox="0 0 10 10" refX="9" refY="5" markerWidth="8" markerHeight="8" orient="auto-start-reverse"><path d="M 0 0 L 10 5 L 0 10 z" fill="#111"/></marker>
<marker id="arr-side" viewBox="0 0 10 10" refX="9" refY="5" markerWidth="8" markerHeight="8" orient="auto-start-reverse"><path d="M 0 0 L 10 5 L 0 10 z" fill="#111"/></marker>
<marker id="arr-top" viewBox="0 0 10 10" refX="9" refY="5" markerWidth="8" markerHeight="8" orient="auto-start-reverse"><path d="M 0 0 L 10 5 L 0 10 z" fill="#111"/></marker></defs>
<rect x="-20" y="-10" width="1290" height="1704" fill="#fafaf7"/>

<text x="625" y="24" text-anchor="middle" font-size="22" font-weight="700" fill="#111" font-family="sans-serif">邊桌 / 床頭櫃</text>
<text x="625" y="46" text-anchor="middle" font-size="12" fill="#666" font-family="sans-serif">450 × 400 × 600 mm · 台灣檜木 · 9 件零件</text>
<g transform="translate(0, 70)">
  <g transform="translate(315.0, 722.0)">
    <rect x="-307.0" y="-714.0" width="614.0" height="846.0" fill="none" stroke="#222" stroke-width="1"/>
    
<line x1="-307.0" y1="-682.0" x2="307.0" y2="-682.0" stroke="#222" stroke-width="0.6"/>
<text x="-297.0" y="-692.0" font-size="13" font-weight="700" fill="#111" font-family="sans-serif">正視圖</text>
<text x="-225.0" y="-692.0" font-size="10" fill="#666" font-family="sans-serif">FRONT VIEW</text>
    
<g stroke="#888" stroke-width="0.5" stroke-dasharray="8 2 2 2" opacity="0.7">
  <line x1="0" y1="-610.0" x2="0" y2="10.0"/>
  <line x1="-235.0" y1="-300.0" x2="235.0" y2="-300.0"/>
</g>
    <rect x="-225.0" y="-600.0" width="450.0" height="600.0" fill="none" stroke="#999" stroke-dasharray="3 3" stroke-width="0.5" opacity="0.8"/>
    <rect x="-207.5" y="-555.0" width="415.0" height="60.0" fill="none" stroke="#888" stroke-width="0.5" stroke-dasharray="4 3"/>
<rect x="-225.0" y="-575.0" width="35.0" height="575.0" fill="none" stroke="#888" stroke-width="0.5" stroke-dasharray="4 3"/>
<rect x="190.0" y="-575.0" width="35.0" height="575.0" fill="none" stroke="#888" stroke-width="0.5" stroke-dasharray="4 3"/>
<rect x="-218.5" y="-555.0" width="22.0" height="60.0" fill="none" stroke="#111" stroke-width="0.9"/>
<rect x="196.5" y="-555.0" width="22.0" height="60.0" fill="none" stroke="#111" stroke-width="0.9"/>
<rect x="-207.5" y="-555.0" width="415.0" height="60.0" fill="none" stroke="#111" stroke-width="0.9"/>
<rect x="-225.0" y="-600.0" width="450.0" height="25.0" fill="none" stroke="#111" stroke-width="0.9"/>
<rect x="-225.0" y="-575.0" width="35.0" height="575.0" fill="none" stroke="#111" stroke-width="0.9"/>
<rect x="190.0" y="-575.0" width="35.0" height="575.0" fill="none" stroke="#111" stroke-width="0.9"/>
    
<g stroke="#111" fill="#111" stroke-width="0.6" font-family="sans-serif">
  <line x1="-225.0" y1="12.0" x2="-225.0" y2="36.0" stroke-width="0.4" stroke="#666"/>
  <line x1="225.0" y1="12.0" x2="225.0" y2="36.0" stroke-width="0.4" stroke="#666"/>
  <line x1="-225.0" y1="28.0" x2="225.0" y2="28.0" marker-start="url(#arr-front)" marker-end="url(#arr-front)"/>
  <text x="0" y="23.0" text-anchor="middle" font-size="11" stroke="none">450</text>
</g>
    
<g stroke="#111" fill="#111" stroke-width="0.6" font-family="sans-serif">
  <line x1="237.0" y1="-600.0" x2="261.0" y2="-600.0" stroke-width="0.4" stroke="#666"/>
  <line x1="237.0" y1="0.0" x2="261.0" y2="0.0" stroke-width="0.4" stroke="#666"/>
  <line x1="253.0" y1="-600.0" x2="253.0" y2="0.0" marker-start="url(#arr-front)" marker-end="url(#arr-front)"/>
  <text x="259.0" y="-300.0" text-anchor="start" dominant-baseline="middle" font-size="11" stroke="none">600</text>
</g>
  </g>
  <g transform="translate(670, 0)"><g transform="translate(290.0, 722.0)">
    <rect x="-282.0" y="-714.0" width="564.0" height="846.0" fill="none" stroke="#222" stroke-width="1"/>
    
<line x1="-282.0" y1="-682.0" x2="282.0" y2="-682.0" stroke="#222" stroke-width="0.6"/>
<text x="-272.0" y="-692.0" font-size="13" font-weight="700" fill="#111" font-family="sans-serif">側視圖</text>
<text x="-200.0" y="-692.0" font-size="10" fill="#666" font-family="sans-serif">SIDE VIEW</text>
    
<g stroke="#888" stroke-width="0.5" stroke-dasharray="8 2 2 2" opacity="0.7">
  <line x1="0" y1="-610.0" x2="0" y2="10.0"/>
  <line x1="-210.0" y1="-300.0" x2="210.0" y2="-300.0"/>
</g>
    <rect x="-200.0" y="-600.0" width="400.0" height="600.0" fill="none" stroke="#999" stroke-dasharray="3 3" stroke-width="0.5" opacity="0.8"/>
    <rect x="-182.5" y="-555.0" width="365.0" height="60.0" fill="none" stroke="#888" stroke-width="0.5" stroke-dasharray="4 3"/>
<rect x="-200.0" y="-575.0" width="35.0" height="575.0" fill="none" stroke="#888" stroke-width="0.5" stroke-dasharray="4 3"/>
<rect x="165.0" y="-575.0" width="35.0" height="575.0" fill="none" stroke="#888" stroke-width="0.5" stroke-dasharray="4 3"/>
<rect x="-193.5" y="-555.0" width="22.0" height="60.0" fill="none" stroke="#111" stroke-width="0.9"/>
<rect x="171.5" y="-555.0" width="22.0" height="60.0" fill="none" stroke="#111" stroke-width="0.9"/>
<rect x="-182.5" y="-555.0" width="365.0" height="60.0" fill="none" stroke="#111" stroke-width="0.9"/>
<rect x="-200.0" y="-600.0" width="400.0" height="25.0" fill="none" stroke="#111" stroke-width="0.9"/>
<rect x="-200.0" y="-575.0" width="35.0" height="575.0" fill="none" stroke="#111" stroke-width="0.9"/>
<rect x="165.0" y="-575.0" width="35.0" height="575.0" fill="none" stroke="#111" stroke-width="0.9"/>
    
<g stroke="#111" fill="#111" stroke-width="0.6" font-family="sans-serif">
  <line x1="-200.0" y1="12.0" x2="-200.0" y2="36.0" stroke-width="0.4" stroke="#666"/>
  <line x1="200.0" y1="12.0" x2="200.0" y2="36.0" stroke-width="0.4" stroke="#666"/>
  <line x1="-200.0" y1="28.0" x2="200.0" y2="28.0" marker-start="url(#arr-side)" marker-end="url(#arr-side)"/>
  <text x="0" y="23.0" text-anchor="middle" font-size="11" stroke="none">400</text>
</g>
    
<g stroke="#111" fill="#111" stroke-width="0.6" font-family="sans-serif">
  <line x1="212.0" y1="-600.0" x2="236.0" y2="-600.0" stroke-width="0.4" stroke="#666"/>
  <line x1="212.0" y1="0.0" x2="236.0" y2="0.0" stroke-width="0.4" stroke="#666"/>
  <line x1="228.0" y1="-600.0" x2="228.0" y2="0.0" marker-start="url(#arr-side)" marker-end="url(#arr-side)"/>
  <text x="234.0" y="-300.0" text-anchor="start" dominant-baseline="middle" font-size="11" stroke="none">600</text>
</g>
  </g></g>
  <g transform="translate(0, 902)"><g transform="translate(315.0, 322.0)">
    <rect x="-307.0" y="-314.0" width="614.0" height="646.0" fill="none" stroke="#222" stroke-width="1"/>
    
<line x1="-307.0" y1="-282.0" x2="307.0" y2="-282.0" stroke="#222" stroke-width="0.6"/>
<text x="-297.0" y="-292.0" font-size="13" font-weight="700" fill="#111" font-family="sans-serif">俯視圖</text>
<text x="-225.0" y="-292.0" font-size="10" fill="#666" font-family="sans-serif">TOP VIEW</text>
    
<g stroke="#888" stroke-width="0.5" stroke-dasharray="8 2 2 2" opacity="0.7">
  <line x1="0" y1="-210.0" x2="0" y2="210.0"/>
  <line x1="-235.0" y1="0.0" x2="235.0" y2="0.0"/>
</g>
    <rect x="-225.0" y="-200.0" width="450.0" height="400.0" fill="none" stroke="#999" stroke-dasharray="3 3" stroke-width="0.5" opacity="0.8"/>
    <rect x="-207.5" y="-193.5" width="415.0" height="22.0" fill="none" stroke="#888" stroke-width="0.5" stroke-dasharray="4 3"/>
<rect x="-207.5" y="171.5" width="415.0" height="22.0" fill="none" stroke="#888" stroke-width="0.5" stroke-dasharray="4 3"/>
<rect x="-218.5" y="-182.5" width="22.0" height="365.0" fill="none" stroke="#888" stroke-width="0.5" stroke-dasharray="4 3"/>
<rect x="196.5" y="-182.5" width="22.0" height="365.0" fill="none" stroke="#888" stroke-width="0.5" stroke-dasharray="4 3"/>
<rect x="-225.0" y="-200.0" width="35.0" height="35.0" fill="none" stroke="#888" stroke-width="0.5" stroke-dasharray="4 3"/>
<rect x="190.0" y="-200.0" width="35.0" height="35.0" fill="none" stroke="#888" stroke-width="0.5" stroke-dasharray="4 3"/>
<rect x="-225.0" y="165.0" width="35.0" height="35.0" fill="none" stroke="#888" stroke-width="0.5" stroke-dasharray="4 3"/>
<rect x="190.0" y="165.0" width="35.0" height="35.0" fill="none" stroke="#888" stroke-width="0.5" stroke-dasharray="4 3"/>
<rect x="-225.0" y="-200.0" width="450.0" height="400.0" fill="none" stroke="#111" stroke-width="0.9"/>
    
<g stroke="#111" fill="#111" stroke-width="0.6" font-family="sans-serif">
  <line x1="-225.0" y1="212.0" x2="-225.0" y2="236.0" stroke-width="0.4" stroke="#666"/>
  <line x1="225.0" y1="212.0" x2="225.0" y2="236.0" stroke-width="0.4" stroke="#666"/>
  <line x1="-225.0" y1="228.0" x2="225.0" y2="228.0" marker-start="url(#arr-top)" marker-end="url(#arr-top)"/>
  <text x="0" y="223.0" text-anchor="middle" font-size="11" stroke="none">450</text>
</g>
    
<g stroke="#111" fill="#111" stroke-width="0.6" font-family="sans-serif">
  <line x1="237.0" y1="-200.0" x2="261.0" y2="-200.0" stroke-width="0.4" stroke="#666"/>
  <line x1="237.0" y1="200.0" x2="261.0" y2="200.0" stroke-width="0.4" stroke="#666"/>
  <line x1="253.0" y1="-200.0" x2="253.0" y2="200.0" marker-start="url(#arr-top)" marker-end="url(#arr-top)"/>
  <text x="259.0" y="0.0" text-anchor="start" dominant-baseline="middle" font-size="11" stroke="none">400</text>
</g>
  </g></g>
</g>
</svg>