<?xml version="1.0" encoding="UTF-8"?>
<svg xmlns="http://www.w3.org/2000/svg" viewBox="-20 -10 1140 1504" width="1140">
<defs><marker id="arr-front" viewBox="0 0 10 10" refX="9" refY="5" markerWidth="8" markerHeight="8" orient="auto-start-reverse"><path d="M 0 0 L 10 5 L 0 10 z" fill="#111"/></marker>
<marker id="arr-side" viewBox="0 0 10 10" refX="9" refY="5" markerWidth="8" markerHeight="8" orient="auto-start-reverse"><path d="M 0 0 L 10 5 L 0 10 z" fill="#111"/></marker>
<marker id="arr-top" viewBox="0 0 10 10" refX="9" refY="5" markerWidth="8" markerHeight="8" orient="auto-start-reverse"><path d="M 0 0 L 10 5 L 0 10 z" fill="#111"/></marker></defs>
<rect x="-20" y="-10" width="1140" height="1504" fill="#fafaf7"/>

<text x="550" y="24" text-anchor="middle" font-size="22" font-weight="700" fill="#111" font-family="sans-serif">方凳</text>
<text x="550" y="46" text-anchor="middle" font-size="12" fill="#666" font-family="sans-serif">350 × 350 × 450 mm · 台灣檜木 · 9 件零件</text>
<g transform="translate(0, 70)">
  <g transform="translate(265.0, 572.0)">
    <rect x="-257.0" y="-564.0" width="514.0" height="696.0" fill="none" stroke="#222" stroke-width="1"/>
    
<line x1="-257.0" y1="-532.0" x2="257.0" y2="-532.0" stroke="#222" stroke-width="0.6"/>
<text x="-247.0" y="-542.0" font-size="13" font-weight="700" fill="#111" font-family="sans-serif">正視圖</text>
<text x="-175.0" y="-542.0" font-size="10" fill="#666" font-family="sans-serif">FRONT VIEW</text>
    
<g stroke="#888" stroke-width="0.5" stroke-dasharray="8 2 2 2" opacity="0.7">
  <line x1="0" y1="-460.0" x2="0" y2="10.0"/>
  <line x1="-185.0" y1="-225.0" x2="185.0" y2="-225.0"/>
</g>
    <rect x="-175.0" y="-450.0" width="350.0" height="450.0" fill="none" stroke="#999" stroke-dasharray="3 3" stroke-width="0.5" opacity="0.8"/>
    <rect x="-175.0" y="-450.0" width="350.0" height="25.0" fill="#d8b878" stroke="#222" stroke-width="0.7" opacity="0.9"/>
<rect x="-175.0" y="-425.0" width="35.0" height="425.0" fill="#d8b878" stroke="#222" stroke-width="0.7" opacity="0.9"/>
<rect x="140.0" y="-425.0" width="35.0" height="425.0" fill="#d8b878" stroke="#222" stroke-width="0.7" opacity="0.9"/>
<rect x="-175.0" y="-425.0" width="35.0" height="425.0" fill="#d8b878" stroke="#222" stroke-width="0.7" opacity="0.9"/>
<rect x="140.0" y="-425.0" width="35.0" height="425.0" fill="#d8b878" stroke="#222" stroke-width="0.7" opacity="0.9"/>
<rect x="-157.5" y="-395.0" width="315.0" height="60.0" fill="#d8b878" stroke="#222" stroke-width="0.7" opacity="0.9"/>
<rect x="-157.5" y="-395.0" width="315.0" height="60.0" fill="#d8b878" stroke="#222" stroke-width="0.7" opacity="0.9"/>
<rect x="-167.5" y="-395.0" width="20.0" height="60.0" fill="#d8b878" stroke="#222" stroke-width="0.7" opacity="0.9"/>
<rect x="147.5" y="-395.0" width="20.0" height="60.0" fill="#d8b878" stroke="#222" stroke-width="0.7" opacity="0.9"/>
    
<g stroke="#111" fill="#111" stroke-width="0.6" font-family="sans-serif">
  <line x1="-175.0" y1="12.0" x2="-175.0" y2="36.0" stroke-width="0.4" stroke="#666"/>
  <line x1="175.0" y1="12.0" x2="175.0" y2="36.0" stroke-width="0.4" stroke="#666"/>
  <line x1="-175.0" y1="28.0" x2="175.0" y2="28.0" marker-start="url(#arr-front)" marker-end="url(#arr-front)"/>
  <text x="0" y="23.0" text-anchor="middle" font-size="11" stroke="none">350</text>
</g>
    
<g stroke="#111" fill="#111" stroke-width="0.6" font-family="sans-serif">
  <line x1="187.0" y1="-450.0" x2="211.0" y2="-450.0" stroke-width="0.4" stroke="#666"/>
  <line x1="187.0" y1="0" x2="211.0" y2="0" stroke-width="0.4" stroke="#666"/>
  <line x1="203.0" y1="-450.0" x2="203.0" y2="0" marker-start="url(#arr-front)" marker-end="url(#arr-front)"/>
  <text x="209.0" y="-225.0" text-anchor="start" dominant-baseline="middle" font-size="11" stroke="none">450</text>
</g>
  </g>
  <g transform="translate(570, 0)"><g transform="translate(265.0, 572.0)">
    <rect x="-257.0" y="-564.0" width="514.0" height="696.0" fill="none" stroke="#222" stroke-width="1"/>
    
<line x1="-257.0" y1="-532.0" x2="257.0" y2="-532.0" stroke="#222" stroke-width="0.6"/>
<text x="-247.0" y="-542.0" font-size="13" font-weight="700" fill="#111" font-family="sans-serif">側視圖</text>
<text x="-175.0" y="-542.0" font-size="10" fill="#666" font-family="sans-serif">SIDE VIEW</text>
    
<g stroke="#888" stroke-width="0.5" stroke-dasharray="8 2 2 2" opacity="0.7">
  <line x1="0" y1="-460.0" x2="0" y2="10.0"/>
  <line x1="-185.0" y1="-225.0" x2="185.0" y2="-225.0"/>
</g>
    <rect x="-175.0" y="-450.0" width="350.0" height="450.0" fill="none" stroke="#999" stroke-dasharray="3 3" stroke-width="0.5" opacity="0.8"/>
    <rect x="-175.0" y="-450.0" width="350.0" height="25.0" fill="#d8b878" stroke="#222" stroke-width="0.7" opacity="0.9"/>
<rect x="-175.0" y="-425.0" width="35.0" height="425.0" fill="#d8b878" stroke="#222" stroke-width="0.7" opacity="0.9"/>
<rect x="-175.0" y="-425.0" width="35.0" height="425.0" fill="#d8b878" stroke="#222" stroke-width="0.7" opacity="0.9"/>
<rect x="140.0" y="-425.0" width="35.0" height="425.0" fill="#d8b878" stroke="#222" stroke-width="0.7" opacity="0.9"/>
<rect x="140.0" y="-425.0" width="35.0" height="425.0" fill="#d8b878" stroke="#222" stroke-width="0.7" opacity="0.9"/>
<rect x="-167.5" y="-395.0" width="20.0" height="60.0" fill="#d8b878" stroke="#222" stroke-width="0.7" opacity="0.9"/>
<rect x="147.5" y="-395.0" width="20.0" height="60.0" fill="#d8b878" stroke="#222" stroke-width="0.7" opacity="0.9"/>
<rect x="-157.5" y="-395.0" width="315.0" height="60.0" fill="#d8b878" stroke="#222" stroke-width="0.7" opacity="0.9"/>
<rect x="-157.5" y="-395.0" width="315.0" height="60.0" fill="#d8b878" stroke="#222" stroke-width="0.7" opacity="0.9"/>
    
<g stroke="#111" fill="#111" stroke-width="0.6" font-family="sans-serif">
  <line x1="-175.0" y1="12.0" x2="-175.0" y2="36.0" stroke-width="0.4" stroke="#666"/>
  <line x1="175.0" y1="12.0" x2="175.0" y2="36.0" stroke-width="0.4" stroke="#666"/>
  <line x1="-175.0" y1="28.0" x2="175.0" y2="28.0" marker-start="url(#arr-side)" marker-end="url(#arr-side)"/>
  <text x="0" y="23.0" text-anchor="middle" font-size="11" stroke="none">350</text>
</g>
    
<g stroke="#111" fill="#111" stroke-width="0.6" font-family="sans-serif">
  <line x1="187.0" y1="-450.0" x2="211.0" y2="-450.0" stroke-width="0.4" stroke="#666"/>
  <line x1="187.0" y1="0" x2="211.0" y2="0" stroke-width="0.4" stroke="#666"/>
  <line x1="203.0" y1="-450.0" x2="203.0" y2="0" marker-start="url(#arr-side)" marker-end="url(#arr-side)"/>
  <text x="209.0" y="-225.0" text-anchor="start" dominant-baseline="middle" font-size="11" stroke="none">450</text>
</g>
  </g></g>
  <g transform="translate(0, 752)"><g transform="translate(265.0, 122.0)">
    <rect x="-257.0" y="-114.0" width="514.0" height="596.0" fill="none" stroke="#222" stroke-width="1"/>
    
<line x1="-257.0" y1="-82.0" x2="257.0" y2="-82.0" stroke="#222" stroke-width="0.6"/>
<text x="-247.0" y="-92.0" font-size="13" font-weight="700" fill="#111" font-family="sans-serif">俯視圖</text>
<text x="-175.0" y="-92.0" font-size="10" fill="#666" font-family="sans-serif">TOP VIEW</text>
    
<g stroke="#888" stroke-width="0.5" stroke-dasharray="8 2 2 2" opacity="0.7">
  <line x1="0" y1="-10.0" x2="0" y2="360.0"/>
  <line x1="-185.0" y1="175.0" x2="185.0" y2="175.0"/>
</g>
    <rect x="-175.0" y="0.0" width="350.0" height="350.0" fill="none" stroke="#999" stroke-dasharray="3 3" stroke-width="0.5" opacity="0.8"/>
    <rect x="-175.0" y="-175.0" width="350.0" height="350.0" fill="#d8b878" stroke="#222" stroke-width="0.7" opacity="0.9"/>
<rect x="-175.0" y="-175.0" width="35.0" height="35.0" fill="#d8b878" stroke="#222" stroke-width="0.7" opacity="0.9"/>
<rect x="140.0" y="-175.0" width="35.0" height="35.0" fill="#d8b878" stroke="#222" stroke-width="0.7" opacity="0.9"/>
<rect x="-175.0" y="140.0" width="35.0" height="35.0" fill="#d8b878" stroke="#222" stroke-width="0.7" opacity="0.9"/>
<rect x="140.0" y="140.0" width="35.0" height="35.0" fill="#d8b878" stroke="#222" stroke-width="0.7" opacity="0.9"/>
<rect x="-157.5" y="-167.5" width="315.0" height="20.0" fill="#d8b878" stroke="#222" stroke-width="0.7" opacity="0.9"/>
<rect x="-157.5" y="147.5" width="315.0" height="20.0" fill="#d8b878" stroke="#222" stroke-width="0.7" opacity="0.9"/>
<rect x="-167.5" y="-157.5" width="20.0" height="315.0" fill="#d8b878" stroke="#222" stroke-width="0.7" opacity="0.9"/>
<rect x="147.5" y="-157.5" width="20.0" height="315.0" fill="#d8b878" stroke="#222" stroke-width="0.7" opacity="0.9"/>
    
<g stroke="#111" fill="#111" stroke-width="0.6" font-family="sans-serif">
  <line x1="-175.0" y1="362.0" x2="-175.0" y2="386.0" stroke-width="0.4" stroke="#666"/>
  <line x1="175.0" y1="362.0" x2="175.0" y2="386.0" stroke-width="0.4" stroke="#666"/>
  <line x1="-175.0" y1="378.0" x2="175.0" y2="378.0" marker-start="url(#arr-top)" marker-end="url(#arr-top)"/>
  <text x="0" y="373.0" text-anchor="middle" font-size="11" stroke="none">350</text>
</g>
    
  </g></g>
</g>
</svg>