<?xml version="1.0" encoding="UTF-8"?>
<svg xmlns="http://www.w3.org/2000/svg" viewBox="-20 -50 1120 1360" width="1120" height="1360">
<rect x="-20" y="-50" width="1120" height="1360" fill="#fafaf7"/>
<text x="540" y="-10" text-anchor="middle" font-size="24" font-weight="700" fill="#111" font-family="sans-serif">方凳</text>
<text x="540" y="12" text-anchor="middle" font-size="13" fill="#666" font-family="sans-serif">350 × 350 × 450 mm · 台灣檜木 · 9 件</text>
<g transform="translate(255, 100)">
    <rect x="-175.0" y="0" width="350.0" height="450.0" fill="none" stroke="#888" stroke-dasharray="4 3" stroke-width="0.8"/>
    <rect x="-175.0" y="0.0" width="350.0" height="25.0" fill="#d8b878" stroke="#3a2a1a" stroke-width="1.2" opacity="0.92"/>
<rect x="-175.0" y="25.0" width="35.0" height="425.0" fill="#d8b878" stroke="#3a2a1a" stroke-width="1.2" opacity="0.92"/>
<rect x="140.0" y="25.0" width="35.0" height="425.0" fill="#d8b878" stroke="#3a2a1a" stroke-width="1.2" opacity="0.92"/>
<rect x="-175.0" y="25.0" width="35.0" height="425.0" fill="#d8b878" stroke="#3a2a1a" stroke-width="1.2" opacity="0.92"/>
<rect x="140.0" y="25.0" width="35.0" height="425.0" fill="#d8b878" stroke="#3a2a1a" stroke-width="1.2" opacity="0.92"/>
<rect x="-157.5" y="95.0" width="315.0" height="20.0" fill="#d8b878" stroke="#3a2a1a" stroke-width="1.2" opacity="0.92"/>
<rect x="-157.5" y="95.0" width="315.0" height="20.0" fill="#d8b878" stroke="#3a2a1a" stroke-width="1.2" opacity="0.92"/>
<rect x="-315.0" y="95.0" width="315.0" height="20.0" fill="#d8b878" stroke="#3a2a1a" stroke-width="1.2" opacity="0.92"/>
<rect x="0.0" y="95.0" width="315.0" height="20.0" fill="#d8b878" stroke="#3a2a1a" stroke-width="1.2" opacity="0.92"/>
    <text x="0" y="500.0" text-anchor="middle" font-size="18" fill="#444" font-family="sans-serif">正視圖（350 × 450 mm）</text>
  </g>
<g transform="translate(825, 100)">
    <rect x="-175.0" y="0" width="350.0" height="450.0" fill="none" stroke="#888" stroke-dasharray="4 3" stroke-width="0.8"/>
    <rect x="-175.0" y="0.0" width="350.0" height="25.0" fill="#d8b878" stroke="#3a2a1a" stroke-width="1.2" opacity="0.92"/>
<rect x="-175.0" y="25.0" width="35.0" height="425.0" fill="#d8b878" stroke="#3a2a1a" stroke-width="1.2" opacity="0.92"/>
<rect x="-175.0" y="25.0" width="35.0" height="425.0" fill="#d8b878" stroke="#3a2a1a" stroke-width="1.2" opacity="0.92"/>
<rect x="140.0" y="25.0" width="35.0" height="425.0" fill="#d8b878" stroke="#3a2a1a" stroke-width="1.2" opacity="0.92"/>
<rect x="140.0" y="25.0" width="35.0" height="425.0" fill="#d8b878" stroke="#3a2a1a" stroke-width="1.2" opacity="0.92"/>
<rect x="-187.5" y="95.0" width="60.0" height="20.0" fill="#d8b878" stroke="#3a2a1a" stroke-width="1.2" opacity="0.92"/>
<rect x="127.5" y="95.0" width="60.0" height="20.0" fill="#d8b878" stroke="#3a2a1a" stroke-width="1.2" opacity="0.92"/>
<rect x="-30.0" y="95.0" width="60.0" height="20.0" fill="#d8b878" stroke="#3a2a1a" stroke-width="1.2" opacity="0.92"/>
<rect x="-30.0" y="95.0" width="60.0" height="20.0" fill="#d8b878" stroke="#3a2a1a" stroke-width="1.2" opacity="0.92"/>
    <text x="0" y="500.0" text-anchor="middle" font-size="18" fill="#444" font-family="sans-serif">側視圖（350 × 450 mm）</text>
  </g>
<g transform="translate(255, 800)">
    <rect x="-175.0" y="0" width="350.0" height="350.0" fill="none" stroke="#888" stroke-dasharray="4 3" stroke-width="0.8"/>
    <rect x="-175.0" y="-175.0" width="350.0" height="350.0" fill="#d8b878" stroke="#3a2a1a" stroke-width="1.2" opacity="0.92"/>
<rect x="-175.0" y="-175.0" width="35.0" height="35.0" fill="#d8b878" stroke="#3a2a1a" stroke-width="1.2" opacity="0.92"/>
<rect x="140.0" y="-175.0" width="35.0" height="35.0" fill="#d8b878" stroke="#3a2a1a" stroke-width="1.2" opacity="0.92"/>
<rect x="-175.0" y="140.0" width="35.0" height="35.0" fill="#d8b878" stroke="#3a2a1a" stroke-width="1.2" opacity="0.92"/>
<rect x="140.0" y="140.0" width="35.0" height="35.0" fill="#d8b878" stroke="#3a2a1a" stroke-width="1.2" opacity="0.92"/>
<rect x="-157.5" y="-187.5" width="315.0" height="60.0" fill="#d8b878" stroke="#3a2a1a" stroke-width="1.2" opacity="0.92"/>
<rect x="-157.5" y="127.5" width="315.0" height="60.0" fill="#d8b878" stroke="#3a2a1a" stroke-width="1.2" opacity="0.92"/>
<rect x="-315.0" y="-30.0" width="315.0" height="60.0" fill="#d8b878" stroke="#3a2a1a" stroke-width="1.2" opacity="0.92"/>
<rect x="0.0" y="-30.0" width="315.0" height="60.0" fill="#d8b878" stroke="#3a2a1a" stroke-width="1.2" opacity="0.92"/>
    <text x="0" y="400.0" text-anchor="middle" font-size="18" fill="#444" font-family="sans-serif">俯視圖（350 × 350 mm）</text>
  </g>
</svg>