<?xml version="1.0" encoding="UTF-8"?>
<svg xmlns="http://www.w3.org/2000/svg" viewBox="-20 -10 1640 1704" width="1640">
<defs><marker id="arr-front" viewBox="0 0 10 10" refX="9" refY="5" markerWidth="8" markerHeight="8" orient="auto-start-reverse"><path d="M 0 0 L 10 5 L 0 10 z" fill="#111"/></marker>
<marker id="arr-side" viewBox="0 0 10 10" refX="9" refY="5" markerWidth="8" markerHeight="8" orient="auto-start-reverse"><path d="M 0 0 L 10 5 L 0 10 z" fill="#111"/></marker>
<marker id="arr-top" viewBox="0 0 10 10" refX="9" refY="5" markerWidth="8" markerHeight="8" orient="auto-start-reverse"><path d="M 0 0 L 10 5 L 0 10 z" fill="#111"/></marker></defs>
<rect x="-20" y="-10" width="1640" height="1704" fill="#fafaf7"/>

<text x="800" y="24" text-anchor="middle" font-size="22" font-weight="700" fill="#111" font-family="sans-serif">茶几</text>
<text x="800" y="46" text-anchor="middle" font-size="12" fill="#666" font-family="sans-serif">600 × 600 × 400 mm · 台灣檜木 · 14 件零件</text>
<g transform="translate(0, 70)">
  <g transform="translate(390.0, 522.0)">
    <rect x="-382.0" y="-514.0" width="764.0" height="646.0" fill="none" stroke="#222" stroke-width="1"/>
    
<line x1="-382.0" y1="-482.0" x2="382.0" y2="-482.0" stroke="#222" stroke-width="0.6"/>
<text x="-372.0" y="-492.0" font-size="13" font-weight="700" fill="#111" font-family="sans-serif">正視圖</text>
<text x="-300.0" y="-492.0" font-size="10" fill="#666" font-family="sans-serif">FRONT VIEW</text>
    
<g stroke="#888" stroke-width="0.5" stroke-dasharray="8 2 2 2" opacity="0.7">
  <line x1="0" y1="-410.0" x2="0" y2="10.0"/>
  <line x1="-310.0" y1="-200.0" x2="310.0" y2="-200.0"/>
</g>
    <rect x="-300.0" y="-400.0" width="600.0" height="400.0" fill="none" stroke="#999" stroke-dasharray="3 3" stroke-width="0.5" opacity="0.8"/>
    <rect x="-300.0" y="-400.0" width="600.0" height="25.0" fill="#d8b878" stroke="#222" stroke-width="0.7" opacity="0.9"/>
<rect x="-300.0" y="-375.0" width="40.0" height="375.0" fill="#d8b878" stroke="#222" stroke-width="0.7" opacity="0.9"/>
<rect x="260.0" y="-375.0" width="40.0" height="375.0" fill="#d8b878" stroke="#222" stroke-width="0.7" opacity="0.9"/>
<rect x="-300.0" y="-375.0" width="40.0" height="375.0" fill="#d8b878" stroke="#222" stroke-width="0.7" opacity="0.9"/>
<rect x="260.0" y="-375.0" width="40.0" height="375.0" fill="#d8b878" stroke="#222" stroke-width="0.7" opacity="0.9"/>
<rect x="-280.0" y="-355.0" width="560.0" height="70.0" fill="#d8b878" stroke="#222" stroke-width="0.7" opacity="0.9"/>
<rect x="-280.0" y="-355.0" width="560.0" height="70.0" fill="#d8b878" stroke="#222" stroke-width="0.7" opacity="0.9"/>
<rect x="-291.0" y="-355.0" width="22.0" height="70.0" fill="#d8b878" stroke="#222" stroke-width="0.7" opacity="0.9"/>
<rect x="269.0" y="-355.0" width="22.0" height="70.0" fill="#d8b878" stroke="#222" stroke-width="0.7" opacity="0.9"/>
<rect x="-280.0" y="-130.0" width="560.0" height="50.0" fill="#d8b878" stroke="#222" stroke-width="0.7" opacity="0.9"/>
<rect x="-280.0" y="-130.0" width="560.0" height="50.0" fill="#d8b878" stroke="#222" stroke-width="0.7" opacity="0.9"/>
<rect x="-291.0" y="-130.0" width="22.0" height="50.0" fill="#d8b878" stroke="#222" stroke-width="0.7" opacity="0.9"/>
<rect x="269.0" y="-130.0" width="22.0" height="50.0" fill="#d8b878" stroke="#222" stroke-width="0.7" opacity="0.9"/>
<rect x="-258.0" y="-114.0" width="516.0" height="18.0" fill="#d8b878" stroke="#222" stroke-width="0.7" opacity="0.9"/>
    
<g stroke="#111" fill="#111" stroke-width="0.6" font-family="sans-serif">
  <line x1="-300.0" y1="12.0" x2="-300.0" y2="36.0" stroke-width="0.4" stroke="#666"/>
  <line x1="300.0" y1="12.0" x2="300.0" y2="36.0" stroke-width="0.4" stroke="#666"/>
  <line x1="-300.0" y1="28.0" x2="300.0" y2="28.0" marker-start="url(#arr-front)" marker-end="url(#arr-front)"/>
  <text x="0" y="23.0" text-anchor="middle" font-size="11" stroke="none">600</text>
</g>
    
<g stroke="#111" fill="#111" stroke-width="0.6" font-family="sans-serif">
  <line x1="312.0" y1="-400.0" x2="336.0" y2="-400.0" stroke-width="0.4" stroke="#666"/>
  <line x1="312.0" y1="0" x2="336.0" y2="0" stroke-width="0.4" stroke="#666"/>
  <line x1="328.0" y1="-400.0" x2="328.0" y2="0" marker-start="url(#arr-front)" marker-end="url(#arr-front)"/>
  <text x="334.0" y="-200.0" text-anchor="start" dominant-baseline="middle" font-size="11" stroke="none">400</text>
</g>
  </g>
  <g transform="translate(820, 0)"><g transform="translate(390.0, 522.0)">
    <rect x="-382.0" y="-514.0" width="764.0" height="646.0" fill="none" stroke="#222" stroke-width="1"/>
    
<line x1="-382.0" y1="-482.0" x2="382.0" y2="-482.0" stroke="#222" stroke-width="0.6"/>
<text x="-372.0" y="-492.0" font-size="13" font-weight="700" fill="#111" font-family="sans-serif">側視圖</text>
<text x="-300.0" y="-492.0" font-size="10" fill="#666" font-family="sans-serif">SIDE VIEW</text>
    
<g stroke="#888" stroke-width="0.5" stroke-dasharray="8 2 2 2" opacity="0.7">
  <line x1="0" y1="-410.0" x2="0" y2="10.0"/>
  <line x1="-310.0" y1="-200.0" x2="310.0" y2="-200.0"/>
</g>
    <rect x="-300.0" y="-400.0" width="600.0" height="400.0" fill="none" stroke="#999" stroke-dasharray="3 3" stroke-width="0.5" opacity="0.8"/>
    <rect x="-300.0" y="-400.0" width="600.0" height="25.0" fill="#d8b878" stroke="#222" stroke-width="0.7" opacity="0.9"/>
<rect x="-300.0" y="-375.0" width="40.0" height="375.0" fill="#d8b878" stroke="#222" stroke-width="0.7" opacity="0.9"/>
<rect x="-300.0" y="-375.0" width="40.0" height="375.0" fill="#d8b878" stroke="#222" stroke-width="0.7" opacity="0.9"/>
<rect x="260.0" y="-375.0" width="40.0" height="375.0" fill="#d8b878" stroke="#222" stroke-width="0.7" opacity="0.9"/>
<rect x="260.0" y="-375.0" width="40.0" height="375.0" fill="#d8b878" stroke="#222" stroke-width="0.7" opacity="0.9"/>
<rect x="-291.0" y="-355.0" width="22.0" height="70.0" fill="#d8b878" stroke="#222" stroke-width="0.7" opacity="0.9"/>
<rect x="269.0" y="-355.0" width="22.0" height="70.0" fill="#d8b878" stroke="#222" stroke-width="0.7" opacity="0.9"/>
<rect x="-280.0" y="-355.0" width="560.0" height="70.0" fill="#d8b878" stroke="#222" stroke-width="0.7" opacity="0.9"/>
<rect x="-280.0" y="-355.0" width="560.0" height="70.0" fill="#d8b878" stroke="#222" stroke-width="0.7" opacity="0.9"/>
<rect x="-291.0" y="-130.0" width="22.0" height="50.0" fill="#d8b878" stroke="#222" stroke-width="0.7" opacity="0.9"/>
<rect x="269.0" y="-130.0" width="22.0" height="50.0" fill="#d8b878" stroke="#222" stroke-width="0.7" opacity="0.9"/>
<rect x="-280.0" y="-130.0" width="560.0" height="50.0" fill="#d8b878" stroke="#222" stroke-width="0.7" opacity="0.9"/>
<rect x="-280.0" y="-130.0" width="560.0" height="50.0" fill="#d8b878" stroke="#222" stroke-width="0.7" opacity="0.9"/>
<rect x="-258.0" y="-114.0" width="516.0" height="18.0" fill="#d8b878" stroke="#222" stroke-width="0.7" opacity="0.9"/>
    
<g stroke="#111" fill="#111" stroke-width="0.6" font-family="sans-serif">
  <line x1="-300.0" y1="12.0" x2="-300.0" y2="36.0" stroke-width="0.4" stroke="#666"/>
  <line x1="300.0" y1="12.0" x2="300.0" y2="36.0" stroke-width="0.4" stroke="#666"/>
  <line x1="-300.0" y1="28.0" x2="300.0" y2="28.0" marker-start="url(#arr-side)" marker-end="url(#arr-side)"/>
  <text x="0" y="23.0" text-anchor="middle" font-size="11" stroke="none">600</text>
</g>
    
<g stroke="#111" fill="#111" stroke-width="0.6" font-family="sans-serif">
  <line x1="312.0" y1="-400.0" x2="336.0" y2="-400.0" stroke-width="0.4" stroke="#666"/>
  <line x1="312.0" y1="0" x2="336.0" y2="0" stroke-width="0.4" stroke="#666"/>
  <line x1="328.0" y1="-400.0" x2="328.0" y2="0" marker-start="url(#arr-side)" marker-end="url(#arr-side)"/>
  <text x="334.0" y="-200.0" text-anchor="start" dominant-baseline="middle" font-size="11" stroke="none">400</text>
</g>
  </g></g>
  <g transform="translate(0, 702)"><g transform="translate(390.0, 422.0)">
    <rect x="-382.0" y="-414.0" width="764.0" height="846.0" fill="none" stroke="#222" stroke-width="1"/>
    
<line x1="-382.0" y1="-382.0" x2="382.0" y2="-382.0" stroke="#222" stroke-width="0.6"/>
<text x="-372.0" y="-392.0" font-size="13" font-weight="700" fill="#111" font-family="sans-serif">俯視圖</text>
<text x="-300.0" y="-392.0" font-size="10" fill="#666" font-family="sans-serif">TOP VIEW</text>
    
<g stroke="#888" stroke-width="0.5" stroke-dasharray="8 2 2 2" opacity="0.7">
  <line x1="0" y1="-310.0" x2="0" y2="310.0"/>
  <line x1="-310.0" y1="0.0" x2="310.0" y2="0.0"/>
</g>
    <rect x="-300.0" y="-300.0" width="600.0" height="600.0" fill="none" stroke="#999" stroke-dasharray="3 3" stroke-width="0.5" opacity="0.8"/>
    <rect x="-300.0" y="-300.0" width="600.0" height="600.0" fill="#d8b878" stroke="#222" stroke-width="0.7" opacity="0.9"/>
<rect x="-300.0" y="-300.0" width="40.0" height="40.0" fill="#d8b878" stroke="#222" stroke-width="0.7" opacity="0.9"/>
<rect x="260.0" y="-300.0" width="40.0" height="40.0" fill="#d8b878" stroke="#222" stroke-width="0.7" opacity="0.9"/>
<rect x="-300.0" y="260.0" width="40.0" height="40.0" fill="#d8b878" stroke="#222" stroke-width="0.7" opacity="0.9"/>
<rect x="260.0" y="260.0" width="40.0" height="40.0" fill="#d8b878" stroke="#222" stroke-width="0.7" opacity="0.9"/>
<rect x="-280.0" y="-291.0" width="560.0" height="22.0" fill="#d8b878" stroke="#222" stroke-width="0.7" opacity="0.9"/>
<rect x="-280.0" y="269.0" width="560.0" height="22.0" fill="#d8b878" stroke="#222" stroke-width="0.7" opacity="0.9"/>
<rect x="-291.0" y="-280.0" width="22.0" height="560.0" fill="#d8b878" stroke="#222" stroke-width="0.7" opacity="0.9"/>
<rect x="269.0" y="-280.0" width="22.0" height="560.0" fill="#d8b878" stroke="#222" stroke-width="0.7" opacity="0.9"/>
<rect x="-280.0" y="-291.0" width="560.0" height="22.0" fill="#d8b878" stroke="#222" stroke-width="0.7" opacity="0.9"/>
<rect x="-280.0" y="269.0" width="560.0" height="22.0" fill="#d8b878" stroke="#222" stroke-width="0.7" opacity="0.9"/>
<rect x="-291.0" y="-280.0" width="22.0" height="560.0" fill="#d8b878" stroke="#222" stroke-width="0.7" opacity="0.9"/>
<rect x="269.0" y="-280.0" width="22.0" height="560.0" fill="#d8b878" stroke="#222" stroke-width="0.7" opacity="0.9"/>
<rect x="-258.0" y="-258.0" width="516.0" height="516.0" fill="#d8b878" stroke="#222" stroke-width="0.7" opacity="0.9"/>
    
<g stroke="#111" fill="#111" stroke-width="0.6" font-family="sans-serif">
  <line x1="-300.0" y1="312.0" x2="-300.0" y2="336.0" stroke-width="0.4" stroke="#666"/>
  <line x1="300.0" y1="312.0" x2="300.0" y2="336.0" stroke-width="0.4" stroke="#666"/>
  <line x1="-300.0" y1="328.0" x2="300.0" y2="328.0" marker-start="url(#arr-top)" marker-end="url(#arr-top)"/>
  <text x="0" y="323.0" text-anchor="middle" font-size="11" stroke="none">600</text>
</g>
    
  </g></g>
</g>
</svg>