<?xml version="1.0" encoding="UTF-8"?>
<svg xmlns="http://www.w3.org/2000/svg" viewBox="-20 -50 1620 1560" width="1620" height="1560">
<rect x="-20" y="-50" width="1620" height="1560" fill="#fafaf7"/>
<text x="790" y="-10" text-anchor="middle" font-size="24" font-weight="700" fill="#111" font-family="sans-serif">茶几</text>
<text x="790" y="12" text-anchor="middle" font-size="13" fill="#666" font-family="sans-serif">600 × 600 × 400 mm · 台灣檜木 · 14 件</text>
<g transform="translate(380, 100)">
    <rect x="-300.0" y="0" width="600.0" height="400.0" fill="none" stroke="#888" stroke-dasharray="4 3" stroke-width="0.8"/>
    <rect x="-300.0" y="0.0" width="600.0" height="25.0" fill="#d8b878" stroke="#3a2a1a" stroke-width="1.2" opacity="0.92"/>
<rect x="-300.0" y="25.0" width="40.0" height="375.0" fill="#d8b878" stroke="#3a2a1a" stroke-width="1.2" opacity="0.92"/>
<rect x="260.0" y="25.0" width="40.0" height="375.0" fill="#d8b878" stroke="#3a2a1a" stroke-width="1.2" opacity="0.92"/>
<rect x="-300.0" y="25.0" width="40.0" height="375.0" fill="#d8b878" stroke="#3a2a1a" stroke-width="1.2" opacity="0.92"/>
<rect x="260.0" y="25.0" width="40.0" height="375.0" fill="#d8b878" stroke="#3a2a1a" stroke-width="1.2" opacity="0.92"/>
<rect x="-280.0" y="45.0" width="560.0" height="70.0" fill="#d8b878" stroke="#3a2a1a" stroke-width="1.2" opacity="0.92"/>
<rect x="-280.0" y="45.0" width="560.0" height="70.0" fill="#d8b878" stroke="#3a2a1a" stroke-width="1.2" opacity="0.92"/>
<rect x="-291.0" y="45.0" width="22.0" height="70.0" fill="#d8b878" stroke="#3a2a1a" stroke-width="1.2" opacity="0.92"/>
<rect x="269.0" y="45.0" width="22.0" height="70.0" fill="#d8b878" stroke="#3a2a1a" stroke-width="1.2" opacity="0.92"/>
<rect x="-280.0" y="270.0" width="560.0" height="50.0" fill="#d8b878" stroke="#3a2a1a" stroke-width="1.2" opacity="0.92"/>
<rect x="-280.0" y="270.0" width="560.0" height="50.0" fill="#d8b878" stroke="#3a2a1a" stroke-width="1.2" opacity="0.92"/>
<rect x="-291.0" y="270.0" width="22.0" height="50.0" fill="#d8b878" stroke="#3a2a1a" stroke-width="1.2" opacity="0.92"/>
<rect x="269.0" y="270.0" width="22.0" height="50.0" fill="#d8b878" stroke="#3a2a1a" stroke-width="1.2" opacity="0.92"/>
<rect x="-258.0" y="286.0" width="516.0" height="18.0" fill="#d8b878" stroke="#3a2a1a" stroke-width="1.2" opacity="0.92"/>
    <text x="0" y="450.0" text-anchor="middle" font-size="18" fill="#444" font-family="sans-serif">正視圖（600 × 400 mm）</text>
  </g>
<g transform="translate(1200, 100)">
    <rect x="-300.0" y="0" width="600.0" height="400.0" fill="none" stroke="#888" stroke-dasharray="4 3" stroke-width="0.8"/>
    <rect x="-300.0" y="0.0" width="600.0" height="25.0" fill="#d8b878" stroke="#3a2a1a" stroke-width="1.2" opacity="0.92"/>
<rect x="-300.0" y="25.0" width="40.0" height="375.0" fill="#d8b878" stroke="#3a2a1a" stroke-width="1.2" opacity="0.92"/>
<rect x="-300.0" y="25.0" width="40.0" height="375.0" fill="#d8b878" stroke="#3a2a1a" stroke-width="1.2" opacity="0.92"/>
<rect x="260.0" y="25.0" width="40.0" height="375.0" fill="#d8b878" stroke="#3a2a1a" stroke-width="1.2" opacity="0.92"/>
<rect x="260.0" y="25.0" width="40.0" height="375.0" fill="#d8b878" stroke="#3a2a1a" stroke-width="1.2" opacity="0.92"/>
<rect x="-291.0" y="45.0" width="22.0" height="70.0" fill="#d8b878" stroke="#3a2a1a" stroke-width="1.2" opacity="0.92"/>
<rect x="269.0" y="45.0" width="22.0" height="70.0" fill="#d8b878" stroke="#3a2a1a" stroke-width="1.2" opacity="0.92"/>
<rect x="-280.0" y="45.0" width="560.0" height="70.0" fill="#d8b878" stroke="#3a2a1a" stroke-width="1.2" opacity="0.92"/>
<rect x="-280.0" y="45.0" width="560.0" height="70.0" fill="#d8b878" stroke="#3a2a1a" stroke-width="1.2" opacity="0.92"/>
<rect x="-291.0" y="270.0" width="22.0" height="50.0" fill="#d8b878" stroke="#3a2a1a" stroke-width="1.2" opacity="0.92"/>
<rect x="269.0" y="270.0" width="22.0" height="50.0" fill="#d8b878" stroke="#3a2a1a" stroke-width="1.2" opacity="0.92"/>
<rect x="-280.0" y="270.0" width="560.0" height="50.0" fill="#d8b878" stroke="#3a2a1a" stroke-width="1.2" opacity="0.92"/>
<rect x="-280.0" y="270.0" width="560.0" height="50.0" fill="#d8b878" stroke="#3a2a1a" stroke-width="1.2" opacity="0.92"/>
<rect x="-258.0" y="286.0" width="516.0" height="18.0" fill="#d8b878" stroke="#3a2a1a" stroke-width="1.2" opacity="0.92"/>
    <text x="0" y="450.0" text-anchor="middle" font-size="18" fill="#444" font-family="sans-serif">側視圖（600 × 400 mm）</text>
  </g>
<g transform="translate(380, 750)">
    <rect x="-300.0" y="0" width="600.0" height="600.0" fill="none" stroke="#888" stroke-dasharray="4 3" stroke-width="0.8"/>
    <rect x="-300.0" y="-300.0" width="600.0" height="600.0" fill="#d8b878" stroke="#3a2a1a" stroke-width="1.2" opacity="0.92"/>
<rect x="-300.0" y="-300.0" width="40.0" height="40.0" fill="#d8b878" stroke="#3a2a1a" stroke-width="1.2" opacity="0.92"/>
<rect x="260.0" y="-300.0" width="40.0" height="40.0" fill="#d8b878" stroke="#3a2a1a" stroke-width="1.2" opacity="0.92"/>
<rect x="-300.0" y="260.0" width="40.0" height="40.0" fill="#d8b878" stroke="#3a2a1a" stroke-width="1.2" opacity="0.92"/>
<rect x="260.0" y="260.0" width="40.0" height="40.0" fill="#d8b878" stroke="#3a2a1a" stroke-width="1.2" opacity="0.92"/>
<rect x="-280.0" y="-291.0" width="560.0" height="22.0" fill="#d8b878" stroke="#3a2a1a" stroke-width="1.2" opacity="0.92"/>
<rect x="-280.0" y="269.0" width="560.0" height="22.0" fill="#d8b878" stroke="#3a2a1a" stroke-width="1.2" opacity="0.92"/>
<rect x="-291.0" y="-280.0" width="22.0" height="560.0" fill="#d8b878" stroke="#3a2a1a" stroke-width="1.2" opacity="0.92"/>
<rect x="269.0" y="-280.0" width="22.0" height="560.0" fill="#d8b878" stroke="#3a2a1a" stroke-width="1.2" opacity="0.92"/>
<rect x="-280.0" y="-291.0" width="560.0" height="22.0" fill="#d8b878" stroke="#3a2a1a" stroke-width="1.2" opacity="0.92"/>
<rect x="-280.0" y="269.0" width="560.0" height="22.0" fill="#d8b878" stroke="#3a2a1a" stroke-width="1.2" opacity="0.92"/>
<rect x="-291.0" y="-280.0" width="22.0" height="560.0" fill="#d8b878" stroke="#3a2a1a" stroke-width="1.2" opacity="0.92"/>
<rect x="269.0" y="-280.0" width="22.0" height="560.0" fill="#d8b878" stroke="#3a2a1a" stroke-width="1.2" opacity="0.92"/>
<rect x="-258.0" y="-258.0" width="516.0" height="516.0" fill="#d8b878" stroke="#3a2a1a" stroke-width="1.2" opacity="0.92"/>
    <text x="0" y="650.0" text-anchor="middle" font-size="18" fill="#444" font-family="sans-serif">俯視圖（600 × 600 mm）</text>
  </g>
</svg>