<?xml version="1.0" encoding="UTF-8"?>
<svg xmlns="http://www.w3.org/2000/svg" viewBox="-20 -10 1120 1042" width="1120">
<defs><marker id="arr-front" viewBox="0 0 10 10" refX="9" refY="5" markerWidth="8" markerHeight="8" orient="auto-start-reverse"><path d="M 0 0 L 10 5 L 0 10 z" fill="#111"/></marker>
<marker id="arr-side" viewBox="0 0 10 10" refX="9" refY="5" markerWidth="8" markerHeight="8" orient="auto-start-reverse"><path d="M 0 0 L 10 5 L 0 10 z" fill="#111"/></marker>
<marker id="arr-top" viewBox="0 0 10 10" refX="9" refY="5" markerWidth="8" markerHeight="8" orient="auto-start-reverse"><path d="M 0 0 L 10 5 L 0 10 z" fill="#111"/></marker></defs>
<rect x="-20" y="-10" width="1120" height="1042" fill="#fafaf7"/>

<text x="540" y="24" text-anchor="middle" font-size="22" font-weight="700" fill="#111" font-family="sans-serif">托盤</text>
<text x="540" y="46" text-anchor="middle" font-size="12" fill="#666" font-family="sans-serif">400 × 280 × 58 mm · 台灣檜木 · 5 件零件</text>
<g transform="translate(0, 70)">
  <g transform="translate(290.0, 180.0)">
    <rect x="-282.0" y="-172.0" width="564.0" height="304.0" fill="none" stroke="#222" stroke-width="1"/>
    
<line x1="-282.0" y1="-140.0" x2="282.0" y2="-140.0" stroke="#222" stroke-width="0.6"/>
<text x="-272.0" y="-150.0" font-size="13" font-weight="700" fill="#111" font-family="sans-serif">正視圖</text>
<text x="-200.0" y="-150.0" font-size="10" fill="#666" font-family="sans-serif">FRONT VIEW</text>
    
<g stroke="#888" stroke-width="0.5" stroke-dasharray="8 2 2 2" opacity="0.7">
  <line x1="0" y1="-68.0" x2="0" y2="10.0"/>
  <line x1="-210.0" y1="-29.0" x2="210.0" y2="-29.0"/>
</g>
    <rect x="-200.0" y="-58.0" width="400.0" height="58.0" fill="none" stroke="#999" stroke-dasharray="3 3" stroke-width="0.5" opacity="0.8"/>
    <rect x="-200.0" y="-58.0" width="400.0" height="50.0" fill="none" stroke="#888" stroke-width="0.5" stroke-dasharray="4 3"/>
<rect x="188.0" y="-58.0" width="12.0" height="50.0" fill="none" stroke="#888" stroke-width="0.5" stroke-dasharray="4 3"/>
<rect x="-200.0" y="-58.0" width="12.0" height="50.0" fill="none" stroke="#888" stroke-width="0.5" stroke-dasharray="4 3"/>
<rect x="-196.0" y="-8.0" width="392.0" height="8.0" fill="none" stroke="#111" stroke-width="0.9"/>
<rect x="-200.0" y="-58.0" width="400.0" height="50.0" fill="none" stroke="#111" stroke-width="0.9"/>
    
<g stroke="#111" fill="#111" stroke-width="0.6" font-family="sans-serif">
  <line x1="-200.0" y1="12.0" x2="-200.0" y2="36.0" stroke-width="0.4" stroke="#666"/>
  <line x1="200.0" y1="12.0" x2="200.0" y2="36.0" stroke-width="0.4" stroke="#666"/>
  <line x1="-200.0" y1="28.0" x2="200.0" y2="28.0" marker-start="url(#arr-front)" marker-end="url(#arr-front)"/>
  <text x="0" y="23.0" text-anchor="middle" font-size="11" stroke="none">400</text>
</g>
    
<g stroke="#111" fill="#111" stroke-width="0.6" font-family="sans-serif">
  <line x1="212.0" y1="-58.0" x2="236.0" y2="-58.0" stroke-width="0.4" stroke="#666"/>
  <line x1="212.0" y1="0.0" x2="236.0" y2="0.0" stroke-width="0.4" stroke="#666"/>
  <line x1="228.0" y1="-58.0" x2="228.0" y2="0.0" marker-start="url(#arr-front)" marker-end="url(#arr-front)"/>
  <text x="234.0" y="-29.0" text-anchor="start" dominant-baseline="middle" font-size="11" stroke="none">58</text>
</g>
  </g>
  <g transform="translate(620, 0)"><g transform="translate(230.0, 180.0)">
    <rect x="-222.0" y="-172.0" width="444.0" height="304.0" fill="none" stroke="#222" stroke-width="1"/>
    
<line x1="-222.0" y1="-140.0" x2="222.0" y2="-140.0" stroke="#222" stroke-width="0.6"/>
<text x="-212.0" y="-150.0" font-size="13" font-weight="700" fill="#111" font-family="sans-serif">側視圖</text>
<text x="-140.0" y="-150.0" font-size="10" fill="#666" font-family="sans-serif">SIDE VIEW</text>
    
<g stroke="#888" stroke-width="0.5" stroke-dasharray="8 2 2 2" opacity="0.7">
  <line x1="0" y1="-68.0" x2="0" y2="10.0"/>
  <line x1="-150.0" y1="-29.0" x2="150.0" y2="-29.0"/>
</g>
    <rect x="-140.0" y="-58.0" width="280.0" height="58.0" fill="none" stroke="#999" stroke-dasharray="3 3" stroke-width="0.5" opacity="0.8"/>
    <rect x="-128.0" y="-58.0" width="256.0" height="50.0" fill="none" stroke="#888" stroke-width="0.5" stroke-dasharray="4 3"/>
<rect x="-136.0" y="-8.0" width="272.0" height="8.0" fill="none" stroke="#111" stroke-width="0.9"/>
<rect x="-140.0" y="-58.0" width="12.0" height="50.0" fill="none" stroke="#111" stroke-width="0.9"/>
<rect x="128.0" y="-58.0" width="12.0" height="50.0" fill="none" stroke="#111" stroke-width="0.9"/>
<rect x="-128.0" y="-58.0" width="256.0" height="50.0" fill="none" stroke="#111" stroke-width="0.9"/>
    
<g stroke="#111" fill="#111" stroke-width="0.6" font-family="sans-serif">
  <line x1="-140.0" y1="12.0" x2="-140.0" y2="36.0" stroke-width="0.4" stroke="#666"/>
  <line x1="140.0" y1="12.0" x2="140.0" y2="36.0" stroke-width="0.4" stroke="#666"/>
  <line x1="-140.0" y1="28.0" x2="140.0" y2="28.0" marker-start="url(#arr-side)" marker-end="url(#arr-side)"/>
  <text x="0" y="23.0" text-anchor="middle" font-size="11" stroke="none">280</text>
</g>
    
<g stroke="#111" fill="#111" stroke-width="0.6" font-family="sans-serif">
  <line x1="152.0" y1="-58.0" x2="176.0" y2="-58.0" stroke-width="0.4" stroke="#666"/>
  <line x1="152.0" y1="0.0" x2="176.0" y2="0.0" stroke-width="0.4" stroke="#666"/>
  <line x1="168.0" y1="-58.0" x2="168.0" y2="0.0" marker-start="url(#arr-side)" marker-end="url(#arr-side)"/>
  <text x="174.0" y="-29.0" text-anchor="start" dominant-baseline="middle" font-size="11" stroke="none">58</text>
</g>
  </g></g>
  <g transform="translate(0, 360)"><g transform="translate(290.0, 262.0)">
    <rect x="-282.0" y="-254.0" width="564.0" height="526.0" fill="none" stroke="#222" stroke-width="1"/>
    
<line x1="-282.0" y1="-222.0" x2="282.0" y2="-222.0" stroke="#222" stroke-width="0.6"/>
<text x="-272.0" y="-232.0" font-size="13" font-weight="700" fill="#111" font-family="sans-serif">俯視圖</text>
<text x="-200.0" y="-232.0" font-size="10" fill="#666" font-family="sans-serif">TOP VIEW</text>
    
<g stroke="#888" stroke-width="0.5" stroke-dasharray="8 2 2 2" opacity="0.7">
  <line x1="0" y1="-150.0" x2="0" y2="150.0"/>
  <line x1="-210.0" y1="0.0" x2="210.0" y2="0.0"/>
</g>
    <rect x="-200.0" y="-140.0" width="400.0" height="280.0" fill="none" stroke="#999" stroke-dasharray="3 3" stroke-width="0.5" opacity="0.8"/>
    <rect x="-196.0" y="-136.0" width="392.0" height="272.0" fill="none" stroke="#111" stroke-width="0.9"/>
<rect x="-200.0" y="-140.0" width="400.0" height="12.0" fill="none" stroke="#111" stroke-width="0.9"/>
<rect x="-200.0" y="128.0" width="400.0" height="12.0" fill="none" stroke="#111" stroke-width="0.9"/>
<rect x="188.0" y="-128.0" width="12.0" height="256.0" fill="none" stroke="#111" stroke-width="0.9"/>
<rect x="-200.0" y="-128.0" width="12.0" height="256.0" fill="none" stroke="#111" stroke-width="0.9"/>
    
<g stroke="#111" fill="#111" stroke-width="0.6" font-family="sans-serif">
  <line x1="-200.0" y1="152.0" x2="-200.0" y2="176.0" stroke-width="0.4" stroke="#666"/>
  <line x1="200.0" y1="152.0" x2="200.0" y2="176.0" stroke-width="0.4" stroke="#666"/>
  <line x1="-200.0" y1="168.0" x2="200.0" y2="168.0" marker-start="url(#arr-top)" marker-end="url(#arr-top)"/>
  <text x="0" y="163.0" text-anchor="middle" font-size="11" stroke="none">400</text>
</g>
    
<g stroke="#111" fill="#111" stroke-width="0.6" font-family="sans-serif">
  <line x1="212.0" y1="-140.0" x2="236.0" y2="-140.0" stroke-width="0.4" stroke="#666"/>
  <line x1="212.0" y1="140.0" x2="236.0" y2="140.0" stroke-width="0.4" stroke="#666"/>
  <line x1="228.0" y1="-140.0" x2="228.0" y2="140.0" marker-start="url(#arr-top)" marker-end="url(#arr-top)"/>
  <text x="234.0" y="0.0" text-anchor="start" dominant-baseline="middle" font-size="11" stroke="none">280</text>
</g>
  </g></g>
</g>
</svg>